<svg data-name="header - bg - 1" xmlns="http://www.w3.org/2000/svg" width="375" height="100" viewBox="0 0 375 100">
    <defs>
        <filter id="nr6cq6fn6c" x="170" y="42" width="203.126" height="137.984" filterUnits="userSpaceOnUse">
            <feOffset dy="5"/>
            <feGaussianBlur stdDeviation="5" result="blur"/>
            <feFlood flood-color="#03263b"/>
            <feComposite operator="in" in2="blur"/>
            <feComposite in="SourceGraphic"/>
        </filter>
        <filter id="oxi23o0r7d" x="-15" y="78" width="120" height="100" filterUnits="userSpaceOnUse">
            <feOffset dy="3"/>
            <feGaussianBlur stdDeviation="5" result="blur-2"/>
            <feFlood flood-color="#03263b"/>
            <feComposite operator="in" in2="blur-2"/>
            <feComposite in="SourceGraphic"/>
        </filter>
        <filter id="0ig96w4f7e" x="-2.5" y="60.495" width="142" height="115" filterUnits="userSpaceOnUse">
            <feOffset dy="3"/>
            <feGaussianBlur stdDeviation="7.5" result="blur-3"/>
            <feFlood flood-color="#03263b"/>
            <feComposite operator="in" in2="blur-3"/>
            <feComposite in="SourceGraphic"/>
        </filter>
        <linearGradient id="83822r1hma" x1=".793" y1=".136" x2=".266" y2="1.693" gradientUnits="objectBoundingBox">
            <stop offset="0" stop-color="#0b486d"/>
            <stop offset="1" stop-color="#03263b"/>
        </linearGradient>
        <clipPath id="w470yyhzbb">
            <path transform="translate(2539)" style="fill:url(#83822r1hma)" d="M0 0h375v100H0z"/>
        </clipPath>
    </defs>
    <g transform="translate(-2539)" style="clip-path:url(#w470yyhzbb)">
        <path data-name="矩形" transform="translate(2539)" style="fill:url(#83822r1hma)" d="M0 0h375v160H0z"/>
        <g style="opacity:.2">
            <path data-name="路径" d="M81.741 53.745 24.166 114.49h70.642l21.149-22.29 81.335-85.694H126.52z" transform="translate(2739.834 -32.484)" style="fill:#dcdedd"/>
            <g style="filter:url(#nr6cq6fn6c)">
                <path data-name="路径" d="M81.741 53.745 24.166 114.49h70.642l21.149-22.29 81.335-85.694H126.52z" transform="translate(2699.83 45.49)" style="fill:#00ada2"/>
            </g>
            <g style="filter:url(#oxi23o0r7d)">
                <path data-name="路径" d="M79.647 37.128 43.166 76.506h25.062l13.4-14.45 38.1-41.064 13.438-14.486h-25.145z" transform="translate(2495.83 83.49)" style="fill:#00ada2"/>
            </g>
            <g style="filter:url(#0ig96w4f7e)">
                <path data-name="路径" d="M79.647 37.128 43.166 76.506h32.062l13.4-14.45 51.537-55.55h-32.144z" transform="translate(2515.83 73.49)" style="opacity:.6;fill:#dcdedd"/>
            </g>
        </g>
    </g>
</svg>
