<svg id="icon-arrow" xmlns="http://www.w3.org/2000/svg" width="16" height="16" viewBox="0 0 16 16">
  <defs>
    <style>
      .cls-1 {
        fill: none;
      }

      .cls-2 {
        fill: #b7bac1;
      }
    </style>
  </defs>
  <rect id="矩形" class="cls-1" width="16" height="16"/>
  <path id="路径" class="cls-2" d="M.437-.5a.942.942,0,0,1,.683.293L4.354,3.107,7.866-.232A.923.923,0,0,1,8.517-.5.937.937,0,0,1,9.2-.2a.94.94,0,0,1-.036,1.324L4.981,5.105a.911.911,0,0,1-.652.268.946.946,0,0,1-.67-.286l0,0L-.225,1.1A.908.908,0,0,1-.5.449.942.942,0,0,1-.214-.227.909.909,0,0,1,.437-.5Z" transform="translate(6.5 12.456) rotate(-90)"/>
</svg>
