<svg data-name="icon-location info" xmlns="http://www.w3.org/2000/svg" width="40" height="40" viewBox="0 0 40 40">
    <path style="fill:none" d="M0 0h40v40H0z"/>
    <path d="M458.136 1833.686a47.593 47.593 0 0 1-11.407-13.332c-4.233-7.822.173-15.035 3.942-17.749 3.449-2.485 10.684-4.46 16.477.28a14.362 14.362 0 0 1 5.269 12.4.8.8 0 1 1-1.594-.137 12.77 12.77 0 0 0-4.685-11.025c-5.1-4.172-11.484-2.417-14.531-.22-2.232 1.606-7.665 7.937-3.481 15.668a45.975 45.975 0 0 0 11.015 12.868.8.8 0 0 1-1 1.246zm-5.561-20.049a6.15 6.15 0 1 1 6.151 6.151 6.157 6.157 0 0 1-6.151-6.151zm1.6 0a4.551 4.551 0 1 0 4.552-4.55 4.557 4.557 0 0 0-4.553 4.55z" transform="translate(-442.4 -1797.364)" style="stroke:transparent;stroke-miterlimit:10;fill:#03263b"/>
    <path data-name="联合" d="M445.5 1816.645a.752.752 0 0 1-.5-.707v-12.79a3.154 3.154 0 0 1 3.15-3.148H459a3.152 3.152 0 0 1 3.148 3.148v7.187a3.152 3.152 0 0 1-3.148 3.148h-10.294l-2.374 2.927a.748.748 0 0 1-.581.278.738.738 0 0 1-.251-.043zm1-13.5v10.674l1.266-1.562a.752.752 0 0 1 .583-.278H459a1.65 1.65 0 0 0 1.649-1.648v-7.187A1.65 1.65 0 0 0 459 1801.5h-10.85a1.65 1.65 0 0 0-1.65 1.648zm5.549 7.651a.677.677 0 1 1 0-1.354h.89v-2.629h-.188a.727.727 0 0 1 0-1.454h.915a.73.73 0 0 1 .727.727v3.356h.7a.677.677 0 0 1 0 1.354zm.346-7.152a1.086 1.086 0 1 1 1.086 1.087 1.087 1.087 0 0 1-1.081-1.084z" transform="translate(-425.007 -1778.386)" style="fill:#00ada2;stroke:transparent;stroke-miterlimit:10"/>
</svg>
