<svg id="icon_-_flag_-_en" data-name="icon - flag - en" xmlns="http://www.w3.org/2000/svg" xmlns:xlink="http://www.w3.org/1999/xlink" width="32" height="32" viewBox="0 0 32 32">
  <defs>
    <style>
      .cls-1 {
        fill: #0052b4;
      }

      .cls-2 {
        clip-path: url(#clip-path);
      }

      .cls-3 {
        fill: #fff;
      }

      .cls-4 {
        fill: #d80027;
      }
    </style>
    <clipPath id="clip-path">
      <rect id="矩形" class="cls-1" width="32" height="32" rx="8" transform="translate(-51 2314)"/>
    </clipPath>
  </defs>
  <rect id="矩形-2" data-name="矩形" class="cls-1" width="32" height="32" rx="8"/>
  <g id="蒙版组" class="cls-2" transform="translate(51 -2314)">
    <path id="联合" class="cls-3" d="M15.557,18.385,2.829,31.113,0,28.284,12.728,15.557,0,2.829,2.829,0,15.557,12.728,28.284,0l2.829,2.829L18.385,15.557,31.113,28.284l-2.829,2.829Z" transform="translate(-50.556 2314.443)"/>
    <path id="联合-2" data-name="联合" class="cls-4" d="M.636,28.929,13.93,15.635,0,1.706,1.061.644,14.35,13.934,28.284,0l1.06,1.06L16.051,14.354l13.93,13.93-1.061,1.06L15.632,16.056,1.7,29.99Z" transform="translate(-49.99 2315)"/>
  </g>
  <path id="联合-3" data-name="联合" class="cls-3" d="M12-1968v-12H0v-8H12v-12h8v12H32v8H20v12Z" transform="translate(0 2000)"/>
  <path id="联合-4" data-name="联合" class="cls-4" d="M14,32V18H0V14H14V0h4V14H32v4H18V32Z"/>
</svg>
