<svg xmlns="http://www.w3.org/2000/svg" width="40" height="40" viewBox="0 0 40 40">
    <path style="fill:none" d="M0 0h40v40H0z"/>
    <path d="M515.4 1815.682a15.752 15.752 0 1 1 19.022-24.51.75.75 0 1 1-1.112 1.008 14.25 14.25 0 1 0-17.209 22.177.75.75 0 1 1-.7 1.326zm-1.31-5.269a12.25 12.25 0 0 1 8.662-20.912 12.291 12.291 0 0 1 8.946 3.883.751.751 0 0 1-.071 1.091l-1.686 1.393a.75.75 0 1 1-.955-1.156l1.049-.867a10.594 10.594 0 0 0-6.533-2.809v1.929a.75.75 0 0 1-1.5 0v-1.925a10.7 10.7 0 0 0-6.222 2.545l1.236 1.381a.75.75 0 0 1-1.117 1l-1.187-1.326a10.692 10.692 0 0 0-2.672 6.361h1.8a.75.75 0 1 1 0 1.5h-1.8a10.647 10.647 0 0 0 2.628 6.332l1.292-1.163a.75.75 0 0 1 1 1.115l-1.839 1.654a.749.749 0 0 1-1.031-.027z" transform="translate(-506.038 -1784.357)" style="stroke:transparent;stroke-miterlimit:10;fill:#03263b"/>
    <path data-name="联合" d="M512.894 1811.512v-2.26a.432.432 0 0 0-.432-.432h-1.773a2.581 2.581 0 0 1 0-5.162h4.017a.75.75 0 0 1 0 1.5h-4.017a1.081 1.081 0 1 0 0 2.162h1.773a1.934 1.934 0 0 1 1.932 1.932v2.26a.75.75 0 0 1-1.5 0zm14 0v-7.773a2.426 2.426 0 0 1 2.424-2.424h2.47a1.8 1.8 0 0 0 0-3.591h-2.1a.748.748 0 0 1 0-1.5 1.943 1.943 0 0 0 0-3.886h-.518a.75.75 0 1 1 0-1.5h.518a3.447 3.447 0 0 1 3.443 3.443 3.41 3.41 0 0 1-.664 2.014 3.295 3.295 0 0 1-.675 6.52h-2.47a.924.924 0 0 0-.923.924v7.773a.75.75 0 0 1-1.5 0zm-9.3 0v-2.8a3.1 3.1 0 0 1 3.092-3.093h1.764a1.8 1.8 0 1 0 0-3.59h-6.971a.75.75 0 0 1 0-1.5h6.971a3.278 3.278 0 0 1 1.8.538v-1.722a.749.749 0 0 0-.749-.748h-4.546a3.487 3.487 0 0 1 0-6.975h1.189l.028-1.586a3.508 3.508 0 0 1 3.5-3.5h3.064a.75.75 0 0 1 0 1.5h-3.064a2.006 2.006 0 0 0-2 2v1.558a1.529 1.529 0 0 1-1.528 1.527h-1.189a1.988 1.988 0 0 0 0 3.975h4.545a2.251 2.251 0 0 1 2.249 2.248v4.568c0 .032-.015.059-.018.09a3.292 3.292 0 0 1-3.278 3.117h-1.764a1.594 1.594 0 0 0-1.592 1.593v2.8a.75.75 0 0 1-1.5 0zm-5.854-10.338a.9.9 0 1 1 .9.9.9.9 0 0 1-.894-.901zm-.838-9.314v-.006a1.89 1.89 0 0 1 .135-.695l-3.828-3.874a.756.756 0 1 1 1.073-1.065l3.83 3.871a1.889 1.889 0 1 1-1.215 1.763zm14.837-.272a.9.9 0 1 1 .9.9.9.9 0 0 1-.893-.901z" transform="translate(-495.646 -1773.905)" style="fill:#00ada2;stroke:transparent;stroke-miterlimit:10"/>
</svg>
