<svg id="icon-ball-time" xmlns="http://www.w3.org/2000/svg" width="40" height="40" viewBox="0 0 40 40">
  <defs>
    <style>
      .cls-1 {
        fill: none;
      }

      .cls-2 {
        fill: #03263b;
      }

      .cls-3 {
        fill: #00ada2;
      }
    </style>
  </defs>
  <rect id="mask" class="cls-1" width="40" height="40"/>
  <path id="路径" class="cls-2" d="M228.616,490.275h-4.173v.58a1.932,1.932,0,0,1-3.864,0V480.98a1.932,1.932,0,1,1,3.864,0v.581h4.236a11.629,11.629,0,0,1,6.251-6.25v-2.988a.625.625,0,0,1,.624-.626h1.213v-2.51h-7.141a1.932,1.932,0,0,1,0-3.864h19.459a1.932,1.932,0,0,1,0,3.864H241.8V471.7h1.263a.625.625,0,0,1,.62.625v2.945a11.627,11.627,0,0,1,6.354,6.293h4.159v-.58a1.931,1.931,0,0,1,3.863,0v6.124a.625.625,0,0,1-1.249.05.414.414,0,0,1,0-.05v-6.124a.682.682,0,1,0-1.363-.052.455.455,0,0,0,0,.052v4.874a.625.625,0,0,1-1.25,0v-3.044h-3.714a11.589,11.589,0,0,1,.316,4.9c-.058.337-1.286.156-1.235-.185a10.548,10.548,0,0,0,.113-1.537A10.313,10.313,0,1,0,239.356,496.3a10.193,10.193,0,0,0,4.653-1.107c.308-.156.872.96.564,1.116a11.435,11.435,0,0,1-5.217,1.241,11.582,11.582,0,0,1-10.74-7.278m-6.787-9.295v9.875a.682.682,0,1,0,1.363.052.455.455,0,0,0,0-.052V480.98a.682.682,0,1,0-1.363-.052.455.455,0,0,0,0,.052m2.614,8.043H228.2a11.606,11.606,0,0,1,.04-6.215h-3.8Zm11.736-14.15a11.593,11.593,0,0,1,6.257-.029v-1.9h-6.257Zm1.837-3.175h2.533v-2.511h-2.536Zm-9.071-4.443a.681.681,0,0,0,.68.681h19.46a.682.682,0,1,0,.052-1.363.448.448,0,0,0-.052,0H229.626a.681.681,0,0,0-.681.681h0m4.195,18.734a6.216,6.216,0,1,1,6.216,6.216h0a6.222,6.222,0,0,1-6.215-6.215Zm1.25,0a4.966,4.966,0,1,0,4.966-4.966,4.966,4.966,0,0,0-4.966,4.966Z" transform="translate(-220 -464)"/>
  <path id="路径-2" data-name="路径" class="cls-3" d="M238.8,494.614v-.873a.625.625,0,0,1,1.25,0v.871a.625.625,0,0,1-1.25,0Zm-5.925-2.058a.625.625,0,0,1,0-.884l.617-.616a.625.625,0,0,1,.884.884l-.617.616a.624.624,0,0,1-.882,0l0,0m-2.11-5.9a.625.625,0,1,1,0-1.25h.875a.625.625,0,0,1,0,1.25Zm16.375-.073a.625.625,0,1,1,0-1.25h.872a.625.625,0,1,1,0,1.25Zm-13.7-5.6-.617-.617a.625.625,0,0,1,.883-.884l.617.616a.625.625,0,0,1-.884.885Zm10.963-.051a.625.625,0,0,1,0-.884l.616-.617a.625.625,0,1,1,.909.858l-.026.026-.616.617a.625.625,0,0,1-.884,0Zm-5.675-2.684v-.875a.625.625,0,0,1,1.25,0v.875a.625.625,0,0,1-1.25,0" transform="translate(-220 -464)"/>
  <path id="路径-3" data-name="路径" class="cls-3" d="M243.789,494.859a7.811,7.811,0,0,1,13.679-5.162v-.789a.531.531,0,0,1,1.062,0v2.429a.531.531,0,0,1-.531.531H255.57a.531.531,0,1,1,0-1.062h1.425a6.745,6.745,0,1,0-2.647,10.23l.039-.016.039-.02.1-.048a.532.532,0,0,1,.492.944l-.028.013-.127.059-.039.016-.044.022a7.823,7.823,0,0,1-10.991-7.147m12.12,5.9a.53.53,0,0,1,.062-.747h0l.085-.075a.531.531,0,1,1,.7.8l-.1.087a.531.531,0,0,1-.748-.061h0Zm1.434-1.376a.532.532,0,0,1-.142-.738l.059-.089a.532.532,0,0,1,.9.568c0,.005-.075.113-.078.118a.544.544,0,0,1-.739.146Zm-3.81-1.318-2.3-2.281a.527.527,0,0,1-.157-.377v-5.514a.531.531,0,0,1,1.062,0h0v5.3l2.144,2.125a.531.531,0,0,1-.374.908.522.522,0,0,1-.375-.155Zm4.811-.4a.53.53,0,0,1-.331-.673v0l.032-.1a.532.532,0,0,1,1.016.313s-.042.129-.043.135a.533.533,0,0,1-.5.359.488.488,0,0,1-.174-.023Zm.509-1.918a.53.53,0,0,1-.5-.558v-.113a.5.5,0,0,1,.481-.518.487.487,0,0,1,.066,0,.532.532,0,0,1,.515.547c0,.005-.005.135-.006.14a.531.531,0,0,1-.53.5Zm-.654-2.38-.029-.122A.531.531,0,1,1,259.2,493a.588.588,0,0,1-.376.7.717.717,0,0,1-.16.021.455.455,0,0,1-.468-.341Z" transform="translate(-220 -464)"/>
</svg>
