<svg data-name="icon-updated date" xmlns="http://www.w3.org/2000/svg" width="40" height="40" viewBox="0 0 40 40">
    <path style="fill:none" d="M0 0h40v40H0z"/>
    <path d="M345.73 551.837a.749.749 0 0 0-.958.456l-.419 1.182a7.421 7.421 0 0 1 7.315-11.963.75.75 0 1 0 .318-1.465 8.917 8.917 0 0 0-9.093 13.988l-1.05-.373a.75.75 0 0 0-.5 1.414l2.876 1.022a.775.775 0 0 0 .251.043.754.754 0 0 0 .707-.5l1.011-2.847a.751.751 0 0 0-.456-.958" transform="translate(-330 -524)" style="fill:#00ada2"/>
    <path data-name="路径" d="m359.165 543.011-2.875-1.021a.749.749 0 0 0-.958.456l-1.011 2.846a.75.75 0 0 0 .456.958.732.732 0 0 0 .251.043.749.749 0 0 0 .706-.5l.446-1.255a7.422 7.422 0 0 1-7.74 11.472.75.75 0 1 0-.332 1.463 9.017 9.017 0 0 0 1.994.225 8.912 8.912 0 0 0 7.552-13.633l1.009.359a.75.75 0 0 0 .5-1.414" transform="translate(-330 -524)" style="fill:#00ada2"/>
    <path data-name="路径" d="M350.772 544.12a.75.75 0 0 0-1.5 0v4.833a.755.755 0 0 0 .155.457l2.029 2.638a.75.75 0 0 0 1.189-.914l-1.873-2.436z" transform="translate(-330 -524)" style="fill:#00ada2"/>
    <path data-name="路径" d="M365.035 530h-3.179v-.958a2.287 2.287 0 1 0-4.575 0V530H342.72v-.958a2.288 2.288 0 1 0-4.575 0V530h-3.18a2.462 2.462 0 0 0-2.458 2.459v24.628a4.171 4.171 0 0 0 4.167 4.167h26.653a4.171 4.171 0 0 0 4.167-4.167v-24.632a2.462 2.462 0 0 0-2.459-2.455m-6.254-.958a.787.787 0 1 1 1.575 0v3.246a.787.787 0 0 1-1.575 0zm-19.136 0a.788.788 0 1 1 1.575 0v3.246a.788.788 0 0 1-1.575 0zm-4.68 2.458h3.18v.788a2.288 2.288 0 0 0 4.575 0v-.788h14.561v.788a2.287 2.287 0 0 0 4.575 0v-.788h3.179a.96.96 0 0 1 .959.959v4.137h-31.987v-4.137a.96.96 0 0 1 .958-.959m28.362 28.254h-26.653a2.669 2.669 0 0 1-2.667-2.667v-18.995h31.987v18.991a2.669 2.669 0 0 1-2.667 2.667" transform="translate(-330 -524)" style="fill:#03263b"/>
</svg>
