<svg id="icon_-_setting_-_focus" data-name="icon - setting - focus" xmlns="http://www.w3.org/2000/svg" width="72" height="72" viewBox="0 0 72 72">
  <defs>
    <style>
      .cls-1 {
        fill: none;
      }

      .cls-2 {
        fill: #7afff7;
      }

      .cls-3 {
        fill: #058;
        stroke: rgba(0,0,0,0);
        stroke-miterlimit: 10;
      }
    </style>
  </defs>
  <rect id="mask" class="cls-1" width="72" height="72"/>
  <path id="路径" class="cls-2" d="M521.345,318.989a27.714,27.714,0,0,0,1.261-3.915l4.867-.713a32.9,32.9,0,0,0,.115-11.055l-5.005-1.473a27.713,27.713,0,0,0-3.292-7.886l2.769-4.182a32.674,32.674,0,0,0-7.859-7.849l-4.538,2.558a27.7,27.7,0,0,0-7.648-3.093l-1.058-4.925a32.882,32.882,0,0,0-10.646-.044l-1.454,5a27.752,27.752,0,0,0-7.816,3.24l-4-2.9a32.713,32.713,0,0,0-7.928,7.776l2.439,4.684a27.734,27.734,0,0,0-3.245,8.1l-4.969,1.5a32.832,32.832,0,0,0,.1,10.044l4.959,1.235a27.712,27.712,0,0,0,3.175,7.746l-2.3,4.87a32.693,32.693,0,0,0,7.014,7.019l4.826-2.324a27.745,27.745,0,0,0,7.883,3.231l1.636,5.016a32.925,32.925,0,0,0,9.657.012l2.009-5.1a27.578,27.578,0,0,0,3.487-1.123l-3.777-5.187a21.709,21.709,0,1,1,14.259-14.317Z" transform="translate(-460 -272)"/>
  <path id="联合" class="cls-3" d="M472.1,1412.629a1.75,1.75,0,1,1,1.75,1.75A1.752,1.752,0,0,1,472.1,1412.629Zm-31.738-11.913v-2.5H437a1,1,0,1,1,0-2h3.356v-2.5a1,1,0,0,1,2,0v2.5H445.1a1,1,0,1,1,0,2h-2.748v2.5a1,1,0,0,1-2,0ZM437,1388.358a1,1,0,1,1,0-2h17.956a1,1,0,1,1,0,2Zm3.355-7.358v-2.5H437a1,1,0,1,1,0-2h3.355V1374a1,1,0,0,1,2,0v2.5h17.852a1,1,0,0,1,0,2H442.356v2.5a1,1,0,1,1-2,0Z" transform="translate(-413.105 -1350.858)"/>
  <path id="联合-2" data-name="联合" class="cls-3" d="M464.482,1439.624a1,1,0,0,1-.8-.678l-1.465-4.49a28.656,28.656,0,0,1-7.151-2.934l-4.344,2.092a1,1,0,0,1-1.026-.1,33.64,33.64,0,0,1-7.229-7.234,1,1,0,0,1-.1-1.018l2.075-4.393a28.639,28.639,0,0,1-2.867-6.97l-4.379-1.092a1,1,0,0,1-.746-.806,33.931,33.931,0,0,1-.1-10.351,1,1,0,0,1,.7-.814l4.418-1.332a28.649,28.649,0,0,1,2.943-7.331l-2.184-4.194a1,1,0,0,1,.076-1.047,33.6,33.6,0,0,1,8.17-8.014,1,1,0,0,1,1.157.013l3.468,2.519a28.71,28.71,0,0,1,6.958-2.873l1.294-4.451a1,1,0,0,1,.8-.708,33.971,33.971,0,0,1,10.971.045,1,1,0,0,1,.812.776l.928,4.316a28.682,28.682,0,0,1,6.806,2.76l4.041-2.279a1,1,0,0,1,1.066.054,33.536,33.536,0,0,1,8.1,8.09,1,1,0,0,1,.017,1.129l-2.422,3.658a28.708,28.708,0,0,1,2.939,7.059l4.459,1.312a1,1,0,0,1,.706.8,33.875,33.875,0,0,1-.117,11.393,1,1,0,0,1-.84.81l-4.208.617a28.782,28.782,0,0,1-1.138,3.4,1,1,0,0,1-1.853-.753,26.747,26.747,0,0,0,1.215-3.773,1,1,0,0,1,.827-.754l4.149-.607a31.873,31.873,0,0,0,.085-9.392l-4.394-1.292a1,1,0,0,1-.689-.722,26.7,26.7,0,0,0-3.173-7.6,1,1,0,0,1,.018-1.075l2.389-3.605a31.586,31.586,0,0,0-6.709-6.689l-3.982,2.245a1,1,0,0,1-1-.011,26.714,26.714,0,0,0-7.371-2.982,1,1,0,0,1-.745-.763l-.914-4.253a32.119,32.119,0,0,0-9.031-.031l-1.275,4.385a1,1,0,0,1-.723.692,26.711,26.711,0,0,0-7.534,3.124,1,1,0,0,1-1.107-.046l-3.42-2.483a31.57,31.57,0,0,0-6.746,6.636l2.152,4.131a1,1,0,0,1-.029.976,26.676,26.676,0,0,0-3.128,7.8,1,1,0,0,1-.688.737l-4.352,1.311a31.951,31.951,0,0,0,.082,8.464l4.314,1.074a1,1,0,0,1,.73.736,26.694,26.694,0,0,0,3.061,7.465,1,1,0,0,1,.047.942l-2.044,4.326a31.663,31.663,0,0,0,5.967,5.971l4.28-2.06a.994.994,0,0,1,.949.045,26.7,26.7,0,0,0,7.6,3.114,1,1,0,0,1,.718.663l1.443,4.422a32.021,32.021,0,0,0,8.185.005l1.794-4.555a1,1,0,0,1,.688-.6,26.876,26.876,0,0,0,3.361-1.083,1,1,0,1,1,.738,1.859,28.715,28.715,0,0,1-3.111,1.034l-1.823,4.627a1,1,0,0,1-.784.622,34.045,34.045,0,0,1-4.934.361A33.655,33.655,0,0,1,464.482,1439.624Zm26.626-2.65a1,1,0,0,1-.119-.112l-12.3-13.663a10.932,10.932,0,0,1-10.945-2.588c-5.08-4.986-2.534-11.741-2.423-12.026a1,1,0,0,1,1.639-.344l3.892,3.892,4.629-4.629-3.595-3.893a1,1,0,0,1,.481-1.646c.3-.077,7.382-1.872,11.633,3.152a12.4,12.4,0,0,1,2.474,10.575l13.718,12.69a1,1,0,0,1,.1.11,5.752,5.752,0,0,1-.82,8.089,6.381,6.381,0,0,1-4.345,1.769A6.709,6.709,0,0,1,491.108,1436.973Zm-11.371-15.6,12.676,14.084a4.376,4.376,0,0,0,5.726-.359,3.771,3.771,0,0,0,.634-5.3l-14.09-13.033a1,1,0,0,1-.275-1.033,10.482,10.482,0,0,0-1.931-9.316c-2.281-2.7-5.753-2.921-7.835-2.767l2.965,3.211a1,1,0,0,1-.028,1.385l-6.015,6.016a1,1,0,0,1-1.414,0l-3.376-3.375a8.821,8.821,0,0,0,11.84,10.235,1,1,0,0,1,1.124.256ZM446.769,1406.5a22.731,22.731,0,1,1,44.452,6.717,1,1,0,1,1-1.911-.589,20.714,20.714,0,1,0-13.6,13.656,1,1,0,1,1,.6,1.908,22.744,22.744,0,0,1-29.536-21.693Z" transform="translate(-434 -1369.998)"/>
</svg>
