<svg id="icon_-_info" data-name="icon - info" xmlns="http://www.w3.org/2000/svg" width="16" height="16" viewBox="0 0 16 16">
  <defs>
    <style>
      .cls-1 {
        fill: none;
      }

      .cls-2 {
        fill: rgba(3,38,59,0.35);
      }

      .cls-3 {
        fill: #fff;
        stroke: rgba(0,0,0,0);
        stroke-miterlimit: 10;
      }
    </style>
  </defs>
  <rect id="矩形" class="cls-1" width="16" height="16"/>
  <path id="路径" class="cls-2" d="M14.452,3.309V13.53L16,15.5H2.706A2.759,2.759,0,0,1,0,12.692V3.309A2.759,2.759,0,0,1,2.706.5h9.04a2.759,2.759,0,0,1,2.706,2.809"/>
  <path id="联合" class="cls-3" d="M-292.414,410.359a.6.6,0,0,1-.587-.6.6.6,0,0,1,.587-.6h1.105v-3.146h-.34a.659.659,0,0,1-.66-.658.659.659,0,0,1,.66-.658h1a.659.659,0,0,1,.658.658v3.8h.905a.6.6,0,0,1,.585.6.594.594,0,0,1-.585.6Zm.514-7.929a1.051,1.051,0,0,1,1.049-1.049,1.051,1.051,0,0,1,1.05,1.049,1.051,1.051,0,0,1-1.05,1.05A1.051,1.051,0,0,1-291.9,402.43Z" transform="translate(298.25 -397.78)"/>
</svg>
