<svg id="icon_-_Device_List" data-name="icon - Device List" xmlns="http://www.w3.org/2000/svg" width="145" height="145" viewBox="0 0 145 145">
  <defs>
    <style>
      .cls-1 {
        fill: none;
      }

      .cls-1, .cls-4 {
        opacity: 0.5;
      }

      .cls-2 {
        fill: #fff;
      }

      .cls-3, .cls-4, .cls-7 {
        fill: #00ada2;
      }

      .cls-3 {
        opacity: 0.2;
      }

      .cls-4, .cls-6, .cls-7 {
        stroke: rgba(0,0,0,0);
        stroke-miterlimit: 10;
      }

      .cls-5 {
        fill: rgba(3,38,59,0.35);
      }

      .cls-6 {
        fill: #03263b;
      }
    </style>
  </defs>
  <rect id="mask" class="cls-1" width="145" height="145"/>
  <path id="路径" class="cls-2" d="M300.7,94.973H278V30.431a8.93,8.93,0,0,0-8.931-8.931h-6.654c0-.048.008-.095.008-.144,0-4.523-4.059-8.187-9.065-8.187h-7.25c0-4.069-3.651-7.369-8.156-7.369S229.8,9.1,229.8,13.169H221.64c-5.005,0-9.062,3.666-9.062,8.187,0,.049.007.1.008.144h-6.655A8.93,8.93,0,0,0,197,30.431v88.138a8.93,8.93,0,0,0,8.931,8.931h45.65l.79,8.149a2.824,2.824,0,0,0,2.824,2.824h39.928a2.821,2.821,0,0,0,2.821-2.823l4.97-38.458v0a2.218,2.218,0,0,0-2.219-2.217" transform="translate(-165)"/>
  <path id="路径-2" data-name="路径" class="cls-2" d="M185.149,40.781a3.625,3.625,0,1,0,3.625,3.625,3.625,3.625,0,0,0-3.625-3.625" transform="translate(-165)"/>
  <path id="路径-3" data-name="路径" class="cls-3" d="M300.7,94.973H250.861a2.218,2.218,0,0,0-2.217,2.219l3.727,38.457a2.824,2.824,0,0,0,2.824,2.824h39.928a2.821,2.821,0,0,0,2.821-2.823l4.97-38.458v0a2.218,2.218,0,0,0-2.219-2.217" transform="translate(-165)"/>
  <path id="路径-4" data-name="路径" class="cls-4" d="M253.358,13.169h-7.25c0-4.069-3.651-7.369-8.156-7.369S229.8,9.1,229.8,13.169H221.64c-5.005,0-9.062,3.666-9.062,8.187s4.057,8.187,9.063,8.187H253.36c5,0,9.063-3.664,9.063-8.187s-4.059-8.187-9.065-8.187" transform="translate(-165)"/>
  <path id="联合" class="cls-5" d="M426,1372.944a5.8,5.8,0,1,1,5.8,5.8A5.8,5.8,0,0,1,426,1372.944Zm112.557-97.969a7.975,7.975,0,1,1,7.975,7.975A7.974,7.974,0,0,1,538.556,1274.975Z" transform="translate(-420.17 -1252.05)"/>
  <path id="联合-2" data-name="联合" class="cls-6" d="M436.164,1391.437A10.165,10.165,0,0,1,426,1381.275v-88.7a10.176,10.176,0,0,1,10.165-10.164h5.407c.859-4.557,5.189-8.037,10.4-8.037h6.794a9.831,9.831,0,0,1,19.036,0h5.888c5.211,0,9.542,3.479,10.4,8.037h5.407a10.162,10.162,0,0,1,10.163,10.162v54.488a1.5,1.5,0,0,1-3,0v-54.488a7.161,7.161,0,0,0-7.162-7.162h-5.358c-.72,4.7-5.125,8.337-10.448,8.337H451.97c-5.324,0-9.728-3.634-10.448-8.337h-5.358A7.172,7.172,0,0,0,429,1292.57v88.7a7.164,7.164,0,0,0,7.164,7.162h35.717a1.5,1.5,0,1,1,0,3Zm8.243-107.381c0,3.687,3.393,6.687,7.563,6.687h31.719c4.171,0,7.564-3,7.564-6.687s-3.395-6.687-7.565-6.687h-7.25a1.5,1.5,0,0,1-1.5-1.5c0-3.235-2.986-5.869-6.656-5.869s-6.656,2.633-6.656,5.869a1.5,1.5,0,0,1-1.5,1.5h-8.156C447.8,1277.369,444.407,1280.369,444.407,1284.056Zm-4.425,88.062a1.5,1.5,0,1,1,0-3h31.9a1.5,1.5,0,1,1,0,3Zm0-8.157a1.5,1.5,0,1,1,0-3h31.9a1.5,1.5,0,1,1,0,3Zm25.375-15.405a1.5,1.5,0,0,1,0-3h31.9a1.5,1.5,0,0,1,0,3Zm18.15-8.158a1.5,1.5,0,1,1,0-3h2.9a1.5,1.5,0,1,1,0,3Zm-18.15,0a1.5,1.5,0,0,1,0-3h11.6a1.5,1.5,0,1,1,0,3Zm0-21.749a1.5,1.5,0,0,1,0-3h31.9a1.5,1.5,0,0,1,0,3Zm18.15-8.157a1.5,1.5,0,1,1,0-3h2.9a1.5,1.5,0,1,1,0,3Zm-18.15,0a1.5,1.5,0,0,1,0-3h11.6a1.5,1.5,0,1,1,0,3Z" transform="translate(-395.329 -1262.519)"/>
  <path id="联合-3" data-name="联合" class="cls-6" d="M426,1374.169a7.3,7.3,0,1,1,7.3,7.3A7.309,7.309,0,0,1,426,1374.169Zm3,0a4.3,4.3,0,1,0,4.3-4.3A4.3,4.3,0,0,0,429,1374.169Zm114.241-38.154a2.9,2.9,0,1,1,2.9,2.9A2.9,2.9,0,0,1,543.241,1336.015Zm-106.547-38.334a5.125,5.125,0,1,1,5.125,5.125A5.131,5.131,0,0,1,436.694,1297.681Zm3,0a2.125,2.125,0,1,0,2.125-2.125A2.127,2.127,0,0,0,439.694,1297.681Zm98.862-21.207a9.475,9.475,0,1,1,9.474,9.475A9.486,9.486,0,0,1,538.556,1276.474Zm3,0a6.475,6.475,0,1,0,6.475-6.475A6.482,6.482,0,0,0,541.556,1276.474Z" transform="translate(-421.67 -1253.275)"/>
  <path id="联合-4" data-name="联合" class="cls-7" d="M459.04,1308.375A12.389,12.389,0,0,1,471.415,1296a1.5,1.5,0,1,1,0,3,9.375,9.375,0,0,0,0,18.751,1.5,1.5,0,1,1,0,3A12.389,12.389,0,0,1,459.04,1308.375Zm12.091,3.607a1.5,1.5,0,0,1-1.089-.541l-2.5-3.014a1.5,1.5,0,1,1,2.31-1.915l1.444,1.741,7.216-7.277a1.5,1.5,0,0,1,2.13,2.112l-8.381,8.452a1.5,1.5,0,0,1-1.065.444Zm-12.091-32.607A12.389,12.389,0,0,1,471.415,1267a1.5,1.5,0,1,1,0,3,9.375,9.375,0,0,0,0,18.75,1.5,1.5,0,1,1,0,3A12.389,12.389,0,0,1,459.04,1279.375ZM426,1287.857a2.9,2.9,0,1,1,2.9,2.9A2.9,2.9,0,0,1,426,1287.857Zm45.13-4.874a1.5,1.5,0,0,1-1.089-.542l-2.5-3.013a1.5,1.5,0,1,1,2.31-1.915l1.444,1.741,7.216-7.276a1.5,1.5,0,1,1,2.13,2.111l-8.381,8.452a1.5,1.5,0,0,1-1.065.445Zm78.691-11.3v0a3.625,3.625,0,1,1,3.625,3.625A3.625,3.625,0,0,1,549.822,1271.684Z" transform="translate(-417.494 -1229.894)"/>
  <path id="联合-5" data-name="联合" class="cls-7" d="M433.8,1313a4.081,4.081,0,0,1-4.073-4.073v-2.08l-3.72-33.487c0-.034,0-.068,0-.1,0-.013-.007-.024-.007-.036v-2.754a3.469,3.469,0,0,1,3.469-3.468H479.3a3.472,3.472,0,0,1,3.469,3.468v2.754c0,.012-.006.022-.007.034a1.012,1.012,0,0,1-.005.148l-2.089,14.1h3.8a2.326,2.326,0,0,1,2.323,2.322v2.827a2.325,2.325,0,0,1-2.323,2.323h-4.91l-1.767,11.917,0,2.029a4.078,4.078,0,0,1-4.073,4.076Zm-1.573-4.073a1.577,1.577,0,0,0,1.573,1.573h39.927a1.573,1.573,0,0,0,1.572-1.572l0-.9h-43.07Zm-.131-3.4h43.374l4.6-31.054H428.647Zm48.028-13.049H484.3v-2.472h-3.861Zm-51.341-22.694a.958.958,0,0,0-.284.684v1.5h51.771v-1.5a.968.968,0,0,0-.967-.967H429.468A.962.962,0,0,0,428.784,1269.783Zm19.8,26.809a1,1,0,0,1,0-2h11.6a1,1,0,0,1,0,2Zm0-3.728a1,1,0,0,1,0-2h11.6a1,1,0,0,1,0,2Zm0-3.729a1,1,0,0,1,0-2h11.6a1,1,0,0,1,0,2Zm18.932-5.593a1.866,1.866,0,0,1-1.864-1.864v-2.623a1.866,1.866,0,0,1,1.864-1.864h6.972a1.866,1.866,0,0,1,1.864,1.864v2.623a1.866,1.866,0,0,1-1.864,1.864Zm.137-2h6.7v-2.351h-6.7Zm-33.279,2a1.866,1.866,0,0,1-1.864-1.864v-2.623a1.866,1.866,0,0,1,1.864-1.864h6.972a1.866,1.866,0,0,1,1.864,1.864v2.623a1.866,1.866,0,0,1-1.864,1.864Zm.136-2h6.7v-2.351h-6.7Z" transform="translate(-343.607 -1173.276)"/>
</svg>
