<svg xmlns="http://www.w3.org/2000/svg" width="32" height="32" viewBox="0 0 32 32">
    <path style="fill:none" d="M0 0h32v32H0z"/>
    <path d="M29.242 20.592a.623.623 0 0 1-.459-.753 13.151 13.151 0 1 0-25.611-.195.625.625 0 0 1-1.217.281A14.4 14.4 0 1 1 30.4 16.727a14.518 14.518 0 0 1-.4 3.405.626.626 0 0 1-.607.478.613.613 0 0 1-.148-.019zM11.384 9.788A8.234 8.234 0 0 1 16 8.367a8.351 8.351 0 0 1 7.909 5.659l1.513-.384a9.915 9.915 0 0 0-18.843-.009L8.1 14a8.194 8.194 0 0 1 .9-1.849.624.624 0 0 1 1.044.685 7.089 7.089 0 0 0-.915 2.064.622.622 0 0 1-.749.447l-2.73-.654a.621.621 0 0 1-.389-.284.631.631 0 0 1-.07-.478 11.163 11.163 0 0 1 21.617 0 .623.623 0 0 1-.451.76l-2.72.691a.613.613 0 0 1-.154.019.627.627 0 0 1-.6-.468A7.1 7.1 0 0 0 16 9.615a7 7 0 0 0-3.845 1.158z" style="fill:#fff"/>
    <path d="M508.354 1805.122a4.633 4.633 0 1 1 6.552-6.553 4.807 4.807 0 0 1 .556.671l9.6-.056a4.65 4.65 0 0 1 .494-.584 4.594 4.594 0 0 1 6.491 0 4.69 4.69 0 0 1 .7.9.521.521 0 0 1-.446.787h-3.1l-.853 1.573.728 1.549 3.208.034a.52.52 0 0 1 .438.792 4.621 4.621 0 0 1-.671.853 4.589 4.589 0 0 1-6.491 0 4.508 4.508 0 0 1-.532-.639l-9.6.053a4.638 4.638 0 0 1-7.069.617zm.735-5.817a3.593 3.593 0 1 0 5.608 4.411.523.523 0 0 1 .441-.25l10.168-.056a.52.52 0 0 1 .447.254 3.551 3.551 0 0 0 5.434.81l-2.453-.026a.522.522 0 0 1-.465-.3l-.979-2.083a.517.517 0 0 1 .013-.468l1.126-2.075a.521.521 0 0 1 .456-.274h2.333a3.553 3.553 0 0 0-5.436.731.521.521 0 0 1-.438.247l-10.166.058a.489.489 0 0 1-.451-.255 3.6 3.6 0 0 0-5.64-.722zm1.114 4.618-1.073-1.754a.519.519 0 0 1-.014-.52l.983-1.807a.521.521 0 0 1 .444-.271l2.056-.052a.478.478 0 0 1 .457.248l1.074 1.755a.518.518 0 0 1 .013.518l-.984 1.807a.518.518 0 0 1-.443.272l-2.056.052h-.014a.52.52 0 0 1-.446-.248zm.667-3.32-.7 1.279.76 1.243 1.456-.038.7-1.278-.76-1.243zm5.508 1.824a.52.52 0 0 1 0-1.04l7.862-.061a.52.52 0 0 1 0 1.04l-7.862.061zm2.21-8.909a1.548 1.548 0 0 1 .187-.727l-4.489-5.757a.641.641 0 0 1 1.01-.788l4.488 5.757a1.542 1.542 0 0 1 .367-.048 1.563 1.563 0 1 1-1.563 1.563z" transform="translate(-504.156 -1776.791)" style="fill:#7afff7;stroke:transparent;stroke-miterlimit:10"/>
</svg>
