<svg id="icon_-_Language" data-name="icon - Language" xmlns="http://www.w3.org/2000/svg" width="145" height="145" viewBox="0 0 145 145">
  <defs>
    <style>
      .cls-1 {
        fill: none;
      }

      .cls-1, .cls-3 {
        opacity: 0.5;
      }

      .cls-2, .cls-7 {
        fill: #fff;
      }

      .cls-2, .cls-3, .cls-5, .cls-6 {
        stroke: rgba(0,0,0,0);
        stroke-miterlimit: 10;
      }

      .cls-3, .cls-6 {
        fill: #00ada2;
      }

      .cls-4, .cls-5 {
        fill: #03263b;
      }
    </style>
  </defs>
  <rect id="mask" class="cls-1" width="145" height="145"/>
  <path id="联合" class="cls-2" d="M502.22,1890.635v-18.154h-29.5s-18.013-28.792,0-53.612,49.5-18.016,49.5-18.016v15.321h-3.832s1.557,6.85,7.943,7.233,25.246,0,25.246,0,10.5,25.1,0,43.4-31.912,23.828-31.912,23.828Zm63.571-17.284a7.233,7.233,0,1,1,7.232,7.233A7.232,7.232,0,0,1,565.79,1873.352ZM445,1820.792a7.233,7.233,0,1,1,7.233,7.233A7.233,7.233,0,0,1,445,1820.792Z" transform="translate(-439.78 -1774.853)"/>
  <path id="联合-2" data-name="联合" class="cls-3" d="M445,1914.762v-30.378h40.5v30.378Zm61-85.829V1800h40.5v28.932Z" transform="translate(-423.144 -1787.574)"/>
  <path id="路径" class="cls-4" d="M128.223,41.356a1.25,1.25,0,0,0-1.25-1.25h-2.367V12.426a1.25,1.25,0,0,0-1.25-1.25h-40.5a1.249,1.249,0,0,0-1.25,1.25V24.5A47.385,47.385,0,0,0,71.368,23.25c-.19-.009-.381-.019-.571-.019-.053,0-.1.007-.157.007A47.072,47.072,0,0,0,31.109,95.56H21.856a1.249,1.249,0,0,0-1.25,1.25v29.13H18.24a1.25,1.25,0,0,0-1.25,1.25c0,4.677,4.308,8.483,9.6,8.483H57.623c5.3,0,9.6-3.806,9.6-8.483a1.25,1.25,0,0,0-1.25-1.25H63.61v-9.15a47.082,47.082,0,0,0,6.942.543c.081,0,.161.013.242.015H70.8l.007,0c.265,0,.526-.021.789-.037A47.028,47.028,0,0,0,113.18,49.839h5.439c5.3,0,9.6-3.806,9.6-8.483m-82.78-7.677a44.528,44.528,0,0,1,16.052-6.947C52.88,33.55,46.9,49.669,46.657,69.04H26.3A44.542,44.542,0,0,1,45.443,33.679M26.3,71.54H46.656a81.438,81.438,0,0,0,2.849,20.921,44.916,44.916,0,0,0-5.069,3.1H34.1a44.306,44.306,0,0,1-7.8-24.02m23.92,23.4c.063.205.13.41.193.616h-1.3c.347-.2.712-.4,1.1-.616M23.106,98.06h38v27.878h-38Zm41.465,30.38c-.685,2.7-3.54,4.733-6.948,4.733H26.594c-3.408,0-6.264-2.032-6.948-4.733Zm4.978-13.694a12.212,12.212,0,0,1-5.939-2.468V96.81a1.25,1.25,0,0,0-1.25-1.25H53.032c-.188-.588-.376-1.177-.553-1.767a43.817,43.817,0,0,1,17.07-4.464Zm0-27.917a45.8,45.8,0,0,0-17.761,4.493A78.937,78.937,0,0,1,49.156,71.54H69.549Zm0-17.789H49.157a83.942,83.942,0,0,1,2.334-18.9,39.478,39.478,0,0,0,18.058,4.73Zm0-16.724a37.467,37.467,0,0,1-17.387-4.688c3.576-12.4,9.989-20.948,17.387-21.818Zm56.018-9.71c-.684,2.7-3.54,4.733-6.948,4.733H87.59c-3.409,0-6.264-2.032-6.949-4.733ZM84.1,13.676h38v26.43h-38ZM81.6,27.067v1.051c-.539-.518-1.085-1-1.642-1.441.549.115,1.1.255,1.642.39m-9.553-1.249c3.339.41,6.617,2.447,9.553,5.965v8.323H79.236a1.249,1.249,0,0,0-1.25,1.25c0,4.4,3.805,8.02,8.66,8.44a50.224,50.224,0,0,1-14.6,2.548Zm0,29.071a54.376,54.376,0,0,0,18.1-3.67,1.132,1.132,0,0,0,.156-.1A83.862,83.862,0,0,1,92.436,69.04H72.049Zm0,16.651H92.434a83.777,83.777,0,0,1-2.4,19.182,49.1,49.1,0,0,0-17.98-3.88Zm0,43.232V89.343a46.657,46.657,0,0,1,17.31,3.863c-3.591,12.275-9.971,20.713-17.31,21.566m18.45-4.534a44.477,44.477,0,0,1-10.389,3.6c4.9-3.882,8.937-10.77,11.56-19.552a41.376,41.376,0,0,1,10.628,7.477,44.406,44.406,0,0,1-11.8,8.477m13.517-10.3a43.812,43.812,0,0,0-11.653-8.153,85.959,85.959,0,0,0,2.57-20.247h20.382a44.854,44.854,0,0,1-11.3,28.4m6.723-49.427a44.316,44.316,0,0,1,4.578,18.527H94.936a86.362,86.362,0,0,0-2.356-19.2h18.058a1.21,1.21,0,0,0,.1.674"/>
  <path id="联合-3" data-name="联合" class="cls-5" d="M563.953,1914.018a3.638,3.638,0,0,1,0-7.276h.041a3.638,3.638,0,0,1-.021,7.277Zm-108.633-46.3a2.91,2.91,0,0,1,0-5.82h.033a2.91,2.91,0,0,1-.017,5.82Zm-7.428-61.9a2.909,2.909,0,0,1,0-5.818h.032a2.909,2.909,0,0,1-.016,5.818Z" transform="translate(-441.131 -1784.164)"/>
  <path id="联合-4" data-name="联合" class="cls-6" d="M516.686,1922.22l10.516-5.9,1.487,2.651-5.9,3.313a23.911,23.911,0,0,0,27.792-16.857l2.921.838a26.866,26.866,0,0,1-31.738,18.9l3.379,6.177-2.666,1.46Zm49.1-27.4a8.483,8.483,0,1,1,8.482,8.483A8.492,8.492,0,0,1,565.79,1894.819Zm2.5,0a5.983,5.983,0,1,0,5.983-5.982A5.99,5.99,0,0,0,568.29,1894.819Zm-2.22-13.5a2.909,2.909,0,0,1,0-5.818h.031a2.909,2.909,0,0,1-.015,5.818ZM445,1842.259a8.483,8.483,0,1,1,8.483,8.483A8.493,8.493,0,0,1,445,1842.259Zm2.5,0a5.983,5.983,0,1,0,5.983-5.982A5.99,5.99,0,0,0,447.5,1842.259Zm16.547-10.122a2.91,2.91,0,0,1,0-5.82h.032a2.91,2.91,0,0,1-.016,5.82Zm14.106-10.043a26.864,26.864,0,0,1,34-14.431l-2.513-6.578,2.838-1.085,4.3,11.26-11.206,4.433-1.115-2.828,6.3-2.484a23.913,23.913,0,0,0-29.817,12.944Z" transform="translate(-441.03 -1796.32)"/>
  <path id="路径-2" data-name="路径" class="cls-7" d="M106.953,31.331a14.222,14.222,0,0,0,2.465-7.956h5.255V20.2H104.7V16.179h-3.181V20.2H91.538v3.181h5.788a14.1,14.1,0,0,0,3.606,9.4,11.056,11.056,0,0,1-5.824,1.654v3.181a14.1,14.1,0,0,0,8.264-2.639,14.083,14.083,0,0,0,8.264,2.639V34.431a11.125,11.125,0,0,1-11.13-11.049h5.728a11.075,11.075,0,0,1-1.583,5.656Z"/>
  <path id="路径-3" data-name="路径" class="cls-7" d="M48.819,123.908,51.76,122.7l-6.932-16.815-1.721,4.172,2.184,5.3H38.933l5.8-14.043L41.794,100.1l-9.329,22.6,2.939,1.212,2.215-5.378H46.6Z"/>
</svg>
