<svg id="icon_-_traceability" data-name="icon - traceability" xmlns="http://www.w3.org/2000/svg" width="72" height="72" viewBox="0 0 72 72">
  <defs>
    <style>
      .cls-1 {
        fill: none;
      }

      .cls-2, .cls-3 {
        fill: #00ada2;
      }

      .cls-2 {
        opacity: 0.3;
      }

      .cls-3, .cls-4 {
        stroke: rgba(0,0,0,0);
        stroke-miterlimit: 10;
      }

      .cls-4 {
        fill: #03263b;
      }
    </style>
  </defs>
  <rect id="mask" class="cls-1" width="72" height="72"/>
  <path id="路径" class="cls-2" d="M415.947,303.5a16.29,16.29,0,1,0,16.29,16.29,16.29,16.29,0,0,0-16.29-16.29m0,26.58a10.29,10.29,0,1,1,10.29-10.29,10.29,10.29,0,0,1-10.29,10.29" transform="translate(-368 -272)"/>
  <path id="联合" class="cls-3" d="M451.695,1393.584v-3.833h3.5v2.2l-1.7,1.637Zm-7.848,0v-3.833h3.5v3.833Zm-7.847,0v-3.833h3.5v3.833Zm15.945-10.255V1374.5a1.5,1.5,0,0,1,3,0v8.829c0,.414-.75.622-1.5.622S451.945,1383.743,451.945,1383.329Zm-7.847,0V1374.5a1.5,1.5,0,0,1,3,0v8.829c0,.414-.75.622-1.5.622S444.1,1383.743,444.1,1383.329Zm-7.848,0V1374.5a1.5,1.5,0,0,1,3,0v8.829c0,.414-.75.622-1.5.622S436.25,1383.743,436.25,1383.329Zm23.543,0V1374.5a1.5,1.5,0,0,1,3,0v8.829c0,.414-.75.621-1.5.621S459.793,1383.743,459.793,1383.329Z" transform="translate(-417.49 -1356.301)"/>
  <path id="联合-2" data-name="联合" class="cls-4" d="M498.876,1440.3a3.44,3.44,0,0,1-2.437-1.13l-6.471-7.08a17.212,17.212,0,0,1-26.411-17.108H445.1a1,1,0,0,1-1-1v-8.684a1,1,0,0,1,2,0v7.684h17.879a17.28,17.28,0,1,1,30.972,14.259l6.62,7.243a3.492,3.492,0,0,1-.178,4.87,3.448,3.448,0,0,1-2.383.949Zm-7.275-9.387,6.313,6.91a1.475,1.475,0,0,0,2.178-1.989l-6.388-6.992A17.52,17.52,0,0,1,491.6,1430.909Zm-26.258-13.354a15.289,15.289,0,1,0,15.289-15.29A15.307,15.307,0,0,0,465.344,1417.555Zm4,0a11.29,11.29,0,1,1,11.29,11.29A11.3,11.3,0,0,1,469.343,1417.555Zm2,0a9.29,9.29,0,1,0,9.291-9.29A9.3,9.3,0,0,0,471.343,1417.555Zm-31.78,5.03a3.654,3.654,0,0,1-3.562-3.729V1413a1.25,1.25,0,1,1,2.5,0v5.886a1.158,1.158,0,0,0,1.124,1.2h5.911a1.25,1.25,0,0,1,0,2.5Zm.631-23.793a1,1,0,1,1,0-2h49.048a1,1,0,0,1,0,2Zm43.142-7.866v-7.682H446.1v7.682a1,1,0,0,1-2,0v-8.682a1,1,0,0,1,1-1h39.238a1,1,0,0,1,1,1v8.682a1,1,0,0,1-2,0Zm7.545-8.338V1376.7a1.158,1.158,0,0,0-1.125-1.2h-5.909a1.25,1.25,0,1,1,0-2.5H489.8a3.655,3.655,0,0,1,3.578,3.729v5.858a1.25,1.25,0,1,1-2.5,0Zm-54.88,0V1376.7a3.65,3.65,0,0,1,3.569-3.7h5.966a1.25,1.25,0,1,1,0,2.5H439.7a1.168,1.168,0,0,0-1.2,1.174v5.914a1.25,1.25,0,1,1-2.5,0Z" transform="translate(-432.686 -1369.765)"/>
</svg>
