<svg id="icon-ball-32" xmlns="http://www.w3.org/2000/svg" width="32" height="32" viewBox="0 0 32 32">
  <defs>
    <style>
      .cls-1 {
        fill: none;
      }

      .cls-2 {
        fill: #03263b;
      }

      .cls-2, .cls-3 {
        stroke: rgba(0,0,0,0);
        stroke-miterlimit: 10;
      }

      .cls-3 {
        fill: #00ada2;
      }
    </style>
  </defs>
  <rect id="矩形" class="cls-1" width="32" height="32"/>
  <path id="联合" class="cls-2" d="M278.6,1731.208a1.539,1.539,0,0,1-.479-1.086c0-.024,0-.048,0-.071v-.475h-4.583v-.993h4.583v-5.027h-4.583v-.995h4.583v-.475a1.551,1.551,0,0,1,1.55-1.517h.037a1.548,1.548,0,0,1,1.517,1.516v7.966a1.551,1.551,0,0,1-1.517,1.586h-.037A1.543,1.543,0,0,1,278.6,1731.208Zm.693-9.553a.55.55,0,0,0-.177.388.153.153,0,0,0,0,.041v7.968a.561.561,0,0,0,.148.4.553.553,0,0,0,.388.176h.022a.554.554,0,0,0,.554-.536.308.308,0,0,0,0-.04v-7.968a.558.558,0,0,0-.536-.58h-.022A.555.555,0,0,0,279.293,1721.655Zm-27.813,9.553a1.539,1.539,0,0,1-.479-1.086c0-.023,0-.048,0-.071v-7.965a1.551,1.551,0,0,1,1.549-1.517h.038a1.549,1.549,0,0,1,1.516,1.516v.473h4.582v1H254.1v5.029h4.582v.993H254.1v.476a1.551,1.551,0,0,1-1.516,1.586h-.038A1.539,1.539,0,0,1,251.48,1731.208Zm.693-9.553a.551.551,0,0,0-.178.388.3.3,0,0,0,0,.041v7.968a.565.565,0,0,0,.149.4.551.551,0,0,0,.388.176h.021a.558.558,0,0,0,.556-.536.3.3,0,0,0,0-.04v-7.968a.553.553,0,0,0-.148-.4.561.561,0,0,0-.39-.178h-.021A.55.55,0,0,0,252.173,1721.655Zm16.462-2.969v-3.6h-5.066v3.6h-.995v-4.1a.5.5,0,0,1,.5-.5h.986V1711.1h-5.766a1.551,1.551,0,0,1,0-3.1h15.7a1.551,1.551,0,0,1,0,3.1H268.1v2.99h1.026a.5.5,0,0,1,.5.5v4.1Zm-3.584-4.594h2.058v-2.99h-2.058Zm-7.316-4.541a.559.559,0,0,0,.557.558h15.7a.558.558,0,0,0,0-1.115h-15.7A.559.559,0,0,0,257.735,1709.55Z" transform="translate(-250.113 -1705.353)"/>
  <path id="联合-2" data-name="联合" class="cls-3" d="M251,1716.579a8.579,8.579,0,0,1,8.578-8.579h0a8.579,8.579,0,1,1-8.579,8.579Zm.992,0a7.587,7.587,0,1,0,7.587-7.587A7.61,7.61,0,0,0,251.992,1716.579Zm7.148,6.562v-.7a.5.5,0,1,1,.993,0v.7a.5.5,0,1,1-.993,0Zm-4.19-1.421a.488.488,0,0,1-.338-.134h-.024v-.023a.5.5,0,0,1-.135-.339.492.492,0,0,1,.147-.352l.5-.5a.486.486,0,0,1,.348-.144h0a.5.5,0,0,1,.35.846l-.5.5a.5.5,0,0,1-.351.146Zm9.009-.187-.5-.5a.494.494,0,0,1-.157-.346.5.5,0,0,1,.134-.356.494.494,0,0,1,.348-.156h.016a.487.487,0,0,1,.339.135.186.186,0,0,1,.024.023l.495.495a.5.5,0,1,1-.7.7Zm-9.385-4.953a5.008,5.008,0,1,1,5.008,5.007A5.014,5.014,0,0,1,254.573,1716.579Zm.994,0a4.014,4.014,0,1,0,4.013-4.013A4.018,4.018,0,0,0,255.567,1716.579Zm-2.577.469h0a.5.5,0,0,1-.346-.16.488.488,0,0,1-.131-.357.5.5,0,0,1,.476-.476h.7a.5.5,0,0,1,0,.994Zm12.536-.058h0a.5.5,0,0,1,0-.995h.7a.5.5,0,0,1,0,.995Zm-10.473-4.277-.5-.5a.5.5,0,0,1-.146-.353.5.5,0,0,1,.849-.349l.5.5a.5.5,0,1,1-.7.7Zm8.365-.043-.069-.068h.013a.5.5,0,0,1,.057-.635l.5-.5a.493.493,0,0,1,.348-.144h0a.5.5,0,0,1,.349.847l-.5.5a.5.5,0,0,1-.7,0Zm-4.338-2.065v-.7a.5.5,0,1,1,.993,0v.7a.5.5,0,1,1-.993,0Z" transform="translate(-243.551 -1695.806)"/>
</svg>
