<svg id="icon-fail" xmlns="http://www.w3.org/2000/svg" width="56" height="56" viewBox="0 0 56 56">
  <defs>
    <style>
      .cls-1 {
        fill: none;
      }

      .cls-2 {
        fill: red;
        stroke: rgba(0,0,0,0);
        stroke-miterlimit: 10;
      }
    </style>
  </defs>
  <rect id="mask" class="cls-1" width="56" height="56"/>
  <path id="联合" class="cls-2" d="M445,1732.15A24.15,24.15,0,1,1,469.15,1756.3,24.178,24.178,0,0,1,445,1732.15Zm2.3,0a21.85,21.85,0,1,0,21.85-21.849A21.875,21.875,0,0,0,447.3,1732.15Zm28.586,9.066-6.806-7.479-6.806,7.479a1.15,1.15,0,1,1-1.7-1.549l6.951-7.638-6.953-7.642a1.15,1.15,0,0,1,1.7-1.549l6.808,7.482,6.807-7.482a1.151,1.151,0,0,1,1.7,1.549l-6.953,7.642,6.952,7.638a1.15,1.15,0,1,1-1.7,1.549Z" transform="translate(-441.15 -1704.15)"/>
</svg>
