<svg id="icon-light" xmlns="http://www.w3.org/2000/svg" width="40" height="40" viewBox="0 0 40 40">
  <defs>
    <style>
      .cls-1 {
        fill: none;
      }

      .cls-2 {
        fill: #03263b;
      }

      .cls-3 {
        fill: #00ada2;
      }
    </style>
  </defs>
  <rect id="mask" class="cls-1" width="40" height="40"/>
  <path id="路径" class="cls-2" d="M415.888,554.737l-2.83-2.83a.751.751,0,0,1,0-1.063v0a.75.75,0,0,1,1.062,0l0,0,2.83,2.83a.753.753,0,0,1-1.064,1.065m-22.626,0a.753.753,0,0,1,0-1.065l2.83-2.83a.75.75,0,0,1,1.062,0l0,0a.752.752,0,0,1,0,1.063l0,0-2.83,2.83a.75.75,0,0,1-1.061,0Zm23.672-11a.753.753,0,0,1,0-1.506h4.143a.753.753,0,0,1,0,1.506Zm-27.8,0a.753.753,0,0,1,0-1.506h4.141a.753.753,0,1,1,0,1.506Zm19.265-.754a3.4,3.4,0,0,0-3.391-3.389.753.753,0,0,1,0-1.505,4.9,4.9,0,0,1,4.9,4.9.75.75,0,0,1-.75.752h0a.751.751,0,0,1-.752-.75Zm4.671-7.782a.753.753,0,0,1-.031-1.064h0l2.83-2.989a.752.752,0,0,1,1.063-.03h0a.754.754,0,0,1,.029,1.065l-2.828,2.99a.755.755,0,0,1-1.059.035Zm-17-.03-2.83-2.989a.752.752,0,0,1,.03-1.063h0a.751.751,0,0,1,1.062.027h0l2.83,2.99a.753.753,0,0,1-.028,1.064h0a.753.753,0,0,1-1.055-.022Zm8.234-3.578v-3.756a.7.7,0,0,1,1.4,0V531.6a.7.7,0,1,1-1.39,0Z" transform="translate(-385 -524)"/>
  <path id="路径-2" data-name="路径" class="cls-3" d="M401.574,558.793a.758.758,0,0,1,.713-1h5.765a.756.756,0,0,1,.6.3.746.746,0,0,1,.118.665c-.026.091-.7,2.268-3.8,2.268a3.539,3.539,0,0,1-3.4-2.231m.308-1.719a.753.753,0,1,1,0-1.505h6.264a.753.753,0,0,1,0,1.505Zm-.4-2.72a.752.752,0,0,1-.753-.751h0c0-1.6-1.4-3.223-2.005-3.847-.1-.089-.224-.214-.348-.343a9.239,9.239,0,1,1,13.949-.771l-.007.01a.861.861,0,0,1-.064.072,6.894,6.894,0,0,1-.534.624c-2.261,2.731-2.417,4.289-2.417,4.3a.765.765,0,0,1-.751.7Zm-4.2-11.363a7.7,7.7,0,0,0,2.159,5.357v.005c.114.119.22.223.33.323a8.594,8.594,0,0,1,2.394,4.172h5.771a13.02,13.02,0,0,1,2.655-4.5,8.058,8.058,0,0,0,.535-.618l.008-.009a7.665,7.665,0,0,0,1.615-4.73,7.738,7.738,0,0,0-15.475,0Z" transform="translate(-385 -524)"/>
</svg>
