<svg id="icon-renew" xmlns="http://www.w3.org/2000/svg" width="56" height="56" viewBox="0 0 56 56">
  <defs>
    <style>
      .cls-1 {
        fill: none;
      }

      .cls-2 {
        fill: #00ada2;
        stroke: rgba(0,0,0,0);
        stroke-miterlimit: 10;
      }
    </style>
  </defs>
  <rect id="mask" class="cls-1" width="56" height="56"/>
  <path id="联合" class="cls-2" d="M460.324,1748.246a21.477,21.477,0,0,1-10.749-17.607l-2.428,4.208a1.15,1.15,0,1,1-1.993-1.15l3.81-6.6a1.153,1.153,0,0,1,1.572-.421l6.53,3.772a1.15,1.15,0,1,1-1.15,1.993l-4.071-2.352a19.269,19.269,0,0,0,34.7,11.01,1.15,1.15,0,0,1,1.843,1.377,21.57,21.57,0,0,1-28.063,5.77Zm31.61-14.2-6.531-3.772a1.15,1.15,0,0,1,1.15-1.992l3.793,2.19a19.263,19.263,0,0,0-34.573-12.572,1.149,1.149,0,1,1-1.83-1.391,21.561,21.561,0,0,1,38.7,14l2.678-4.64a1.15,1.15,0,1,1,1.992,1.15l-3.811,6.6a1.145,1.145,0,0,1-.7.535,1.148,1.148,0,0,1-.873-.114Z" transform="translate(-443.313 -1701.754)"/>
</svg>
