<svg id="icon_-_record_-_focus" data-name="icon - record - focus" xmlns="http://www.w3.org/2000/svg" width="72" height="72" viewBox="0 0 72 72">
  <defs>
    <style>
      .cls-1 {
        fill: none;
      }

      .cls-2 {
        fill: #7afff7;
      }

      .cls-2, .cls-3 {
        stroke: rgba(0,0,0,0);
        stroke-miterlimit: 10;
      }

      .cls-3 {
        fill: #058;
      }
    </style>
  </defs>
  <rect id="mask" class="cls-1" width="72" height="72"/>
  <path id="联合" class="cls-2" d="M-1473.422,1022.395l19.489-22.816,5.229,4.278-3.565,4.212-2.139,2.443-13.784,16.637-7.511,2.991Zm-22.578-.119a7.011,7.011,0,0,1,7.011-7.011,7.011,7.011,0,0,1,7.011,7.011,7.011,7.011,0,0,1-7.011,7.011A7.011,7.011,0,0,1-1496,1022.276Zm0-38.264a7.011,7.011,0,0,1,7.011-7.011,7.011,7.011,0,0,1,7.011,7.011,7.011,7.011,0,0,1-7.011,7.011A7.011,7.011,0,0,1-1496,984.011Z" transform="translate(1512.704 -967.139)"/>
  <path id="联合-2" data-name="联合" class="cls-3" d="M448.376,1846.444a1,1,0,0,1-.706-.293l-2.378-2.377a1,1,0,0,1,1.415-1.414l1.641,1.642,5-5.415a1,1,0,0,1,1.471,1.355l-5.7,6.181a1,1,0,0,1-.716.321Zm0-19.014a1,1,0,0,1-.706-.292l-2.378-2.377a1,1,0,0,1,1.415-1.414l1.641,1.642,5-5.415a1,1,0,0,1,1.471,1.356l-5.7,6.179a1,1,0,0,1-.716.321Zm0-19.25a1,1,0,0,1-.706-.292l-2.376-2.377a1,1,0,0,1,1.414-1.415l1.64,1.642,5-5.415a1,1,0,0,1,1.471,1.357l-5.7,6.178a1,1,0,0,1-.716.322Z" transform="translate(-424.781 -1788.524)"/>
  <path id="联合-3" data-name="联合" class="cls-3" d="M450.753,1864.744a5.76,5.76,0,0,1-5.754-5.754v-53.237a5.76,5.76,0,0,1,5.754-5.754h39.929a5.76,5.76,0,0,1,5.753,5.754v19.013a1,1,0,1,1-2,0v-19.013a3.758,3.758,0,0,0-3.753-3.754H450.753a3.758,3.758,0,0,0-3.753,3.754v53.237a3.757,3.757,0,0,0,3.753,3.754h39.929a3.757,3.757,0,0,0,3.753-3.754v-14.047a1,1,0,0,1,2,0v14.047a5.759,5.759,0,0,1-5.753,5.754Zm20.574-4.639a1,1,0,0,1-.286-1.021l2.283-7.745c0-.006.009-.013.011-.021a1.015,1.015,0,0,1,.125-.229.715.715,0,0,1,.063-.116l19.489-22.816a1,1,0,0,1,1.393-.125l5.229,4.278a1,1,0,0,1,.13,1.42l-3.565,4.212a1,1,0,0,1-.7.352.978.978,0,0,1-.742-.266l-4.2-3.917-14.882,17.423,3.737,3.4,13.116-15.831a1,1,0,0,1,1.54,1.276l-13.784,16.637c-.007.007-.015.012-.022.02s0,.01-.009.014-.019.012-.028.02a.965.965,0,0,1-.291.209c-.013.005-.023.014-.034.018l-.016.01-7.51,2.992a1.033,1.033,0,0,1-.372.071A.989.989,0,0,1,471.327,1860.106Zm2.214-2.427,4.114-1.638-2.864-2.6Zm18.314-25.088,3.495,3.26,2.23-2.634L493.9,1830.2ZM450.7,1851.505a8.017,8.017,0,0,1,10.313-7.675,1,1,0,1,1-.574,1.916,6.012,6.012,0,1,0,4.283,5.759,1,1,0,0,1,2,0,8.011,8.011,0,0,1-16.022,0Zm0-19.013a8.019,8.019,0,0,1,10.312-7.676,1,1,0,1,1-.573,1.916,6.013,6.013,0,1,0,4.283,5.76,1,1,0,0,1,2,0,8.011,8.011,0,0,1-16.023,0Zm20.165,3.595a1,1,0,0,1,0-2h9.592a1,1,0,0,1,0,2Zm0-5.229a1,1,0,0,1,0-2h15.771a1,1,0,0,1,0,2ZM450.7,1813.24a8.017,8.017,0,0,1,10.312-7.675,1,1,0,1,1-.573,1.916,6.012,6.012,0,1,0,4.283,5.759,1,1,0,0,1,2,0,8.011,8.011,0,0,1-16.023,0Zm20.165,3.594a1,1,0,1,1,0-2h9.592a1,1,0,1,1,0,2Zm0-5.227a1,1,0,0,1,0-2h19.574a1,1,0,0,1,0,2Z" transform="translate(-435 -1796.368)"/>
</svg>
