<svg id="icon-switch" xmlns="http://www.w3.org/2000/svg" width="40" height="40" viewBox="0 0 40 40">
  <defs>
    <style>
      .cls-1 {
        fill: none;
      }

      .cls-2 {
        fill: #03263b;
      }

      .cls-2, .cls-3 {
        stroke: rgba(0,0,0,0);
        stroke-miterlimit: 10;
      }

      .cls-3 {
        fill: #00ada2;
      }
    </style>
  </defs>
  <rect id="mask" class="cls-1" width="40" height="40"/>
  <path id="联合" class="cls-2" d="M445.851,1831.051a.591.591,0,0,1-.59-.591v-6.066a.589.589,0,0,1,.586-.592h.335v-1.677h-.591a.59.59,0,0,1-.59-.589v-12.024a.592.592,0,0,1,.59-.59h.591v-1.671h-.33a.592.592,0,0,1-.59-.59v-6.069a.592.592,0,0,1,.59-.591H456.76a.591.591,0,0,1,.59.585v6.075a.59.59,0,0,1-.589.59h-.334v1.671h.591a.591.591,0,0,1,.589.59v12.024a.59.59,0,0,1-.589.589h-.591v1.677h.33a.589.589,0,0,1,.589.589v6.07a.591.591,0,0,1-.588.591Zm.589-1.18h9.728v-4.888H446.44Zm.922-6.07h7.888v-1.677h-7.888Zm-1.181-2.856H456.43V1810.1h-1.552v-1.181h.371v-1.67h-.4v-1.178h1.321v-4.892H446.44v4.892h1.322v1.178h-.4v1.671h.368v1.182h-1.55Zm13.96,10.1a.592.592,0,0,1-.59-.59v-6.067a.59.59,0,0,1,.59-.589h.329v-1.679h-.59a.59.59,0,0,1-.589-.589v-12.025a.59.59,0,0,1,.589-.589h.59v-1.671h-.329a.591.591,0,0,1-.59-.59v-6.07a.592.592,0,0,1,.59-.59h10.907a.591.591,0,0,1,.589.59v6.07a.59.59,0,0,1-.589.59h-.33v1.671h.59a.592.592,0,0,1,.59.589v2.606h-1.179V1810.1h-10.25v10.845h10.25v-1.94H471.9v2.525a.592.592,0,0,1-.59.589h-.59v1.679h.33a.59.59,0,0,1,.589.589v6.07a.591.591,0,0,1-.589.59Zm.589-1.18h9.728v-4.888h-9.728Zm.921-6.069h7.889v-1.677H461.65Zm0-14.882h7.889v-1.669H461.65Zm8.806-2.847v-4.893h-9.726v4.893h.3c-.011,0,.008-.007.033-.007Zm8.087,18.74a.615.615,0,0,1-.257-.047l-.049-.03a.507.507,0,0,1-.144-.107l-.029-.03a.507.507,0,0,1-.031-.056.321.321,0,0,1-.059-.1.658.658,0,0,1-.028-.107.344.344,0,0,1-.015-.065l-.143-2.411a.59.59,0,0,1,1.176-.082l.059,1a12.428,12.428,0,0,0,2.578-7.6,9.744,9.744,0,0,0-2.641-7.025l-.147,1.161a.59.59,0,0,1-.583.517.394.394,0,0,1-.065,0,.591.591,0,0,1-.517-.658l.283-2.263a.568.568,0,0,1,.029-.106.492.492,0,0,1,.041-.1v0l.028-.06.029-.027a.482.482,0,0,1,.105-.105.454.454,0,0,1,.1-.056.441.441,0,0,1,.077-.032.509.509,0,0,1,.148-.025.154.154,0,0,1,.038-.005l2.569.139a.59.59,0,0,1,.572.6.579.579,0,0,1-.182.413.6.6,0,0,1-.421.164c0,.006-.026,0-.04,0l-.9-.05a10.86,10.86,0,0,1,2.661,7.529,13.463,13.463,0,0,1-2.872,8.387l1.262-.068a.591.591,0,0,1,.47.984.588.588,0,0,1-.406.194l-2.689.14Zm-3.046-8.722v-1.132h2.263v1.132Zm-2.123,0v-1.132h1.132v1.132Zm-2.122,0v-1.132h1.132v1.132Zm-20.512-4.953v-1.131h1.132v1.131Zm0-2.121v-1.132h1.132v1.132Zm0-2.122v-2.264h1.132v2.264Z" transform="translate(-443.892 -1798.069)"/>
  <path id="联合-2" data-name="联合" class="cls-3" d="M461.088,1833.965a1.665,1.665,0,0,1-1.271-.52,1.889,1.889,0,0,1-.486-1.34,2.021,2.021,0,0,1,.49-1.409,1.714,1.714,0,0,1,1.325-.544,1.619,1.619,0,0,1,1.257.528,1.938,1.938,0,0,1,.473,1.342,2.036,2.036,0,0,1-.482,1.4,1.676,1.676,0,0,1-1.235.543Zm.782-.958a1.417,1.417,0,0,0,.282-.928,1.508,1.508,0,0,0-.273-.953.9.9,0,0,0-.76-.338.927.927,0,0,0-.77.353v0a1.426,1.426,0,0,0-.293.924,1.456,1.456,0,0,0,.284.922.9.9,0,0,0,.754.351A.936.936,0,0,0,461.87,1833.007Zm-14.349.958a1.666,1.666,0,0,1-1.272-.52,1.893,1.893,0,0,1-.486-1.34,2.022,2.022,0,0,1,.491-1.409,1.712,1.712,0,0,1,1.325-.544,1.618,1.618,0,0,1,1.257.528,1.941,1.941,0,0,1,.473,1.342,2.035,2.035,0,0,1-.482,1.4,1.677,1.677,0,0,1-1.236.543Zm.781-.958a1.413,1.413,0,0,0,.283-.928,1.509,1.509,0,0,0-.274-.953.9.9,0,0,0-.76-.338.929.929,0,0,0-.771.353v0a1.425,1.425,0,0,0-.292.924,1.449,1.449,0,0,0,.283.922.9.9,0,0,0,.754.351A.936.936,0,0,0,448.3,1833.007Zm15.087.832v-3.552a.072.072,0,0,1,.071-.073h1.89a.074.074,0,0,1,.073.073v.467a.074.074,0,0,1-.072.074h-1.266v.956h1.162a.072.072,0,0,1,.073.071v.473a.072.072,0,0,1-.071.073h-1.164v1.437a.072.072,0,0,1-.071.073h-.553A.072.072,0,0,1,463.389,1833.838Zm-12.967.071H449.9a.074.074,0,0,1-.074-.072h0v-3.551a.074.074,0,0,1,.073-.073h.652a.074.074,0,0,1,.062.033l1.648,2.567.01.016v-2.543a.073.073,0,0,1,.07-.073h.535a.073.073,0,0,1,.073.073v3.551a.073.073,0,0,1-.073.073h-.614a.076.076,0,0,1-.061-.032l-1.7-2.614v2.573a.074.074,0,0,1-.073.073Zm16.121,0h-.549a.074.074,0,0,1-.073-.073v-3.551a.074.074,0,0,1,.073-.073h1.888a.072.072,0,0,1,.073.071v.469a.072.072,0,0,1-.07.074h-1.268v.956h1.162a.074.074,0,0,1,.074.073v.471a.074.074,0,0,1-.074.073h-1.162v1.437a.073.073,0,0,1-.073.073ZM446.7,1816.931a4.354,4.354,0,0,1,0-6.9v-9.565a.464.464,0,0,1,.463-.464h4.386a.465.465,0,0,1,.464.464v9.566a4.355,4.355,0,1,1-5.315,6.9Zm.929-6.664a.462.462,0,0,1-.2.382,3.425,3.425,0,1,0,3.861,0,.46.46,0,0,1-.2-.382v-9.338h-3.461Zm14.625,6.652a4.349,4.349,0,1,1,6.109-6.093h9.57a.465.465,0,0,1,.464.464v4.385a.465.465,0,0,1-.464.464h-9.57a4.355,4.355,0,0,1-6.109.781Zm.735-6.268a3.425,3.425,0,1,0,4.76,4.76.464.464,0,0,1,.383-.2h9.331v-3.458H468.13a.466.466,0,0,1-.383-.2,3.425,3.425,0,0,0-4.76-.9Zm1.929,4.922a2.093,2.093,0,0,1-2.091-2.093h0a2.091,2.091,0,1,1,2.091,2.092Zm0-3.254a1.164,1.164,0,0,0-1.162,1.162h0a1.162,1.162,0,1,0,1.164-1.163Zm-17.652,1.162a2.091,2.091,0,1,1,2.091,2.092A2.091,2.091,0,0,1,447.264,1813.479Zm.929,0a1.162,1.162,0,1,0,1.162-1.162A1.162,1.162,0,0,0,448.193,1813.479Z" transform="translate(-441.942 -1796.025)"/>
</svg>
