<svg id="icon-angle-light-32" xmlns="http://www.w3.org/2000/svg" width="32" height="32" viewBox="0 0 32 32">
  <defs>
    <style>
      .cls-1 {
        fill: none;
      }

      .cls-2 {
        fill: #fff;
        stroke: rgba(0,0,0,0);
        stroke-miterlimit: 10;
      }

      .cls-3 {
        fill: #7afff7;
      }
    </style>
  </defs>
  <rect id="mask" class="cls-1" width="32" height="32"/>
  <path id="联合" class="cls-2" d="M251,1722.143h1.129a12.441,12.441,0,0,0,11.9,11.821v1.125A13.567,13.567,0,0,1,251,1722.143Zm14.226,11.811a12.439,12.439,0,0,0,11.73-11.811h1.125a13.567,13.567,0,0,1-12.855,12.938Zm-8.7-11.811h1.125a6.93,6.93,0,0,0,6.379,6.3v1.126A8.049,8.049,0,0,1,256.522,1722.143Zm8.7,6.289a6.93,6.93,0,0,0,6.207-6.289h1.129a8.053,8.053,0,0,1-7.337,7.417Zm6.207-7.489a6.929,6.929,0,0,0-6.207-6.289v-1.127a8.054,8.054,0,0,1,7.336,7.416Zm-14.9,0a8.056,8.056,0,0,1,2.694-5.422h-2.173a.563.563,0,1,1,0-1.127h3.928a.56.56,0,0,1,.56.56v3.828a.564.564,0,0,1-1.128,0v-2.8a6.946,6.946,0,0,0-2.756,4.96Zm-5.53,0A13.565,13.565,0,0,1,264.026,1708v1.129a12.439,12.439,0,0,0-11.9,11.814Zm19.454-7.116a.563.563,0,0,1,0-1.126h2.822a12.444,12.444,0,0,0-8.049-3.566v-1.125a13.576,13.576,0,0,1,8.6,3.658v-2.344a.564.564,0,0,1,1.128,0v3.943a.561.561,0,0,1-.561.56Z" transform="translate(-248.626 -1705.543)"/>
  <path id="路径" class="cls-3" d="M30.64,15.4H16.6V1.2a.6.6,0,0,0-1.2,0V15.4H1.2a.6.6,0,0,0,0,1.2H15.4V30.64a.6.6,0,0,0,1.2,0V16.6H30.64a.6.6,0,0,0,0-1.2"/>
</svg>
