<svg id="icon_title_-_fail" data-name="icon title - fail" xmlns="http://www.w3.org/2000/svg" width="88" height="88" viewBox="0 0 88 88">
  <defs>
    <style>
      .cls-1 {
        fill: none;
      }

      .cls-2, .cls-3 {
        fill: red;
      }

      .cls-2 {
        opacity: 0.15;
      }
    </style>
  </defs>
  <rect id="mask" class="cls-1" width="87.999" height="88"/>
  <path id="round" class="cls-2" d="M220.911,0a44,44,0,1,1-44,44,44,44,0,0,1,44-44" transform="translate(-176.911)"/>
  <path id="路径" class="cls-3" d="M223.03,44.006,236.958,28.7a1.75,1.75,0,1,0-2.588-2.355L220.664,41.406,206.958,26.345A1.75,1.75,0,1,0,204.37,28.7L218.3,44.006l-13.927,15.3a1.75,1.75,0,0,0,2.589,2.356l13.7-15.059,13.7,15.059a1.75,1.75,0,0,0,2.589-2.356Z" transform="translate(-176.911)"/>
</svg>
