<svg id="icon_-_flag_-_zh" data-name="icon - flag - zh" xmlns="http://www.w3.org/2000/svg" width="32" height="32" viewBox="0 0 32 32">
  <defs>
    <style>
      .cls-1 {
        fill: #d80027;
      }

      .cls-2 {
        fill: #0052b4;
      }

      .cls-3 {
        fill: #fff;
      }
    </style>
  </defs>
  <rect id="矩形" class="cls-1" width="32" height="32" rx="8"/>
  <path id="矩形-2" data-name="矩形" class="cls-2" d="M8,0h8a0,0,0,0,1,0,0V16a0,0,0,0,1,0,0H0a0,0,0,0,1,0,0V8A8,8,0,0,1,8,0Z"/>
  <path id="联合" class="cls-3" d="M4.428,7.769l0-.009,0,.009L2.961,9.215,2.734,7.156.77,7.425l.937-1.739L0,4.793l1.8-.942h.009L1.8,3.845l-.9-1.884,1.949.374L3.184.293,4.572,1.817l0,.009,0-.009L6.039.37l.227,2.058L8.23,2.161,7.293,3.9,9,4.792l-1.8.942H7.191L7.2,5.74l.9,1.885L6.145,7.25,5.816,9.293ZM2.736,7.108,1.85,5.734Z" transform="translate(3.5 3.208)"/>
  <circle id="椭圆" class="cls-2" cx="3" cy="3" r="3" transform="translate(5 5)"/>
  <circle id="椭圆-2" data-name="椭圆" class="cls-3" cx="2" cy="2" r="2" transform="translate(6 6)"/>
</svg>
