<svg id="icon_-_Device_Connect" data-name="icon - Device Connect" xmlns="http://www.w3.org/2000/svg" width="145" height="145" viewBox="0 0 145 145">
  <defs>
    <style>
      .cls-1 {
        fill: none;
        opacity: 0.5;
      }

      .cls-2 {
        fill: #fff;
      }

      .cls-3 {
        fill: rgba(3,38,59,0.35);
      }

      .cls-4, .cls-5, .cls-6 {
        fill: #00ada2;
      }

      .cls-4 {
        opacity: 0.2;
      }

      .cls-6, .cls-7 {
        stroke: rgba(0,0,0,0);
        stroke-miterlimit: 10;
      }

      .cls-7 {
        fill: #03263b;
      }
    </style>
  </defs>
  <rect id="mask" class="cls-1" width="145" height="145"/>
  <path id="路径" class="cls-2" d="M454.637,69.618h-9.848l4.425-29.239h0V33.871a2.229,2.229,0,0,0-2.228-2.228H345.517a2.229,2.229,0,0,0-2.229,2.228V40.38l6.861,63.629v5.9a2.834,2.834,0,0,0,2.834,2.834h50.648l.047-8.735C413.963,79,441.8,89.347,441.8,89.347L443.4,78.829h11.241a1.987,1.987,0,0,0,1.986-1.987V71.606a1.987,1.987,0,0,0-1.986-1.988" transform="translate(-330)"/>
  <path id="路径-2" data-name="路径" class="cls-2" d="M352.873,18.578a5.824,5.824,0,1,0-5.824-5.824,5.823,5.823,0,0,0,5.824,5.824" transform="translate(-330)"/>
  <path id="路径-3" data-name="路径" class="cls-3" d="M342.749,122.43a7.281,7.281,0,1,1-7.281,7.281,7.281,7.281,0,0,1,7.281-7.281" transform="translate(-330)"/>
  <path id="路径-4" data-name="路径" class="cls-4" d="M462.567,26.326a5.824,5.824,0,1,1-5.824,5.824,5.824,5.824,0,0,1,5.824-5.824" transform="translate(-330)"/>
  <path id="路径-5" data-name="路径" class="cls-5" d="M450.8,139.466a1.714,1.714,0,0,1-.747-1.1,1.746,1.746,0,0,1,.259-1.317c.021-.033.045-.067.092-.128a39.943,39.943,0,0,0,5.07-28.912,30.9,30.9,0,0,0-4.926-11.38,1.908,1.908,0,0,1-.01-2.7l0,0a1.442,1.442,0,0,1,.988-.4h.06A1.426,1.426,0,0,1,452.6,94a1.529,1.529,0,0,1,.191.253,34.015,34.015,0,0,1,5.574,12.624,39.664,39.664,0,0,1,.685,14.045,48.817,48.817,0,0,1-6.079,17.756,1.966,1.966,0,0,1-1.653.995ZM422.846,135a1.636,1.636,0,0,1-1.625-1.636V121.3a.328.328,0,0,0-.2-.3.341.341,0,0,0-.126-.025.318.318,0,0,0-.228.1l-7.6,7.6a1.623,1.623,0,1,1-2.286-2.3l9.548-9.548a.327.327,0,0,0,0-.46l-9.549-9.547a1.623,1.623,0,0,1,2.291-2.3l7.6,7.6a.334.334,0,0,0,.354.073.328.328,0,0,0,.2-.3V99.825a1.63,1.63,0,0,1,1.628-1.624h.007a1.606,1.606,0,0,1,1.152.485l8.371,8.375a1.648,1.648,0,0,1,0,2.312l-7.022,6.992a.321.321,0,0,0-.1.229.317.317,0,0,0,.1.228l7.022,6.989a1.633,1.633,0,0,1,.009,2.309l-.009.009-8.371,8.4a1.609,1.609,0,0,1-1.135.478.065.065,0,0,0-.031,0m1.829-14a.325.325,0,0,0-.2.3v7.336a.322.322,0,0,0,.2.3.311.311,0,0,0,.351-.071L428.7,125.2a.335.335,0,0,0,.1-.231.321.321,0,0,0-.093-.229l-3.672-3.672a.34.34,0,0,0-.233-.1.313.313,0,0,0-.131.029Zm0-16.753a.32.32,0,0,0-.2.3v7.345a.325.325,0,0,0,.2.3.308.308,0,0,0,.123.025.338.338,0,0,0,.232-.1l3.674-3.671a.333.333,0,0,0,0-.46l-3.672-3.671a.327.327,0,0,0-.232-.1.3.3,0,0,0-.125.03ZM446.1,133.833h-.013a1.922,1.922,0,0,1-.894-.223c-1.008-.539-.712-1.615-.284-2.422,8.121-15.444.5-26.627.16-27.112-.62-.831-1.01-2.331-.111-3.01a1.563,1.563,0,0,1,1.056-.408h.076a1.567,1.567,0,0,1,1.092.515,1.727,1.727,0,0,1,.161.211,24.862,24.862,0,0,1,3.724,8.96,32.551,32.551,0,0,1-3.553,22.37c-.418.794-.827,1.117-1.411,1.117Zm-6.4-7.765a1.241,1.241,0,0,1-.325-1.6,15.954,15.954,0,0,0,.025-15.183,1.33,1.33,0,0,1,.372-1.694,1.4,1.4,0,0,1,2.174.4l.007.013a14.328,14.328,0,0,1,.731,1.448,18.638,18.638,0,0,1,1.6,7.172,17.655,17.655,0,0,1-2.514,9.015l-.058.092a1.458,1.458,0,0,1-1.182.6,1.427,1.427,0,0,1-.83-.262Zm-4.9-6.623-2.642-2.428a.474.474,0,0,1-.118-.355.483.483,0,0,1,.176-.335l2.584-2.382.007,0a.566.566,0,0,1,.24-.143.634.634,0,0,1,.488.043.625.625,0,0,1,.311.36,9.182,9.182,0,0,1,.325,2.468,11.13,11.13,0,0,1-.308,2.519.656.656,0,0,1-.594.437.688.688,0,0,1-.469-.178Z" transform="translate(-330)"/>
  <path id="联合" class="cls-6" d="M525.655,1245.638v0h0a2.912,2.912,0,1,1,2.912,2.913A2.911,2.911,0,0,1,525.655,1245.635Zm-39.073-1.067a1.5,1.5,0,0,1-1.5-1.5v-3.908a1.5,1.5,0,0,1,1.5-1.5H497.4a1.5,1.5,0,0,1,1.5,1.5v3.908a1.5,1.5,0,0,1-1.5,1.5Zm-69.081,0a1.5,1.5,0,0,1-1.5-1.5v-3.908a1.5,1.5,0,0,1,1.5-1.5h10.816a1.5,1.5,0,0,1,1.5,1.5v3.908a1.5,1.5,0,0,1-1.5,1.5Zm98.9-24.382a7.324,7.324,0,1,1,7.323,7.323A7.333,7.333,0,0,1,516.4,1220.189Zm3,0a4.324,4.324,0,1,0,4.324-4.324A4.329,4.329,0,0,0,519.4,1220.189Zm-93.641-11.907v0a2.912,2.912,0,1,1,2.912,2.912A2.912,2.912,0,0,1,425.758,1208.28Zm65.525-3.642a3.64,3.64,0,1,1,3.64,3.64A3.64,3.64,0,0,1,491.283,1204.64Z" transform="translate(-391.156 -1188.039)"/>
  <path id="联合-2" data-name="联合" class="cls-7" d="M416,1325.281a8.781,8.781,0,1,1,8.781,8.781A8.791,8.791,0,0,1,416,1325.281Zm3,0a5.781,5.781,0,1,0,5.781-5.781A5.787,5.787,0,0,0,419,1325.281Zm27.221-7.956v0a2.912,2.912,0,1,1,2.912,2.912A2.912,2.912,0,0,1,446.222,1317.323Zm-18.641-109a7.324,7.324,0,1,1,7.324,7.324A7.332,7.332,0,0,1,427.581,1208.324Zm3,0a4.324,4.324,0,1,0,4.324-4.324A4.33,4.33,0,0,0,430.581,1208.324Zm104.266-3.081v0a2.912,2.912,0,1,1,2.912,2.911A2.913,2.913,0,0,1,534.847,1205.241Z" transform="translate(-412.032 -1195.57)"/>
  <path id="联合-3" data-name="联合" class="cls-7" d="M427.238,1285.1a4.339,4.339,0,0,1-4.334-4.334v-6.251l-6.817-62.793a1.5,1.5,0,0,1-.087-.484v-6.509a3.735,3.735,0,0,1,3.73-3.729H521.193a3.733,3.733,0,0,1,3.729,3.729v6.156a1.5,1.5,0,0,1,.032.57l-4.049,27.521h7.988a3.486,3.486,0,0,1,3.486,3.489v5.234a3.492,3.492,0,0,1-3.485,3.487h-9.786l-1.385,9.417a1.5,1.5,0,1,1-2.968-.436l6.978-47.431H419.215l6.583,60.628h52.136a1.5,1.5,0,0,1,0,3H425.9v4.4a1.335,1.335,0,0,0,1.334,1.334h50.648a1.5,1.5,0,1,1,0,3Zm92.311-36.914h9.343a.487.487,0,0,0,.486-.487v-5.236a.487.487,0,0,0-.486-.488h-8.43ZM419,1204.729v5.007h102.92v-5.008a.729.729,0,0,0-.728-.728H419.729A.729.729,0,0,0,419,1204.729Zm39.945,49.641a1.5,1.5,0,1,1,0-3h23.027a1.5,1.5,0,1,1,0,3Zm0-6.907a1.5,1.5,0,1,1,0-3h23.027a1.5,1.5,0,1,1,0,3Zm0-6.908a1.5,1.5,0,1,1,0-3h23.027a1.5,1.5,0,1,1,0,3ZM430.6,1228.889a3,3,0,0,1-3-3v-3.908a3,3,0,0,1,3-3h10.816a3,3,0,0,1,3,3v3.908a3,3,0,0,1-3,3Zm0-3h10.816v-3.908H430.6Zm69.081,2.965a3,3,0,0,1-3-3v-3.908a3,3,0,0,1,3-3H510.5a3,3,0,0,1,3,3v3.908a3,3,0,0,1-3,3Zm0-3H510.5v-3.908H499.678Z" transform="translate(-404.255 -1170.857)"/>
</svg>
