<svg id="icon-ble" xmlns="http://www.w3.org/2000/svg" width="56" height="56" viewBox="0 0 56 56">
  <defs>
    <style>
      .cls-1 {
        fill: none;
      }

      .cls-2 {
        fill: #00ada2;
        stroke: rgba(0,0,0,0);
        stroke-miterlimit: 10;
      }
    </style>
  </defs>
  <rect id="mask" class="cls-1" width="56" height="56"/>
  <path id="联合" class="cls-2" d="M483.095,1754.875a1.25,1.25,0,0,1-.442-1.711c14.4-24.433.239-42.957.094-43.141a1.25,1.25,0,1,1,1.966-1.545c.155.2,15.351,20.067.094,45.955a1.249,1.249,0,0,1-1.712.442Zm-25.821-4.46a1.249,1.249,0,0,1-.794-1.165v-14.829l-9.344,9.38a1.25,1.25,0,1,1-1.772-1.764l10.2-10.241-10.207-10.371a1.25,1.25,0,0,1,1.782-1.754l9.339,9.49v-13.691a1.25,1.25,0,0,1,2.114-.9l8.124,7.77a1.25,1.25,0,0,1,.021,1.785l-7.655,7.685,7.662,7.782a1.253,1.253,0,0,1,.027,1.726l-8.124,8.785a1.255,1.255,0,0,1-1.374.315Zm1.706-4.357,5.146-5.565-5.146-5.23Zm0-17.689,5.088-5.107-5.088-4.866Zm18.075,21.067a1.252,1.252,0,0,1-.377-1.728c10.367-16.146.493-29.142.068-29.687a1.25,1.25,0,0,1,1.966-1.543c.116.147,11.418,14.9.069,32.582a1.253,1.253,0,0,1-1.727.376Zm-5.037-7.88a1.248,1.248,0,0,1-.483-1.7c4.5-8.07.056-15.912.011-15.99a1.25,1.25,0,1,1,2.162-1.254c.215.369,5.193,9.163.011,18.461a1.251,1.251,0,0,1-1.093.642A1.228,1.228,0,0,1,472.018,1741.556Zm-3.825-6.775-2.719-2.5a.5.5,0,0,1-.119-.366.509.509,0,0,1,.182-.337l2.665-2.454a.607.607,0,0,1,.248-.147.63.63,0,0,1,.5.043l0,0a.637.637,0,0,1,.319.371,9.495,9.495,0,0,1,.337,2.53,11.405,11.405,0,0,1-.315,2.588.675.675,0,0,1-.613.452h0A.71.71,0,0,1,468.193,1734.781Z" transform="translate(-441.23 -1703.75)"/>
</svg>
