<svg id="icon_-_Device_Connect_No" data-name="icon - Device Connect No" xmlns="http://www.w3.org/2000/svg" width="145" height="145" viewBox="0 0 145 145">
  <defs>
    <style>
      .cls-1 {
        fill: none;
        opacity: 0.5;
      }

      .cls-2 {
        fill: #fff;
      }

      .cls-3 {
        fill: rgba(3,38,59,0.35);
      }

      .cls-4, .cls-5, .cls-6 {
        fill: #00ada2;
      }

      .cls-4 {
        opacity: 0.2;
      }

      .cls-6, .cls-7 {
        stroke: rgba(0,0,0,0);
        stroke-miterlimit: 10;
      }

      .cls-7 {
        fill: #03263b;
      }
    </style>
  </defs>
  <rect id="mask" class="cls-1" width="145" height="145"/>
  <path id="路径" class="cls-2" d="M619.637,69.618h-9.848l4.425-29.239h-.048V33.871a2.229,2.229,0,0,0-2.228-2.228H510.474a2.229,2.229,0,0,0-2.229,2.228V40.38h.043l6.861,63.195v6.334a2.834,2.834,0,0,0,2.834,2.834h50.648v-8.734h.047C578.963,79,606.8,89.347,606.8,89.347L608.4,78.829h11.241a1.987,1.987,0,0,0,1.986-1.987V71.606a1.987,1.987,0,0,0-1.986-1.988" transform="translate(-495)"/>
  <path id="路径-2" data-name="路径" class="cls-2" d="M517.873,18.578a5.824,5.824,0,1,0-5.824-5.824,5.823,5.823,0,0,0,5.824,5.824" transform="translate(-495)"/>
  <path id="路径-3" data-name="路径" class="cls-3" d="M507.749,122.43a7.281,7.281,0,1,1-7.281,7.281,7.281,7.281,0,0,1,7.281-7.281" transform="translate(-495)"/>
  <path id="路径-4" data-name="路径" class="cls-4" d="M627.567,26.326a5.824,5.824,0,1,1-5.824,5.824,5.824,5.824,0,0,1,5.824-5.824" transform="translate(-495)"/>
  <path id="路径-5" data-name="路径" class="cls-5" d="M615.8,139.466a1.714,1.714,0,0,1-.747-1.1,1.746,1.746,0,0,1,.259-1.317c.021-.033.045-.067.092-.128a39.943,39.943,0,0,0,5.07-28.912,30.9,30.9,0,0,0-4.926-11.38,1.908,1.908,0,0,1-.01-2.7l0,0a1.442,1.442,0,0,1,.988-.4h.06a1.426,1.426,0,0,1,1.008.468,1.525,1.525,0,0,1,.191.253,34.015,34.015,0,0,1,5.574,12.624,39.664,39.664,0,0,1,.685,14.045,48.836,48.836,0,0,1-6.079,17.756,1.966,1.966,0,0,1-1.653.995ZM587.846,135a1.636,1.636,0,0,1-1.625-1.636V121.3a.328.328,0,0,0-.2-.3.341.341,0,0,0-.126-.025.318.318,0,0,0-.228.1l-7.6,7.6a1.623,1.623,0,1,1-2.286-2.3l9.548-9.548a.327.327,0,0,0,0-.46l-9.549-9.547a1.623,1.623,0,1,1,2.291-2.3l7.6,7.6a.334.334,0,0,0,.354.073.327.327,0,0,0,.2-.3V99.825a1.63,1.63,0,0,1,1.628-1.624h.007a1.607,1.607,0,0,1,1.152.485l8.371,8.375a1.649,1.649,0,0,1,0,2.312l-7.022,6.992a.32.32,0,0,0-.1.229.316.316,0,0,0,.1.228l7.022,6.989a1.633,1.633,0,0,1,.009,2.309l-.009.009-8.371,8.4a1.609,1.609,0,0,1-1.135.478.067.067,0,0,0-.031,0m1.829-14a.325.325,0,0,0-.2.3v7.336a.322.322,0,0,0,.2.3.311.311,0,0,0,.351-.071L593.7,125.2a.335.335,0,0,0,.1-.231.321.321,0,0,0-.093-.229l-3.672-3.672a.34.34,0,0,0-.233-.1.313.313,0,0,0-.131.029Zm0-16.753a.32.32,0,0,0-.2.3v7.345a.325.325,0,0,0,.2.3.308.308,0,0,0,.123.025.338.338,0,0,0,.232-.1l3.674-3.671a.333.333,0,0,0,0-.46l-3.672-3.671a.329.329,0,0,0-.232-.1.3.3,0,0,0-.125.03ZM611.1,133.833h-.013a1.919,1.919,0,0,1-.894-.223c-1.008-.539-.712-1.615-.284-2.422,8.121-15.444.5-26.627.16-27.112-.62-.831-1.01-2.331-.111-3.01a1.563,1.563,0,0,1,1.056-.408h.076a1.567,1.567,0,0,1,1.092.515,1.724,1.724,0,0,1,.161.211,24.862,24.862,0,0,1,3.724,8.96,32.551,32.551,0,0,1-3.553,22.37c-.418.794-.827,1.117-1.411,1.117Zm-6.4-7.765a1.241,1.241,0,0,1-.325-1.6,15.955,15.955,0,0,0,.025-15.183,1.33,1.33,0,0,1,.372-1.694,1.4,1.4,0,0,1,2.174.4l.007.013a14.315,14.315,0,0,1,.731,1.448,18.637,18.637,0,0,1,1.6,7.172,17.655,17.655,0,0,1-2.514,9.015l-.058.092a1.458,1.458,0,0,1-1.182.6,1.427,1.427,0,0,1-.83-.262Zm-4.9-6.623-2.642-2.428a.475.475,0,0,1-.118-.355.483.483,0,0,1,.176-.335l2.584-2.382.007,0a.567.567,0,0,1,.24-.143.634.634,0,0,1,.488.043.625.625,0,0,1,.311.36,9.18,9.18,0,0,1,.325,2.468,11.13,11.13,0,0,1-.308,2.519.656.656,0,0,1-.594.437.688.688,0,0,1-.469-.178Z" transform="translate(-495)"/>
  <path id="联合" class="cls-6" d="M505.9,1245.638v0h0a2.912,2.912,0,1,1,2.911,2.913A2.911,2.911,0,0,1,505.9,1245.635Zm-9.257-25.448a7.324,7.324,0,1,1,7.324,7.323A7.333,7.333,0,0,1,496.641,1220.189Zm3,0a4.324,4.324,0,1,0,4.324-4.324A4.328,4.328,0,0,0,499.641,1220.189ZM406,1208.282v0a2.912,2.912,0,1,1,2.912,2.912A2.912,2.912,0,0,1,406,1208.28Zm65.525-3.642a3.64,3.64,0,1,1,3.64,3.64A3.64,3.64,0,0,1,471.525,1204.64Z" transform="translate(-371.398 -1188.039)"/>
  <path id="联合-2" data-name="联合" class="cls-6" d="M476.581,1207.908a1.5,1.5,0,0,1-1.5-1.5V1202.5a1.5,1.5,0,0,1,1.5-1.5H487.4a1.5,1.5,0,0,1,1.5,1.5v3.908a1.5,1.5,0,0,1-1.5,1.5Zm-69.08,0a1.5,1.5,0,0,1-1.5-1.5V1202.5a1.5,1.5,0,0,1,1.5-1.5h10.816a1.5,1.5,0,0,1,1.5,1.5v3.908a1.5,1.5,0,0,1-1.5,1.5Z" transform="translate(-381.156 -1151.376)"/>
  <path id="联合-3" data-name="联合" class="cls-7" d="M406,1325.281a8.781,8.781,0,1,1,8.781,8.781A8.791,8.791,0,0,1,406,1325.281Zm3,0a5.781,5.781,0,1,0,5.782-5.781A5.788,5.788,0,0,0,409,1325.281Zm27.222-7.956v0a2.912,2.912,0,1,1,2.912,2.912A2.912,2.912,0,0,1,436.222,1317.323Zm-18.641-109a7.324,7.324,0,1,1,7.324,7.324A7.332,7.332,0,0,1,417.581,1208.324Zm3,0a4.324,4.324,0,1,0,4.324-4.324A4.33,4.33,0,0,0,420.581,1208.324Zm104.266-3.081v0a2.912,2.912,0,1,1,2.912,2.911A2.913,2.913,0,0,1,524.847,1205.241Z" transform="translate(-402.032 -1195.57)"/>
  <path id="联合-4" data-name="联合" class="cls-7" d="M467.4,1285.1a1.5,1.5,0,1,1,0-3h.482a1.5,1.5,0,1,1,0,3Zm-6,0a1.5,1.5,0,1,1,0-3h1a1.5,1.5,0,0,1,0,3Zm-6,0a1.5,1.5,0,0,1,0-3h1a1.5,1.5,0,1,1,0,3Zm-6,0a1.5,1.5,0,1,1,0-3h1a1.5,1.5,0,0,1,0,3Zm-6,0a1.5,1.5,0,1,1,0-3h1a1.5,1.5,0,0,1,0,3Zm-6,0a1.5,1.5,0,0,1,0-3h1a1.5,1.5,0,1,1,0,3Zm-6,0a1.5,1.5,0,1,1,0-3h1a1.5,1.5,0,0,1,0,3Zm-6,0a1.5,1.5,0,1,1,0-3h1a1.5,1.5,0,0,1,0,3Zm-6,0a1.5,1.5,0,0,1,0-3h1a1.5,1.5,0,1,1,0,3Zm-5.811-1.993A4.324,4.324,0,0,1,413,1281.7a1.5,1.5,0,0,1,2.93-.647,1.319,1.319,0,0,0,.179.43,1.5,1.5,0,1,1-2.523,1.623Zm-.688-6.725-.107-2.866a1.5,1.5,0,1,1,2.983-.323l.124,3.189a1.5,1.5,0,1,1-3,0Zm53.983-.017a1.5,1.5,0,0,1,0-3h1.048a1.5,1.5,0,0,1,0,3h-1.048Zm-6,0a1.5,1.5,0,1,1,0-3h1.047a1.5,1.5,0,1,1,0,3h-1.047Zm-6,0a1.5,1.5,0,1,1,0-3h1.047a1.5,1.5,0,1,1,0,3h-1.047Zm-6,0a1.5,1.5,0,0,1,0-3h1.048a1.5,1.5,0,0,1,0,3h-1.048Zm-6,0a1.5,1.5,0,1,1,0-3h1.047a1.5,1.5,0,1,1,0,3h-1.047Zm-6,0a1.5,1.5,0,1,1,0-3h1.047a1.5,1.5,0,1,1,0,3h-1.047Zm-6,0a1.5,1.5,0,0,1,0-3h1.048a1.5,1.5,0,0,1,0,3h-1.048Zm-6,0a1.5,1.5,0,1,1,0-3h1.047a1.5,1.5,0,1,1,0,3h-1.047Zm-6,0a1.5,1.5,0,1,1,0-3h1.047a1.5,1.5,0,1,1,0,3h-1.047Zm-6.631-7.817-.107-.995a1.5,1.5,0,1,1,2.983-.324l.108.995a1.5,1.5,0,0,1-1.329,1.652,1.428,1.428,0,0,1-.164.009A1.5,1.5,0,0,1,412.255,1268.548Zm-.647-5.965-.107-.994a1.5,1.5,0,1,1,2.983-.325l.108.995a1.5,1.5,0,0,1-1.329,1.653c-.055.005-.11.009-.164.009A1.5,1.5,0,0,1,411.608,1262.583Zm94.716-2.781a1.5,1.5,0,0,1-1.265-1.7l.146-.989a1.5,1.5,0,1,1,2.968.436l-.147.989a1.5,1.5,0,0,1-1.481,1.282A1.515,1.515,0,0,1,506.324,1259.8Zm-95.363-3.185-.108-1a1.5,1.5,0,0,1,2.983-.322l.107.995a1.5,1.5,0,0,1-1.329,1.653c-.055,0-.11.008-.164.008A1.5,1.5,0,0,1,410.961,1256.617Zm96.236-1.751a1.5,1.5,0,0,1-1.265-1.7l.146-.99c.12-.82,1.178-3.316,3.293-2.988h1a1.5,1.5,0,0,1,0,3h-1a1.49,1.49,0,0,1-.337-.042,1.468,1.468,0,0,1,.011.466l-.145.989a1.5,1.5,0,0,1-1.481,1.282A1.4,1.4,0,0,1,507.2,1254.865Zm-36.252-.494a1.5,1.5,0,0,1,0-3h1a1.5,1.5,0,1,1,0,3Zm-5.5,0a1.5,1.5,0,0,1,0-3h1a1.5,1.5,0,1,1,0,3Zm-5.5,0a1.5,1.5,0,1,1,0-3h1a1.5,1.5,0,1,1,0,3Zm-5.5,0a1.5,1.5,0,1,1,0-3h1a1.5,1.5,0,1,1,0,3Zm-5.5,0a1.5,1.5,0,1,1,0-3h1a1.5,1.5,0,1,1,0,3Zm-38.632-3.72-.108-.994a1.5,1.5,0,0,1,2.984-.324l.107.994a1.5,1.5,0,0,1-1.329,1.653,1.456,1.456,0,0,1-.164.009A1.5,1.5,0,0,1,410.314,1250.652Zm104.056.535a1.5,1.5,0,0,1,0-3h1a1.5,1.5,0,1,1,0,3Zm3.538-1.2a1.5,1.5,0,0,1,1.1-1.813.486.486,0,0,0,.21-.114,1.5,1.5,0,1,1,2.033,2.206,3.478,3.478,0,0,1-1.532.822,1.435,1.435,0,0,1-.356.044A1.5,1.5,0,0,1,517.908,1249.985Zm-9.838-2.055a1.5,1.5,0,0,1-1.265-1.7l.146-.989a1.5,1.5,0,0,1,2.969.436l-.147.989a1.5,1.5,0,0,1-1.482,1.282A1.532,1.532,0,0,1,508.07,1247.93Zm-37.125-.466a1.5,1.5,0,0,1,0-3h1a1.5,1.5,0,1,1,0,3Zm-5.5,0a1.5,1.5,0,0,1,0-3h1a1.5,1.5,0,0,1,0,3Zm-5.5,0a1.5,1.5,0,1,1,0-3h1a1.5,1.5,0,1,1,0,3Zm-5.5,0a1.5,1.5,0,0,1,0-3h1a1.5,1.5,0,1,1,0,3Zm-5.5,0a1.5,1.5,0,1,1,0-3h1a1.5,1.5,0,1,1,0,3Zm70.433-2.122v-1a1.5,1.5,0,1,1,3,0v1a1.5,1.5,0,1,1-3,0Zm-109.713-.653-.108-.995a1.5,1.5,0,0,1,2.983-.324l.107.995a1.5,1.5,0,0,1-1.329,1.652,1.428,1.428,0,0,1-.164.009A1.5,1.5,0,0,1,409.666,1244.688Zm109.46-2.653a.467.467,0,0,0-.234-.06,1.5,1.5,0,0,1,0-3h0a3.5,3.5,0,0,1,1.682.435,1.5,1.5,0,1,1-1.452,2.625Zm-5.233-.06a1.5,1.5,0,0,1,0-3h1a1.5,1.5,0,1,1,0,3Zm-5.288-.077a1.5,1.5,0,0,1-.926-1.607l.146-.989a1.893,1.893,0,1,1,2.069,2.673S508.642,1241.92,508.6,1241.9Zm-37.66-1.343a1.5,1.5,0,0,1,0-3h1a1.5,1.5,0,1,1,0,3Zm-5.5,0a1.5,1.5,0,0,1,0-3h1a1.5,1.5,0,0,1,0,3Zm-5.5,0a1.5,1.5,0,1,1,0-3h1a1.5,1.5,0,1,1,0,3Zm-5.5,0a1.5,1.5,0,0,1,0-3h1a1.5,1.5,0,1,1,0,3Zm-5.5,0a1.5,1.5,0,1,1,0-3h1a1.5,1.5,0,1,1,0,3Zm-39.928-1.832-.108-.995a1.5,1.5,0,0,1,2.983-.324l.107.995a1.5,1.5,0,0,1-1.329,1.652,1.428,1.428,0,0,1-.164.009A1.5,1.5,0,0,1,409.018,1238.723Zm100.8-2.665a1.5,1.5,0,0,1-1.264-1.7l.145-.99a1.5,1.5,0,0,1,2.968.437l-.147.989a1.5,1.5,0,0,1-1.48,1.282A1.561,1.561,0,0,1,509.817,1236.058Zm-101.445-3.3-.108-.994a1.5,1.5,0,0,1,2.983-.324l.107.994a1.5,1.5,0,0,1-1.329,1.653c-.055.005-.11.009-.164.009A1.5,1.5,0,0,1,408.371,1232.758Zm102.319-2.636a1.5,1.5,0,0,1-1.265-1.7l.146-.989a1.5,1.5,0,1,1,2.968.437l-.146.988a1.5,1.5,0,0,1-1.482,1.282A1.525,1.525,0,0,1,510.691,1230.122ZM420.6,1228.89a3,3,0,0,1-3-3v-3.909a3,3,0,0,1,3-3h10.816a3,3,0,0,1,3,3v3.909a3,3,0,0,1-3,3Zm0-3h10.816v-3.909H420.6Zm69.081,2.966a3,3,0,0,1-3-3v-3.908a3,3,0,0,1,3-3H500.5a3,3,0,0,1,3,3v3.908a3,3,0,0,1-3,3Zm0-3H500.5v-3.908H489.678Zm-81.957.936-.108-.994a1.5,1.5,0,1,1,2.983-.324l.107.995a1.5,1.5,0,0,1-1.329,1.653c-.055,0-.11.008-.164.008A1.5,1.5,0,0,1,407.723,1226.792Zm103.839-2.606a1.5,1.5,0,0,1-1.265-1.7l.146-.99a1.5,1.5,0,0,1,2.968.437l-.147.989a1.5,1.5,0,0,1-1.481,1.282A1.531,1.531,0,0,1,511.563,1224.186Zm-104.486-3.359-.108-.995a1.5,1.5,0,0,1,2.983-.323l.107.994a1.5,1.5,0,0,1-1.329,1.653,1.455,1.455,0,0,1-.164.009A1.5,1.5,0,0,1,407.076,1220.828Zm105.36-2.578a1.5,1.5,0,0,1-1.265-1.7l.146-.989a1.5,1.5,0,0,1,2.968.437l-.146.989a1.5,1.5,0,0,1-1.482,1.282A1.525,1.525,0,0,1,512.437,1218.25Zm-106.009-3.388-.108-.995a1.5,1.5,0,1,1,2.983-.323l.108.995a1.5,1.5,0,0,1-1.329,1.652c-.056.005-.11.008-.164.008A1.5,1.5,0,0,1,406.427,1214.862Zm105.6-2.126a1.5,1.5,0,1,1,0-3h1.031a1.5,1.5,0,1,1,0,3h-1.031Zm-6,0a1.5,1.5,0,1,1,0-3h1.031a1.5,1.5,0,0,1,0,3h-1.031Zm-6,0a1.5,1.5,0,0,1,0-3h1.033a1.5,1.5,0,1,1,0,3h-1.033Zm-6,0a1.5,1.5,0,1,1,0-3h1.032a1.5,1.5,0,1,1,0,3h-1.032Zm-6,0a1.5,1.5,0,1,1,0-3h1.031a1.5,1.5,0,0,1,0,3h-1.031Zm-6,0a1.5,1.5,0,0,1,0-3h1.032a1.5,1.5,0,1,1,0,3h-1.032Zm-6,0a1.5,1.5,0,1,1,0-3h1.031a1.5,1.5,0,1,1,0,3h-1.031Zm-6,0a1.5,1.5,0,1,1,0-3h1.033a1.5,1.5,0,0,1,0,3h-1.033Zm-6,0a1.5,1.5,0,0,1,0-3h1.033a1.5,1.5,0,1,1,0,3h-1.033Zm-6,0a1.5,1.5,0,1,1,0-3h1.032a1.5,1.5,0,1,1,0,3h-1.032Zm-6,0a1.5,1.5,0,1,1,0-3h1.033a1.5,1.5,0,0,1,0,3h-1.033Zm-6,0a1.5,1.5,0,0,1,0-3h1.032a1.5,1.5,0,1,1,0,3h-1.032Zm-6,0a1.5,1.5,0,1,1,0-3h1.031a1.5,1.5,0,1,1,0,3h-1.031Zm-6,0a1.5,1.5,0,1,1,0-3h1.032a1.5,1.5,0,0,1,0,3h-1.032Zm-6,0a1.5,1.5,0,0,1,0-3h1.033a1.5,1.5,0,1,1,0,3h-1.033Zm-6,0a1.5,1.5,0,1,1,0-3h1.03a1.5,1.5,0,1,1,0,3h-1.03Zm-6,0a1.5,1.5,0,1,1,0-3h1.032a1.5,1.5,0,0,1,0,3h-1.032Zm-6,0a1.5,1.5,0,0,1,0-3h1.031a1.5,1.5,0,1,1,0,3h-1.031ZM406,1208.762v-1a1.5,1.5,0,1,1,3,0v1a1.5,1.5,0,0,1-3,0Zm105.921-2.13v-1a1.5,1.5,0,1,1,3,0v1a1.5,1.5,0,1,1-3,0Zm-104.764-2.668a1.5,1.5,0,0,1,.2-2.112,3.749,3.749,0,0,1,1.486-.745,1.5,1.5,0,0,1,.71,2.915.718.718,0,0,0-.286.144,1.5,1.5,0,0,1-2.111-.2Zm103.036.037a1.5,1.5,0,0,1,0-3h1a1.5,1.5,0,1,1,0,3Zm-6,0a1.5,1.5,0,0,1,0-3h1a1.5,1.5,0,0,1,0,3Zm-6,0a1.5,1.5,0,1,1,0-3h1a1.5,1.5,0,1,1,0,3Zm-6,0a1.5,1.5,0,0,1,0-3h1a1.5,1.5,0,1,1,0,3Zm-6,0a1.5,1.5,0,0,1,0-3h1a1.5,1.5,0,0,1,0,3Zm-6,0a1.5,1.5,0,1,1,0-3h1a1.5,1.5,0,1,1,0,3Zm-6,0a1.5,1.5,0,1,1,0-3h1a1.5,1.5,0,1,1,0,3Zm-6,0a1.5,1.5,0,0,1,0-3h1a1.5,1.5,0,0,1,0,3Zm-6,0a1.5,1.5,0,1,1,0-3h1a1.5,1.5,0,1,1,0,3Zm-6,0a1.5,1.5,0,1,1,0-3h1a1.5,1.5,0,1,1,0,3Zm-6,0a1.5,1.5,0,0,1,0-3h1a1.5,1.5,0,0,1,0,3Zm-6,0a1.5,1.5,0,1,1,0-3h1a1.5,1.5,0,1,1,0,3Zm-6,0a1.5,1.5,0,1,1,0-3h1a1.5,1.5,0,1,1,0,3Zm-6,0a1.5,1.5,0,0,1,0-3h1a1.5,1.5,0,0,1,0,3Zm-6,0a1.5,1.5,0,1,1,0-3h1a1.5,1.5,0,1,1,0,3Zm-6,0a1.5,1.5,0,1,1,0-3h1a1.5,1.5,0,1,1,0,3Zm-6,0a1.5,1.5,0,0,1,0-3h1a1.5,1.5,0,0,1,0,3Z" transform="translate(-394.255 -1170.857)"/>
</svg>
