<svg id="icon_title_-_confirm" data-name="icon title - confirm" xmlns="http://www.w3.org/2000/svg" width="88" height="88" viewBox="0 0 88 88">
  <defs>
    <style>
      .cls-1 {
        fill: none;
      }

      .cls-2, .cls-3 {
        fill: #00ada2;
      }

      .cls-2 {
        opacity: 0.15;
      }
    </style>
  </defs>
  <rect id="mask" class="cls-1" width="87.999" height="88"/>
  <path id="round" class="cls-2" d="M112.911,0a44,44,0,1,1-44,44,44,44,0,0,1,44-44" transform="translate(-68.911)"/>
  <path id="路径" class="cls-3" d="M106.2,61.632h-.048a1.747,1.747,0,0,1-1.308-.644L91.9,45.106A1.75,1.75,0,0,1,94.615,42.9L106.273,57.2l26.022-28.6a1.75,1.75,0,0,1,2.589,2.355l-27.39,30.1a1.749,1.749,0,0,1-1.294.572" transform="translate(-68.911)"/>
</svg>
