<svg id="icon-renew_confirm" data-name="icon-renew confirm" xmlns="http://www.w3.org/2000/svg" width="56" height="56" viewBox="0 0 56 56">
  <defs>
    <style>
      .cls-1 {
        fill: none;
      }

      .cls-2 {
        fill: #00ada2;
        stroke: rgba(0,0,0,0);
        stroke-miterlimit: 10;
      }
    </style>
  </defs>
  <rect id="mask" class="cls-1" width="56" height="56"/>
  <path id="联合" class="cls-2" d="M463.838,1750.822a21.563,21.563,0,0,1-7.219-40.522h-5.36a1.15,1.15,0,0,1,0-2.3h7.623a1.149,1.149,0,0,1,1.147,1.15v7.542a1.149,1.149,0,1,1-2.3,0v-4.378a19.264,19.264,0,0,0,6.4,36.226,1.15,1.15,0,0,1-.146,2.291A1.2,1.2,0,0,1,463.838,1750.822Zm11.66-.98a1.151,1.151,0,0,1-1.15-1.15v-7.542a1.15,1.15,0,1,1,2.3,0v4.69a19.266,19.266,0,0,0-7.818-35.548,1.149,1.149,0,1,1,.271-2.282,21.56,21.56,0,0,1,9.151,39.532h4.865a1.151,1.151,0,0,1,0,2.3Zm-11.992-12.248a1.145,1.145,0,0,1-.833-.428l-5.621-6.99a1.15,1.15,0,1,1,1.793-1.441l4.819,5.991,11.8-11.8a1.15,1.15,0,1,1,1.625,1.627l-12.7,12.7a1.15,1.15,0,0,1-.814.337Z" transform="translate(-438.903 -1701.594)"/>
</svg>
