<svg id="icon_-_update_-_focus" data-name="icon - update - focus" xmlns="http://www.w3.org/2000/svg" width="72" height="72" viewBox="0 0 72 72">
  <defs>
    <style>
      .cls-1 {
        fill: none;
      }

      .cls-2 {
        fill: #7afff7;
      }

      .cls-3 {
        fill: #03263b;
      }

      .cls-4 {
        fill: #058;
      }
    </style>
  </defs>
  <rect id="mask" class="cls-1" width="72" height="72"/>
  <path id="路径_" data-name="路径 " class="cls-2" d="M603.053,324.053a14.947,14.947,0,1,1-14.947-14.947,14.947,14.947,0,0,1,14.947,14.947" transform="translate(-552 -272)"/>
  <path id="路径" class="cls-2" d="M618,287.08c0,3.91-13.208,7.08-29.5,7.08s-29.5-3.17-29.5-7.08S572.208,280,588.5,280s29.5,3.17,29.5,7.08" transform="translate(-552 -272)"/>
  <path id="路径-2" data-name="路径" class="cls-3" d="M601.968,331.631a1,1,0,0,1-.146-1.989c10.351-1.54,14.268-4.665,15.178-5.53V287.426a1,1,0,0,1,2,0v37.086a1,1,0,0,1-.214.618c-.145.185-3.714,4.563-16.67,6.49a.922.922,0,0,1-.148.011" transform="translate(-552 -272)"/>
  <path id="路径-3" data-name="路径" class="cls-4" d="M560,301.932c3.153,1.782,11.24,5.008,28.5,5.008,24.149,0,29.993-5.944,30.23-6.2a.994.994,0,0,0-.042-1.4,1.007,1.007,0,0,0-1.41.024c-.054.056-5.746,5.573-28.778,5.573-19.641,0-26.968-4.291-28.5-5.371v-9.4c4.633,3.29,16.622,4.995,28.5,4.995,15.157,0,30.5-2.775,30.5-8.08S603.657,279,588.5,279s-30.5,2.775-30.5,8.08a2.385,2.385,0,0,0,.022.239.789.789,0,0,0-.022.107V324.84a1,1,0,0,0,.272.685c.155.165,3.93,4.04,15.732,5.95a15.932,15.932,0,0,0,28.942-13.22c12.205-1.665,15.641-5.166,15.784-5.318a1,1,0,0,0-.042-1.4,1.006,1.006,0,0,0-1.41.025c-.032.033-3.366,3.282-15.213,4.8a15.925,15.925,0,0,0-27.832-.139c-9.191-1.318-13.164-3.7-14.233-4.457ZM588.5,281c17.658,0,28.5,3.541,28.5,6.08s-10.842,6.08-28.5,6.08-28.5-3.541-28.5-6.08S570.842,281,588.5,281m-.394,29.106a13.947,13.947,0,1,1-13.946,13.947,13.963,13.963,0,0,1,13.946-13.947m-14.783,8a15.739,15.739,0,0,0-.264,11.181c-8.437-1.546-12.1-4.1-13.059-4.891V314.12c2.024,1.144,6.1,2.882,13.323,3.983" transform="translate(-552 -272)"/>
  <path id="路径-4" data-name="路径" class="cls-4" d="M596.167,324.44a1.009,1.009,0,0,0-1.112.875,7.386,7.386,0,0,1-13.065,3.8h.9a1,1,0,0,0,0-2h-3.1a1,1,0,0,0-1,1v3.134a1,1,0,0,0,2,0v-.466a9.391,9.391,0,0,0,5.817,2.989,9.673,9.673,0,0,0,1.125.067,9.4,9.4,0,0,0,9.315-8.293,1,1,0,0,0-.875-1.111" transform="translate(-552 -272)"/>
  <path id="路径-5" data-name="路径" class="cls-4" d="M596.049,317.151a1,1,0,0,0-1,1v.439a9.395,9.395,0,0,0-16.663,4.668,1,1,0,0,0,.865,1.119,1.137,1.137,0,0,0,.129.008,1,1,0,0,0,.99-.873,7.391,7.391,0,0,1,13.444-3.227h-.867a1,1,0,0,0,0,2h3.1a1,1,0,0,0,1-1v-3.134a1,1,0,0,0-1-1" transform="translate(-552 -272)"/>
</svg>
