<svg id="icon-torque-light-32" xmlns="http://www.w3.org/2000/svg" width="32" height="32" viewBox="0 0 32 32">
  <defs>
    <style>
      .cls-1 {
        fill: none;
      }

      .cls-2 {
        fill: #fff;
      }

      .cls-3 {
        fill: #7afff7;
        stroke: rgba(0,0,0,0);
        stroke-miterlimit: 10;
      }
    </style>
  </defs>
  <rect id="mask" class="cls-1" width="32" height="32"/>
  <path id="路径" class="cls-2" d="M29.242,20.592a.623.623,0,0,1-.459-.753h0a13.151,13.151,0,1,0-25.611-.195.625.625,0,0,1-1.217.281v0A14.4,14.4,0,1,1,30.4,16.727a14.518,14.518,0,0,1-.4,3.405.626.626,0,0,1-.607.478.613.613,0,0,1-.148-.019ZM11.384,9.788A8.234,8.234,0,0,1,16,8.367a8.351,8.351,0,0,1,7.909,5.659l1.513-.384a9.915,9.915,0,0,0-18.843-.009L8.1,14A8.194,8.194,0,0,1,9,12.151a.624.624,0,0,1,1.044.685A7.089,7.089,0,0,0,9.129,14.9a.622.622,0,0,1-.749.447l-2.73-.654a.621.621,0,0,1-.389-.284.631.631,0,0,1-.07-.478,11.163,11.163,0,0,1,21.617,0,.623.623,0,0,1-.451.76l-2.72.691a.613.613,0,0,1-.154.019.627.627,0,0,1-.6-.468A7.1,7.1,0,0,0,16,9.615a7,7,0,0,0-3.845,1.158Z"/>
  <path id="联合" class="cls-3" d="M508.354,1805.122a4.633,4.633,0,1,1,6.552-6.553,4.807,4.807,0,0,1,.556.671l9.6-.056a4.65,4.65,0,0,1,.494-.584,4.594,4.594,0,0,1,6.491,0,4.69,4.69,0,0,1,.7.9.521.521,0,0,1-.446.787l-3.1,0-.853,1.573.728,1.549,3.208.034a.52.52,0,0,1,.438.792,4.621,4.621,0,0,1-.671.853,4.589,4.589,0,0,1-6.491,0,4.508,4.508,0,0,1-.532-.639l-9.6.053a4.638,4.638,0,0,1-7.069.617Zm.735-5.817a3.593,3.593,0,1,0,5.608,4.411.523.523,0,0,1,.441-.25l10.168-.056h0a.52.52,0,0,1,.447.254,3.551,3.551,0,0,0,5.434.81l-2.453-.026a.522.522,0,0,1-.465-.3l-.979-2.083a.517.517,0,0,1,.013-.468l1.126-2.075a.521.521,0,0,1,.456-.274l2.333,0a3.553,3.553,0,0,0-5.436.731.521.521,0,0,1-.438.247l-10.166.058a.489.489,0,0,1-.451-.255,3.6,3.6,0,0,0-5.64-.722Zm1.114,4.618-1.073-1.754a.519.519,0,0,1-.014-.52l.983-1.807a.521.521,0,0,1,.444-.271l2.056-.052a.478.478,0,0,1,.457.248l1.074,1.755a.518.518,0,0,1,.013.518l-.984,1.807a.518.518,0,0,1-.443.272l-2.056.052h-.014A.52.52,0,0,1,510.2,1803.923Zm.667-3.32-.7,1.279.76,1.243,1.456-.038.7-1.278-.76-1.243Zm5.508,1.824a.52.52,0,0,1,0-1.04l7.862-.061h0a.52.52,0,0,1,0,1.04l-7.862.061Zm2.21-8.909a1.548,1.548,0,0,1,.187-.727l-4.489-5.757a.641.641,0,0,1,1.01-.788l4.488,5.757a1.542,1.542,0,0,1,.367-.048,1.563,1.563,0,1,1-1.563,1.563Z" transform="translate(-504.156 -1776.791)"/>
</svg>
