<svg id="icon-device_paired" data-name="icon-device paired" xmlns="http://www.w3.org/2000/svg" width="56" height="56" viewBox="0 0 56 56">
  <defs>
    <style>
      .cls-1 {
        fill: none;
      }

      .cls-2 {
        fill: #00ada2;
        stroke: rgba(0,0,0,0);
        stroke-miterlimit: 10;
      }
    </style>
  </defs>
  <rect id="mask" class="cls-1" width="56" height="56"/>
  <path id="联合" class="cls-2" d="M445,1750.88a2.18,2.18,0,1,1,2.181,2.182A2.18,2.18,0,0,1,445,1750.88Zm20.209.5c-2.363-17.611-17.77-18.517-18.424-18.547a1.15,1.15,0,0,1-1.1-1.2,1.181,1.181,0,0,1,1.2-1.1c.18.008,17.981.985,20.6,20.538a1.15,1.15,0,0,1-.987,1.292,1.107,1.107,0,0,1-.154.012A1.149,1.149,0,0,1,465.208,1751.381Zm-9.765-.1a9.175,9.175,0,0,0-8.672-8.681,1.151,1.151,0,0,1,.126-2.3,11.474,11.474,0,0,1,10.842,10.857,1.15,1.15,0,0,1-1.087,1.21l-.063,0A1.149,1.149,0,0,1,455.443,1751.286Zm19-1.433a1.151,1.151,0,0,1,0-2.3h12.113a5.8,5.8,0,0,0,5.794-5.792v-25.664a5.8,5.8,0,0,0-5.794-5.794h-33.01a5.8,5.8,0,0,0-5.794,5.794v6.628a1.15,1.15,0,0,1-2.3,0v-6.628a8.1,8.1,0,0,1,8.094-8.095h33.01a8.1,8.1,0,0,1,8.094,8.095v25.664a8.1,8.1,0,0,1-8.094,8.094Z" transform="translate(-442.016 -1702.025)"/>
</svg>
