<svg id="icon-ball" xmlns="http://www.w3.org/2000/svg" width="40" height="40" viewBox="0 0 40 40">
  <defs>
    <style>
      .cls-1 {
        fill: none;
      }

      .cls-2 {
        fill: #03263b;
      }

      .cls-2, .cls-3 {
        stroke: rgba(0,0,0,0);
        stroke-miterlimit: 10;
      }

      .cls-3 {
        fill: #00ada2;
      }
    </style>
  </defs>
  <rect id="mask" class="cls-1" width="40" height="40"/>
  <path id="联合" class="cls-2" d="M479.5,1998.011a1.927,1.927,0,0,1-.6-1.358v-.683h-5.729v-1.24H478.9v-6.285h-5.729V1987.2H478.9v-.594a1.94,1.94,0,0,1,1.938-1.9.4.4,0,0,1,.046,0,1.936,1.936,0,0,1,1.9,1.895v9.958a1.938,1.938,0,0,1-1.9,1.983h-.046A1.927,1.927,0,0,1,479.5,1998.011Zm.868-11.941a.7.7,0,0,0-.223.485.479.479,0,0,0,0,.05v9.959a.7.7,0,0,0,.671.724h.027a.7.7,0,0,0,.695-.671.463.463,0,0,0,0-.05v-9.96a.7.7,0,0,0-.186-.5.688.688,0,0,0-.485-.221h-.027A.69.69,0,0,0,480.367,1986.07ZM445.6,1998.011a1.928,1.928,0,0,1-.6-1.358q0-.043,0-.089v-9.956a1.942,1.942,0,0,1,1.937-1.9.437.437,0,0,1,.048,0,1.935,1.935,0,0,1,1.895,1.895v.592h5.728v1.243H448.88v6.287h5.728v1.24H448.88v.595a1.936,1.936,0,0,1-1.895,1.983h-.048A1.921,1.921,0,0,1,445.6,1998.011Zm.866-11.941a.7.7,0,0,0-.222.485.479.479,0,0,0,0,.05v9.959a.7.7,0,0,0,.187.5.689.689,0,0,0,.484.222h.027a.7.7,0,0,0,.695-.671.447.447,0,0,0,0-.05v-9.96a.7.7,0,0,0-.186-.5.687.687,0,0,0-.484-.221h-.027A.7.7,0,0,0,446.466,1986.07Zm20.579-3.712v-4.5h-6.334v4.5h-1.242v-5.123a.624.624,0,0,1,.622-.622h1.232v-3.735h-7.207a1.94,1.94,0,0,1,0-3.878h19.624a1.94,1.94,0,0,1,0,3.878h-7.36v3.736h1.282a.623.623,0,0,1,.622.622v5.122Zm-4.48-5.744h2.572v-3.736h-2.572Zm-9.146-5.676a.7.7,0,0,0,.7.7h19.623a.7.7,0,0,0,0-1.394H454.116A.7.7,0,0,0,453.419,1970.938Z" transform="translate(-443.891 -1965.692)"/>
  <path id="联合-2" data-name="联合" class="cls-3" d="M445,1979.724A10.726,10.726,0,0,1,455.724,1969h0A10.725,10.725,0,1,1,445,1979.724Zm1.242,0a9.483,9.483,0,1,0,9.483-9.482A9.51,9.51,0,0,0,446.242,1979.724Zm8.933,8.2v-.878a.621.621,0,0,1,1.242,0v.878a.621.621,0,0,1-1.242,0Zm-5.238-1.778a.606.606,0,0,1-.422-.167h-.03v-.031a.619.619,0,0,1,.014-.863l.622-.622a.61.61,0,0,1,.436-.18h0a.622.622,0,0,1,.437,1.058l-.621.622a.614.614,0,0,1-.439.182Zm11.262-.234h0l-.62-.622a.621.621,0,0,1,.409-1.074h.019a.615.615,0,0,1,.426.168.329.329,0,0,1,.03.031l.618.619a.621.621,0,1,1-.88.877Zm-11.732-6.191a6.26,6.26,0,1,1,6.26,6.26A6.269,6.269,0,0,1,449.466,1979.724Zm1.243,0a5.017,5.017,0,1,0,5.017-5.017A5.023,5.023,0,0,0,450.709,1979.724Zm-3.22.585h0a.62.62,0,0,1-.595-.647.623.623,0,0,1,.595-.595h.879a.619.619,0,0,1,.6.646.618.618,0,0,1-.6.6Zm15.669-.073h0a.622.622,0,0,1,0-1.242h.879a.621.621,0,0,1,0,1.242Zm-13.091-5.345-.621-.629a.621.621,0,0,1,.878-.877l.622.629a.621.621,0,1,1-.879.877Zm10.456-.056-.086-.085h.015a.63.63,0,0,1,.07-.795l.625-.621a.613.613,0,0,1,.436-.18h0a.622.622,0,0,1,.436,1.059l-.621.621a.623.623,0,0,1-.879,0Zm-5.423-2.579v-.877a.621.621,0,0,1,1.242,0v.877a.621.621,0,1,1-1.242,0Z" transform="translate(-435.69 -1953.757)"/>
</svg>
