<svg id="icon-date-bel" xmlns="http://www.w3.org/2000/svg" width="40" height="40" viewBox="0 0 40 40">
  <defs>
    <style>
      .cls-1 {
        fill: none;
      }

      .cls-2 {
        fill: #03263b;
      }

      .cls-3 {
        fill: #00ada2;
      }
    </style>
  </defs>
  <rect id="mask" class="cls-1" width="40" height="40"/>
  <path id="路径" class="cls-2" d="M336.117,497.954a3.628,3.628,0,0,1-3.625-3.626V475.162a3.628,3.628,0,0,1,3.624-3.625h3.306V470.7a1.718,1.718,0,0,1,1.716-1.716H342.6a1.717,1.717,0,0,1,1.716,1.715v.837h8.238V470.7a1.716,1.716,0,0,1,1.715-1.715h1.462a1.718,1.718,0,0,1,1.716,1.715v.837h3.306a3.628,3.628,0,0,1,3.624,3.625v7.444a.621.621,0,0,1-.621.623h0a.623.623,0,0,1-.623-.623v-3.8h-3.024a.622.622,0,0,1-.624-.62v0a.623.623,0,0,1,.623-.623h3.025v-2.4a2.381,2.381,0,0,0-2.379-2.379h-3.306v.837a1.718,1.718,0,0,1-1.716,1.716h-1.462a1.718,1.718,0,0,1-1.715-1.716v-.837h-8.238v.837a1.718,1.718,0,0,1-1.716,1.716h-1.463a1.718,1.718,0,0,1-1.716-1.716v-.837h-3.306a2.381,2.381,0,0,0-2.379,2.379v2.4h22.356a.623.623,0,0,1,0,1.247H333.742v15.518a2.381,2.381,0,0,0,2.379,2.379h16.053a.622.622,0,0,1,.623.621v0a.623.623,0,0,1-.622.624h0ZM353.8,470.7v2.921a.469.469,0,0,0,.47.47h1.462a.469.469,0,0,0,.47-.47V470.7a.469.469,0,0,0-.47-.47h-1.462a.469.469,0,0,0-.47.47m-13.132,0v2.921a.469.469,0,0,0,.47.47H342.6a.469.469,0,0,0,.47-.47V470.7a.469.469,0,0,0-.47-.47h-1.463a.469.469,0,0,0-.47.47m5.578,24.335a.621.621,0,0,1-.623-.621v-2.921a.622.622,0,0,1,.621-.623h4.38a.622.622,0,0,1,.623.621v2.921a.622.622,0,0,1-.621.623h-4.38Zm.622-1.246H350v-1.672h-3.133Zm-.622-3.86a.623.623,0,0,1-.623-.623h0v-2.92a.622.622,0,0,1,.621-.623h4.38a.622.622,0,0,1,.623.621V489.3a.623.623,0,0,1-.622.624h-4.379Zm.622-1.246H350v-1.672h-3.133Zm-9.013,1.246a.625.625,0,0,1-.623-.624v-2.92a.623.623,0,0,1,.623-.623h4.378a.623.623,0,0,1,.623.623v2.92a.625.625,0,0,1-.623.624Zm.623-1.246h3.133v-1.672h-3.133Z" transform="translate(-330 -464)"/>
  <path id="路径-2" data-name="路径" class="cls-3" d="M337.856,495.035a.623.623,0,0,1-.623-.623v-2.92a.623.623,0,0,1,.623-.623h4.377a.623.623,0,0,1,.623.623v2.919a.623.623,0,0,1-.623.623Zm.623-1.246h3.133v-1.672h-3.133Zm16.158-9.332a.625.625,0,0,1-.623-.624v-2.918a.622.622,0,0,1,.619-.623h4.379a.623.623,0,0,1,.623.623v2.918a.625.625,0,0,1-.623.624Zm.623-1.247h3.133v-1.672H355.26Zm-9.013,1.247a.623.623,0,0,1-.623-.623h0v-2.918a.622.622,0,0,1,.621-.623h4.38a.621.621,0,0,1,.623.621v2.92a.623.623,0,0,1-.622.624h-4.379Zm.622-1.247H350v-1.672h-3.133Z" transform="translate(-330 -464)"/>
  <path id="路径-3" data-name="路径" class="cls-3" d="M364.352,498.631a.63.63,0,0,1-.208-.893l.024-.032a10.792,10.792,0,0,0,1.368-7.8,8.37,8.37,0,0,0-1.324-3.059.635.635,0,0,1-.184-.455.684.684,0,0,1,.2-.484.556.556,0,0,1,.789.027.627.627,0,0,1,.068.086,9.5,9.5,0,0,1,1.549,3.513,11.049,11.049,0,0,1,.189,3.9,13.527,13.527,0,0,1-1.683,4.919.7.7,0,0,1-.585.35h-.031Zm-7.927-1.814v-3.3a.031.031,0,0,0-.018-.025.04.04,0,0,0-.03.006l-2.08,2.08a.516.516,0,0,1-.715,0,.506.506,0,0,1,0-.715l2.615-2.615a.027.027,0,0,0,0-.038h0l-2.614-2.614a.5.5,0,1,1,.712-.715l2.08,2.079a.033.033,0,0,0,.03.006.028.028,0,0,0,.018-.024v-3.3a.507.507,0,0,1,.506-.506h0a.5.5,0,0,1,.36.151l2.293,2.292a.515.515,0,0,1,0,.722l-1.922,1.915a.02.02,0,0,0-.009.017.025.025,0,0,0,.009.02l1.922,1.913a.508.508,0,0,1,0,.724l-2.293,2.3a.5.5,0,0,1-.354.149.506.506,0,0,1-.51-.5v-.019m1.032-3.33a.026.026,0,0,0-.018.025v2.009a.025.025,0,0,0,.016.025c.014,0,.023,0,.028-.005l1.006-1a.025.025,0,0,0,.008-.018.02.02,0,0,0-.007-.018l-1.005-1.006a.037.037,0,0,0-.02-.007Zm0-4.587a.025.025,0,0,0-.017.024v2.012a.026.026,0,0,0,.016.025c.021,0,.024,0,.031-.008l1-1a.027.027,0,0,0,0-.037l-1-1a.025.025,0,0,0-.02-.009Zm5.348,8.122c-.143-.077-.44-.313-.143-.875,2.187-4.159.142-7.136.053-7.26-.2-.267-.334-.784,0-1.039a.569.569,0,0,1,.383-.142.6.6,0,0,1,.434.191.63.63,0,0,1,.059.077,6.952,6.952,0,0,1,1.042,2.509,9.067,9.067,0,0,1-.991,6.233.6.6,0,0,1-.522.385.683.683,0,0,1-.316-.08Zm-1.521-2.077a.5.5,0,0,1-.136-.639,4.233,4.233,0,0,0,.01-4.01.516.516,0,0,1,.143-.66.458.458,0,0,1,.1-.069.554.554,0,0,1,.7.184l.023.04a4.3,4.3,0,0,1,.207.413,5.24,5.24,0,0,1,.453,2.022,5,5,0,0,1-.711,2.553l-.023.036a.555.555,0,0,1-.45.229.538.538,0,0,1-.317-.1Zm-.963-1.828-.722-.664a.29.29,0,0,1-.083-.221.3.3,0,0,1,.1-.2l.653-.6V491.4l.069-.036a.3.3,0,0,1,.112-.059.33.33,0,0,1,.409.214,2.744,2.744,0,0,1,.1.72,3.36,3.36,0,0,1-.091.727.324.324,0,0,1-.307.234.34.34,0,0,1-.241-.089Z" transform="translate(-330 -464)"/>
</svg>
