<svg xmlns="http://www.w3.org/2000/svg" width="40" height="40" viewBox="0 0 40 40">
    <path style="fill:none" d="M0 0h40v40H0z"/>
    <path d="M248.256 552.018a2.615 2.615 0 0 0-2.466 1.769h-2.184v-5.961h1.432a.75.75 0 0 0 .75-.75v-2.685h2.276a.75.75 0 1 0 0-1.5h-2.276v-2.134h1.575a.75.75 0 0 0 0-1.5h-1.575V536.6a.75.75 0 0 0-.75-.75h-2.8v-2.41a.75.75 0 0 0-1.5 0v2.41H238.8v-1.41a.75.75 0 0 0-1.5 0v1.41h-2.744a.75.75 0 0 0-.75.75v2.657h-2.224a.75.75 0 1 0 0 1.5h2.224v2.134h-1.523a.75.75 0 0 0 0 1.5h1.523v2.685a.75.75 0 0 0 .75.75h1.5v6.063h-2.065a2.621 2.621 0 1 0 0 1.5h2.815a.75.75 0 0 0 .75-.75v-6.813h1.493v8.8a2.621 2.621 0 1 0 1.5 0v-8.8h1.556v6.711a.75.75 0 0 0 .75.75h2.87a2.617 2.617 0 1 0 2.53-3.269m-16.762 3.742a1.121 1.121 0 1 1 1.12-1.121 1.122 1.122 0 0 1-1.12 1.121m9.427 3.369a1.121 1.121 0 1 1-1.121-1.121 1.122 1.122 0 0 1 1.121 1.121m-5.61-15.483v-6.3h8.977v8.976h-8.977zm12.945 12.114a1.121 1.121 0 1 1 1.121-1.121 1.122 1.122 0 0 1-1.121 1.121" transform="translate(-220 -524)" style="fill:#00ada2"/>
    <path data-name="路径" d="M242.045 538.843h-4.49a.75.75 0 0 0-.75.75v4.489a.75.75 0 0 0 .75.75h4.49a.75.75 0 0 0 .75-.75v-4.489a.75.75 0 0 0-.75-.75m-.75 4.489H238.3v-2.989h2.99z" transform="translate(-220 -524)" style="fill:#03263b"/>
    <path data-name="路径" d="M253.286 537.259a9.7 9.7 0 0 0-1.851-5.533c-2.729-3.412-6.893-2.688-8.364-2.294a8.29 8.29 0 0 0-8.711-2.847c-4.72 1.349-6.085 5.921-6.425 7.543a7 7 0 0 0-6.092 6.648 6.713 6.713 0 0 0 1.973 5.125 8.187 8.187 0 0 0 5.407 1.924c.178 0 .289-.005.312-.007a.749.749 0 0 0 .7-.794.771.771 0 0 0-.794-.7 6.9 6.9 0 0 1-4.606-1.522 5.281 5.281 0 0 1-1.492-4.02c0-.188.1-4.592 5.329-5.246a.751.751 0 0 0 .652-.649c.028-.225.761-5.518 5.448-6.857a6.834 6.834 0 0 1 7.4 2.688.75.75 0 0 0 .879.289c.188-.066 4.6-1.606 7.189 1.63a8.162 8.162 0 0 1 1.534 5.194.754.754 0 0 0 .638.782c.157.023 3.848.62 3.848 3.662 0 3.468-1.718 4.053-5.57 4.053a.75.75 0 0 0 0 1.5c2.815 0 7.07 0 7.07-5.553 0-3.082-2.642-4.541-4.476-5.013" transform="translate(-220 -524)" style="fill:#03263b"/>
</svg>
