<svg id="icon-date-bel-32" xmlns="http://www.w3.org/2000/svg" width="31.999" height="32" viewBox="0 0 31.999 32">
  <defs>
    <style>
      .cls-1 {
        fill: none;
      }

      .cls-2 {
        fill: #03263b;
      }

      .cls-3 {
        fill: #00ada2;
      }
    </style>
  </defs>
  <rect id="矩形" class="cls-1" width="31.999" height="32"/>
  <path id="路径" class="cls-2" d="M279.551,27.89a3.057,3.057,0,0,1-3.054-3.055V8.685a3.056,3.056,0,0,1,3.054-3.055h2.785v-.7a1.447,1.447,0,0,1,1.446-1.446h1.233a1.447,1.447,0,0,1,1.446,1.445v.705H293.4V4.924a1.446,1.446,0,0,1,1.445-1.445h1.232a1.447,1.447,0,0,1,1.446,1.445v.705h2.786a3.057,3.057,0,0,1,3.053,3.055v6.272a.523.523,0,0,1-.523.525h0a.525.525,0,0,1-.524-.525v-3.2h-2.549a.523.523,0,0,1-.525-.522v0a.525.525,0,0,1,.525-.525h2.549V8.681a2.005,2.005,0,0,0-2.005-2h-2.786v.7a1.448,1.448,0,0,1-1.446,1.446h-1.232A1.448,1.448,0,0,1,293.4,7.382v-.7H286.46v.7a1.448,1.448,0,0,1-1.446,1.446h-1.233a1.447,1.447,0,0,1-1.445-1.446v-.7H279.55a2.005,2.005,0,0,0-2,2V10.7h18.838a.525.525,0,0,1,0,1.05H277.55V24.831a2.007,2.007,0,0,0,2.005,2h13.527a.525.525,0,0,1,.525.523v0a.526.526,0,0,1-.524.526h0Zm14.9-22.965V7.386a.4.4,0,0,0,.4.4h1.232a.4.4,0,0,0,.4-.4V4.925a.4.4,0,0,0-.4-.4h-1.232a.4.4,0,0,0-.4.4m-11.066,0V7.386a.4.4,0,0,0,.4.4h1.233a.4.4,0,0,0,.4-.4V4.925a.4.4,0,0,0-.4-.4h-1.233a.4.4,0,0,0-.4.4m4.7,20.505a.524.524,0,0,1-.525-.523h0v-2.46a.524.524,0,0,1,.524-.525h3.69a.523.523,0,0,1,.525.523v2.462a.522.522,0,0,1-.523.524h-3.691Zm.525-1.049h2.64V22.972h-2.64Zm-.525-3.253a.525.525,0,0,1-.525-.525h0v-2.46a.524.524,0,0,1,.524-.525h3.69a.523.523,0,0,1,.525.523V20.6a.525.525,0,0,1-.524.526h-3.69Zm.525-1.05h2.64V18.669h-2.64Zm-7.6,1.05a.526.526,0,0,1-.525-.526v-2.46a.525.525,0,0,1,.525-.525h3.689a.525.525,0,0,1,.525.525V20.6a.526.526,0,0,1-.525.526Zm.525-1.05h2.64V18.669h-2.64Z" transform="translate(-275)"/>
  <path id="路径-2" data-name="路径" class="cls-3" d="M281.017,25.43a.525.525,0,0,1-.525-.524V22.445a.525.525,0,0,1,.525-.525H284.7a.525.525,0,0,1,.525.525v2.46a.525.525,0,0,1-.525.525Zm.525-1.049h2.64V22.972h-2.64Zm13.615-7.864a.526.526,0,0,1-.525-.526V13.532a.526.526,0,0,1,.522-.525h3.69a.525.525,0,0,1,.525.525v2.459a.526.526,0,0,1-.525.526Zm.525-1.051h2.64V14.057h-2.64Zm-7.6,1.051a.525.525,0,0,1-.525-.525h0V13.532a.525.525,0,0,1,.524-.525h3.69a.524.524,0,0,1,.525.524h0v2.459a.525.525,0,0,1-.524.526h-3.69Zm.524-1.051h2.64V14.057h-2.64Z" transform="translate(-275)"/>
  <path id="路径-3" data-name="路径" class="cls-3" d="M303.344,28.46a.524.524,0,0,1-.253-.351.539.539,0,0,1,.077-.4l.021-.027a9.093,9.093,0,0,0,1.152-6.573,7.04,7.04,0,0,0-1.115-2.577.535.535,0,0,1-.155-.384.572.572,0,0,1,.168-.408.472.472,0,0,1,.321-.127.468.468,0,0,1,.344.15.573.573,0,0,1,.057.073,8.012,8.012,0,0,1,1.306,2.96,9.336,9.336,0,0,1,.159,3.286,11.4,11.4,0,0,1-1.418,4.145.59.59,0,0,1-.493.3h-.026Zm-6.68-1.528V24.151a.027.027,0,0,0-.015-.021.031.031,0,0,0-.025.005l-1.753,1.753a.435.435,0,0,1-.6,0,.429.429,0,0,1,0-.6l2.2-2.2a.023.023,0,0,0,0-.032h0l-2.2-2.2a.425.425,0,1,1,.6-.6L296.622,22a.031.031,0,0,0,.025,0,.023.023,0,0,0,.015-.021V19.2a.427.427,0,0,1,.427-.427h0a.423.423,0,0,1,.3.128l1.932,1.931a.433.433,0,0,1,0,.608l-1.619,1.614a.017.017,0,0,0-.008.014.021.021,0,0,0,.008.017l1.619,1.612a.426.426,0,0,1,.127.3.43.43,0,0,1-.128.307l-1.932,1.938a.414.414,0,0,1-.3.126.427.427,0,0,1-.43-.423v-.016m.87-2.806a.021.021,0,0,0-.016.021V25.84a.023.023,0,0,0,.014.021c.012,0,.019,0,.024,0l.847-.847A.023.023,0,0,0,298.41,25a.019.019,0,0,0-.006-.016l-.847-.847a.027.027,0,0,0-.017-.006Zm0-3.865a.02.02,0,0,0-.015.02v1.695a.023.023,0,0,0,.014.021c.017,0,.02,0,.026-.007l.843-.842a.023.023,0,0,0,0-.031l-.843-.847a.021.021,0,0,0-.017-.008ZM302.04,27.1c-.12-.065-.371-.264-.12-.738a5.931,5.931,0,0,0,.044-6.117c-.168-.225-.281-.661,0-.876a.484.484,0,0,1,.323-.12.5.5,0,0,1,.366.161.615.615,0,0,1,.049.065,5.844,5.844,0,0,1,.878,2.114,7.636,7.636,0,0,1-.835,5.253.5.5,0,0,1-.439.324.59.59,0,0,1-.267-.067Zm-1.282-1.751a.42.42,0,0,1-.114-.538,3.563,3.563,0,0,0,.008-3.379.434.434,0,0,1,.121-.556.349.349,0,0,1,.084-.058.466.466,0,0,1,.59.155l.019.033a3.537,3.537,0,0,1,.175.348,4.411,4.411,0,0,1,.381,1.7,4.2,4.2,0,0,1-.6,2.151l-.019.031a.469.469,0,0,1-.379.193.456.456,0,0,1-.267-.085Zm-.811-1.54-.608-.56a.243.243,0,0,1-.07-.186.248.248,0,0,1,.084-.168l.55-.506v-.023l.058-.03a.263.263,0,0,1,.1-.05.278.278,0,0,1,.344.181,2.338,2.338,0,0,1,.085.606,2.873,2.873,0,0,1-.077.613.268.268,0,0,1-.065.113.274.274,0,0,1-.194.084.292.292,0,0,1-.2-.075Z" transform="translate(-275)"/>
</svg>
