<svg id="icon-ivm-user" xmlns="http://www.w3.org/2000/svg" width="40" height="40" viewBox="0 0 40 40">
  <defs>
    <style>
      .cls-1 {
        fill: none;
      }

      .cls-2 {
        fill: #03263b;
      }

      .cls-3 {
        fill: #00ada2;
      }
    </style>
  </defs>
  <rect id="mask" class="cls-1" width="40" height="40"/>
  <path id="路径" class="cls-2" d="M116.112,494.323a2,2,0,0,1-1.993-1.994v-1.415L112,471.868v-.033l-.008-.034v-.934a2.513,2.513,0,0,1,2.511-2.51H143.22a2.513,2.513,0,0,1,2.51,2.51v.934c0,.016-.007.03-.008.045s0,.025,0,.039l-1.114,8.131h2.18a1.23,1.23,0,0,1,1.228,1.229v1.607a1.23,1.23,0,0,1-1.228,1.228h-3.277c-.013,0-.024-.007-.038-.008h-.046a.679.679,0,0,1-.11-.039.75.75,0,0,1-.091-.031.686.686,0,0,1-.15-.118c-.013-.013-.031-.019-.042-.033v-.009a.6.6,0,0,1-.115-.229v-.052a.606.606,0,0,1-.013-.185l1.5-10.957h-31.1l1.981,17.842H132.4a.618.618,0,1,1,0,1.236H115.356v.833a.758.758,0,0,0,.756.758h14.877a.618.618,0,1,1,0,1.236ZM144.6,481.249l-.318,1.591h2.513v-1.6Zm-31.36-10.383v.316H144.5v-.316a1.274,1.274,0,0,0-1.273-1.273H114.511a1.275,1.275,0,0,0-1.274,1.273Zm12.1,14.271a.618.618,0,1,1,0-1.236h7.06a.618.618,0,1,1,0,1.236Zm0-2.12a.618.618,0,1,1,0-1.236h7.06a.618.618,0,1,1,0,1.236Zm0-2.12a.618.618,0,1,1,0-1.236h7.06a.618.618,0,1,1,0,1.236Z" transform="translate(-110 -464)"/>
  <path id="路径-2" data-name="路径" class="cls-3" d="M132.785,499.623a.618.618,0,0,1-.618-.618,7.3,7.3,0,0,1,5.262-7,4.153,4.153,0,1,1,4.057,0,7.3,7.3,0,0,1,5.263,7,.618.618,0,0,1-.618.618Zm.649-1.237h12.047a6.047,6.047,0,0,0-5.54-5.391.573.573,0,0,1,.1.318.588.588,0,0,1-.587.589h0a.589.589,0,0,1-.589-.589.576.576,0,0,1,.106-.318,6.047,6.047,0,0,0-5.535,5.391m3.109-9.98a2.915,2.915,0,1,0,2.914-2.916,2.917,2.917,0,0,0-2.914,2.916Zm2.326,8.439v-1.767a.587.587,0,0,1,.587-.589h0a.588.588,0,0,1,.589.587v1.769a.588.588,0,0,1-.587.589h0a.59.59,0,0,1-.59-.588h0Zm-.433-19.48a1.678,1.678,0,1,1,0-3.356h2.119a1.678,1.678,0,1,1,0,3.357Zm-.441-1.678a.443.443,0,0,0,.441.441h2.119a.441.441,0,1,0,0-.883h-2.12A.442.442,0,0,0,137.995,475.687Zm-20.755,1.678a1.678,1.678,0,1,1,0-3.356h2.12a1.678,1.678,0,0,1,0,3.357Zm-.443-1.678a.442.442,0,0,0,.443.441h2.12a.441.441,0,1,0,0-.883h-2.12a.442.442,0,0,0-.443.441Z" transform="translate(-110 -464)"/>
</svg>
