<svg id="icon-date-ball" xmlns="http://www.w3.org/2000/svg" width="40" height="40" viewBox="0 0 40 40">
  <defs>
    <style>
      .cls-1 {
        fill: none;
      }

      .cls-2 {
        fill: #03263b;
      }

      .cls-3 {
        fill: #00ada2;
      }
    </style>
  </defs>
  <rect id="mask" class="cls-1" width="40" height="40"/>
  <path id="路径" class="cls-2" d="M280.082,496.12a3.586,3.586,0,0,1-3.582-3.582V473.31a3.586,3.586,0,0,1,3.582-3.582h3.371v-.538a2.026,2.026,0,0,1,2.023-2.024h.755a2.028,2.028,0,0,1,2.024,2.024v.538h8.372v-.538a2.026,2.026,0,0,1,2.023-2.024h.755a2.028,2.028,0,0,1,2.024,2.024v.538H304.8a3.585,3.585,0,0,1,3.582,3.582v7.466a.572.572,0,0,1-1.143.048.382.382,0,0,1,0-.048v-3.859h-3.088a.571.571,0,0,1-.048-1.141.382.382,0,0,1,.048,0h3.088V473.31a2.443,2.443,0,0,0-2.439-2.444h-3.371v.537a2.028,2.028,0,0,1-2.024,2.024h-.755a2.026,2.026,0,0,1-2.023-2.024v-.537h-8.372v.537a2.027,2.027,0,0,1-2.024,2.029h-.755a2.026,2.026,0,0,1-2.023-2.024v-.542h-3.371a2.442,2.442,0,0,0-2.439,2.44v2.469h22.473a.571.571,0,0,1,.048,1.141.382.382,0,0,1-.048,0H277.643v15.622a2.443,2.443,0,0,0,2.439,2.439h14.555a.572.572,0,0,1,0,1.143Zm17.687-26.93v2.218a.883.883,0,0,0,.881.881h.755a.883.883,0,0,0,.881-.881V469.19a.883.883,0,0,0-.881-.881h-.755a.883.883,0,0,0-.881.881m-13.174,0v2.218a.883.883,0,0,0,.881.881h.755a.883.883,0,0,0,.881-.881V469.19a.883.883,0,0,0-.881-.881h-.755a.883.883,0,0,0-.881.881m-2.766,24a.572.572,0,0,1-.572-.572v-2.924a.571.571,0,0,1,.57-.572h4.393a.571.571,0,0,1,.571.571h0v2.927a.572.572,0,0,1-.571.572Zm.571-1.14h3.248v-1.784H282.4Zm7.844-3.98a.572.572,0,0,1-.571-.572v-2.927a.573.573,0,0,1,.571-.571h4.391a.572.572,0,0,1,.572.571V487.5a.573.573,0,0,1-.572.572Zm.572-1.143h3.248v-1.785h-3.247Zm7.844-4.346a.573.573,0,0,1-.571-.571v-2.928a.571.571,0,0,1,.571-.571h4.391a.572.572,0,0,1,.572.571v2.928a.572.572,0,0,1-.572.571Zm.572-1.143h3.248v-1.785h-3.247Z" transform="translate(-275 -464)"/>
  <path id="路径-2" data-name="路径" class="cls-3" d="M290.245,493.193a.572.572,0,0,1-.571-.572v-2.927a.572.572,0,0,1,.571-.572h4.391a.571.571,0,0,1,.571.571h0v2.927a.571.571,0,0,1-.57.572h-4.392Zm.571-1.143h3.248v-1.785h-3.247Zm-8.987-3.98a.571.571,0,0,1-.572-.57h0v-2.928a.571.571,0,0,1,.571-.571h4.391a.573.573,0,0,1,.571.571V487.5a.573.573,0,0,1-.571.571Zm.571-1.143h3.248v-1.785H282.4Zm7.845-4.346a.572.572,0,0,1-.571-.57v-2.929a.573.573,0,0,1,.571-.571h4.391a.571.571,0,0,1,.571.571v2.929a.571.571,0,0,1-.571.571Zm.572-1.143h3.248v-1.785h-3.248Z" transform="translate(-275 -464)"/>
  <path id="路径-3" data-name="路径" class="cls-3" d="M299.833,497.524H298.3v.222a1.085,1.085,0,1,1-2.171,0v-5.137a1.085,1.085,0,0,1,2.171,0v.222h1.565a5.64,5.64,0,0,1,2.694-2.694v-1.956a.406.406,0,0,1,.407-.4h.551v-1.407H300.1a1.106,1.106,0,1,1-.067-2.211H309.8a1.106,1.106,0,0,1,0,2.211h-3.5v1.407h.577a.4.4,0,0,1,.4.4v1.935a5.64,5.64,0,0,1,2.748,2.721h1.545v-.223a1.085,1.085,0,0,1,2.171,0v5.137a1.085,1.085,0,1,1-2.171,0v-.222h-1.5a5.608,5.608,0,0,1-10.23,0m.308-2.308a4.775,4.775,0,0,0,.316,1.7.4.4,0,0,1,.049.134,4.8,4.8,0,0,0,8.856.067.4.4,0,0,1,.094-.247,4.736,4.736,0,0,0-.06-3.47v-.009a4.836,4.836,0,0,0-2.583-2.6.41.41,0,0,1-.143-.052,4.8,4.8,0,0,0-6.525,4.484Zm12.241-2.607v5.137a.276.276,0,1,0,.551,0v-5.137a.276.276,0,1,0-.551,0m-15.438,0v5.137a.275.275,0,0,0,.55,0v-5.137a.275.275,0,0,0-.55,0m13.622,2.606a5.555,5.555,0,0,1-.21,1.5h1.216v-3.074h-1.239a5.6,5.6,0,0,1,.232,1.574Zm-12.262,1.5h1.236a5.5,5.5,0,0,1,.019-3.072H298.3Zm5.07-6.888a5.5,5.5,0,0,1,3.094-.014v-1.227h-3.094Zm.959-2.051h1.153v-1.407h-1.153Zm-4.486-2.512a.253.253,0,0,0,.253.253h9.7a.253.253,0,1,0,0-.507H300.1a.252.252,0,0,0-.254.25Zm1.9,9.951a3.2,3.2,0,1,1,3.2,3.2,3.2,3.2,0,0,1-3.2-3.2Zm.782,0a2.416,2.416,0,1,0,2.418-2.416,2.416,2.416,0,0,0-2.418,2.416Z" transform="translate(-275 -464)"/>
  <path id="路径-4" data-name="路径" class="cls-2" d="M304.581,499.366v-.294a.4.4,0,1,1,.81,0v.294a.4.4,0,0,1-.81,0m-2.849-.927a.4.4,0,0,1-.007-.566l.007-.007.208-.208a.405.405,0,0,1,.573.573l-.209.208a.4.4,0,0,1-.566.006l-.006-.006m5.924-.027-.209-.208a.405.405,0,0,1,.573-.573l.208.208a.405.405,0,1,1-.555.59l-.017-.017m-6.878-2.81a.4.4,0,1,1,0-.81h.295a.4.4,0,1,1,0,.81Zm8.082-.038a.4.4,0,1,1,0-.81h.3a.4.4,0,1,1,0,.81Zm-6.946-2.839-.209-.208a.406.406,0,0,1,.545-.6l.028.028.208.208a.405.405,0,0,1-.572.574m5.506-.028a.4.4,0,0,1-.007-.566l.007-.007.208-.208a.405.405,0,0,1,.573.573l-.209.208a.4.4,0,0,1-.566.006l-.006-.006m-2.878-1.413v-.3a.4.4,0,0,1,.81,0v.3a.4.4,0,0,1-.81,0" transform="translate(-275 -464)"/>
</svg>
