<svg id="icon-emission-32" xmlns="http://www.w3.org/2000/svg" width="32.051" height="32" viewBox="0 0 32.051 32">
  <defs>
    <style>
      .cls-1 {
        fill: none;
      }

      .cls-2 {
        fill: #03263b;
      }

      .cls-2, .cls-3 {
        stroke: rgba(0,0,0,0);
        stroke-miterlimit: 10;
      }

      .cls-3 {
        fill: #00ada2;
      }
    </style>
  </defs>
  <rect id="mask" class="cls-1" width="31.999" height="32"/>
  <path id="联合" class="cls-2" d="M513.719,1809.746a12.6,12.6,0,1,1,15.217-19.609.6.6,0,0,1-.889.806,11.4,11.4,0,1,0-13.767,17.742.6.6,0,0,1-.281,1.13A.618.618,0,0,1,513.719,1809.746Zm-1.049-4.216a9.8,9.8,0,1,1,14.087-13.624.6.6,0,0,1-.057.873l-1.349,1.114a.6.6,0,1,1-.764-.924l.841-.694a8.486,8.486,0,0,0-5.227-2.246v1.542a.6.6,0,1,1-1.2,0v-1.54a8.553,8.553,0,0,0-4.978,2.038l.988,1.1a.6.6,0,1,1-.893.8l-.949-1.06A8.552,8.552,0,0,0,511.03,1798h1.437a.6.6,0,0,1,0,1.2h-1.44a8.517,8.517,0,0,0,2.1,5.066l1.033-.93a.6.6,0,1,1,.8.892l-1.47,1.324a.6.6,0,0,1-.826-.022Z" transform="translate(-506.231 -1784.685)"/>
  <path id="联合-2" data-name="联合" class="cls-3" d="M522.918,1806.408v-6.219a1.941,1.941,0,0,1,1.939-1.939h1.975a1.436,1.436,0,0,0,0-2.873h-1.684a.6.6,0,0,1,0-1.2v0a1.554,1.554,0,1,0,0-3.109h-.413a.6.6,0,1,1,0-1.2h.413a2.758,2.758,0,0,1,2.755,2.755,2.73,2.73,0,0,1-.531,1.611,2.636,2.636,0,0,1-.54,5.216h-1.975a.739.739,0,0,0-.739.739v6.219a.6.6,0,1,1-1.2,0Zm-7.438,0v-2.241a2.477,2.477,0,0,1,2.475-2.473h1.409a1.437,1.437,0,1,0,0-2.874h-5.576a.6.6,0,1,1,0-1.2h5.576a2.622,2.622,0,0,1,1.437.431v-1.378a.6.6,0,0,0-.6-.6h-3.637a2.79,2.79,0,0,1,0-5.58h.951l.023-1.267a2.806,2.806,0,0,1,2.8-2.8h2.451a.6.6,0,1,1,0,1.2h-2.451a1.6,1.6,0,0,0-1.6,1.6v1.246a1.224,1.224,0,0,1-1.223,1.222h-.951a1.59,1.59,0,0,0,0,3.18H520.2a1.8,1.8,0,0,1,1.8,1.8v3.655a.622.622,0,0,1-.014.071,2.634,2.634,0,0,1-2.623,2.494h-1.409a1.276,1.276,0,0,0-1.275,1.273v2.241a.6.6,0,1,1-1.2,0Zm-3.766,0V1804.6a.345.345,0,0,0-.345-.346h-1.418a2.065,2.065,0,1,1,0-4.13h3.212a.6.6,0,1,1,0,1.2h-3.212a.865.865,0,1,0,0,1.73h1.418a1.547,1.547,0,0,1,1.545,1.545v1.807a.6.6,0,0,1-1.2,0Zm-.918-8.271a.72.72,0,1,1,.72.721A.72.72,0,0,1,510.8,1798.137Zm-.67-7.449v-.005l0,0a1.5,1.5,0,0,1,.109-.556l-3.063-3.1a.605.605,0,0,1,.859-.853h0l3.064,3.1a1.5,1.5,0,0,1,.544-.105,1.514,1.514,0,1,1-1.515,1.516Zm11.87-.22a.72.72,0,1,1,.72.72A.719.719,0,0,1,522,1790.468Z" transform="translate(-497.917 -1776.323)"/>
</svg>
