<svg id="icon-location" xmlns="http://www.w3.org/2000/svg" width="40" height="40" viewBox="0 0 40 40">
  <defs>
    <style>
      .cls-1 {
        fill: none;
      }

      .cls-2 {
        fill: #03263b;
      }

      .cls-3 {
        fill: #00ada2;
      }
    </style>
  </defs>
  <rect id="mask" class="cls-1" width="40" height="40"/>
  <path id="路径_" data-name="路径 " class="cls-2" d="M472.635,501.694a1.659,1.659,0,0,1-1.293-.652l-3.357-4.379a6.273,6.273,0,0,1-.932-1.314H445.037v.38a.53.53,0,0,1-.528.528h-2a.528.528,0,0,1-.528-.528v-.718h-.827a.527.527,0,0,1-.528-.526v0a.528.528,0,0,1,.528-.528h.827V492.43h-.827a.527.527,0,0,1-.528-.526v0a.529.529,0,0,1,.528-.527h.827v-.726a.528.528,0,0,1,.528-.528h2a.53.53,0,0,1,.528.528v.425h4.01a12.762,12.762,0,1,1,14.214,0h3.065a6.69,6.69,0,0,1,6.139-5.494A6.6,6.6,0,0,1,477.324,497l-3.377,4.091a1.659,1.659,0,0,1-1.284.606Zm-.1-14.874a5.428,5.428,0,0,0-5.074,5.329,5.333,5.333,0,0,0,1.472,3.709l3.4,4.428a.426.426,0,0,0,.331.167A.473.473,0,0,0,473,500.3l3.432-4.15a5.381,5.381,0,0,0,1.76-3.973,5.363,5.363,0,0,0-5.361-5.362c-.105,0-.2,0-.295.006Zm-29.5,8.38h.948v-4.026h-.948Zm2-.906h21.547a6.624,6.624,0,0,1-.369-2.151v-.016h-4.9a.494.494,0,0,1-.076.018.534.534,0,0,1-.482-.31.529.529,0,0,1,.26-.7h0a11.7,11.7,0,1,0-9.79-.031.521.521,0,0,1,.011.989.569.569,0,0,1-.153.03h-.029a.242.242,0,0,1-.054,0h-5.966Zm23.638-2.117a4.147,4.147,0,1,1,4.149,4.142,4.148,4.148,0,0,1-4.149-4.142Zm1.243,0a3.528,3.528,0,1,1,.006,0Zm-24.08-11.687a10.318,10.318,0,1,1,10.318,10.318,10.33,10.33,0,0,1-10.318-10.318Zm1.057,0a9.261,9.261,0,1,0,9.262-9.261,9.273,9.273,0,0,0-9.262,9.261Z" transform="translate(-440 -464)"/>
  <path id="路径" class="cls-3" d="M457.053,488.317l-.993-.676a.529.529,0,1,1,.6-.874l.828.563.61-.077-1.189-3.335a.528.528,0,0,1,.32-.675h0a.531.531,0,0,1,.675.321l1.41,3.954a.528.528,0,0,1-.432.7l-1.462.185h-.067a.544.544,0,0,1-.3-.087m-3.811-.175-1.322-.831a.527.527,0,0,1-.232-.323l-.276-1.148a.527.527,0,0,1,.389-.636h0a.524.524,0,0,1,.635.38l0,.009.228.94.583.367,1.2-3.336a.528.528,0,0,1,.994.356v0l-1.427,3.954a.523.523,0,0,1-.323.32.537.537,0,0,1-.173.029.531.531,0,0,1-.279-.082Zm6.993-2.622a.53.53,0,0,1,.486-.569h0l.91-.072.434-.483-3.023-1.783a.529.529,0,0,1,.537-.912l3.581,2.112a.532.532,0,0,1,.125.808l-1.009,1.121a.522.522,0,0,1-.351.173l-1.121.088a.292.292,0,0,1-.042,0,.531.531,0,0,1-.525-.482Zm-10.968-.758a.533.533,0,0,1-.312-.329l-.478-1.473a.53.53,0,0,1,.02-.378l.478-1.079a.531.531,0,0,1,.971.429v0l-.4.894.215.661,3.1-1.777a.527.527,0,0,1,.72.192v0a.529.529,0,0,1-.193.722l-3.665,2.1a.513.513,0,0,1-.262.069.537.537,0,0,1-.19-.035Zm4.864-4.274a2.02,2.02,0,1,1,2.02,2.021,2.024,2.024,0,0,1-2.02-2.021Zm1.057,0a.964.964,0,1,0,.963-.964.964.964,0,0,0-.963.964Zm7.409,1.267a.53.53,0,0,1-.006-.748l.668-.681v-.695l-3.443.638a.536.536,0,0,1-.615-.423.526.526,0,0,1,.42-.615h0l4.065-.753a.528.528,0,0,1,.434.112.522.522,0,0,1,.191.407v1.547a.525.525,0,0,1-.151.369l-.818.835a.522.522,0,0,1-.378.158.528.528,0,0,1-.367-.149ZM452.516,480.3l-4.039-.79a.528.528,0,0,1-.393-.708l.517-1.336a.531.531,0,0,1,.283-.3l1.12-.481a.53.53,0,0,1,.7.274h0a.53.53,0,0,1-.273.7l0,0-.917.392-.209.541,3.421.669a.529.529,0,0,1-.1,1.048.585.585,0,0,1-.1-.009ZM453.51,478l-2.707-3.236a.535.535,0,0,1-.112-.447.54.54,0,0,1,.283-.365l1.352-.666a.525.525,0,0,1,.379-.035l1.166.331a.528.528,0,0,1-.279,1.019l-.01,0-.972-.275-.566.28,2.275,2.72a.527.527,0,0,1-.065.744h0a.523.523,0,0,1-.739-.07Zm4.681,0a.529.529,0,0,1-.067-.745l2.64-3.157a.53.53,0,0,1,.407-.191.685.685,0,0,1,.411.2l.944,1.171a.523.523,0,0,1,.113.392l-.139,1.209a.527.527,0,0,1-.584.465h0a.529.529,0,0,1-.464-.586l.113-.988-.4-.5-2.225,2.66a.528.528,0,0,1-.745.068Zm-2.516-1.2v-4.177a.534.534,0,0,1,.642-.516l1.442.3a.521.521,0,0,1,.307.191l.654.832a.527.527,0,0,1-.088.74h0a.529.529,0,0,1-.742-.087h0l-.535-.68-.617-.129V476.8a.53.53,0,0,1-1.059,0Z" transform="translate(-440 -464)"/>
</svg>
