<svg id="icon-device_fail" data-name="icon-device fail" xmlns="http://www.w3.org/2000/svg" width="56" height="56" viewBox="0 0 56 56">
  <defs>
    <style>
      .cls-1 {
        fill: none;
      }

      .cls-2 {
        fill: red;
        stroke: rgba(0,0,0,0);
        stroke-miterlimit: 10;
      }
    </style>
  </defs>
  <rect id="mask" class="cls-1" width="56" height="56"/>
  <path id="联合" class="cls-2" d="M464.739,1752.155l-8.829-8.828-8.828,8.828a1.15,1.15,0,1,1-1.626-1.627l8.828-8.828-8.828-8.828a1.15,1.15,0,1,1,1.626-1.626l8.828,8.828,8.829-8.828a1.15,1.15,0,1,1,1.625,1.626l-8.828,8.828,8.828,8.828a1.15,1.15,0,1,1-1.625,1.627Zm9.249-2.3a1.151,1.151,0,0,1,0-2.3H486.1a5.8,5.8,0,0,0,5.794-5.792v-25.664a5.8,5.8,0,0,0-5.794-5.794H453.094a5.8,5.8,0,0,0-5.794,5.794v6.628a1.15,1.15,0,0,1-2.3,0v-6.628a8.1,8.1,0,0,1,8.095-8.095H486.1a8.1,8.1,0,0,1,8.095,8.095v25.664a8.1,8.1,0,0,1-8.095,8.094Z" transform="translate(-441.535 -1702.025)"/>
</svg>
