<svg id="icon-setting" xmlns="http://www.w3.org/2000/svg" width="56" height="56" viewBox="0 0 56 56">
  <defs>
    <style>
      .cls-1 {
        fill: none;
      }

      .cls-2 {
        fill: #00ada2;
        stroke: rgba(0,0,0,0);
        stroke-miterlimit: 10;
      }
    </style>
  </defs>
  <rect id="mask" class="cls-1" width="56" height="56"/>
  <path id="联合" class="cls-2" d="M466.441,1758.029a1.15,1.15,0,0,1-.95-.865l-1.353-5.541a19.363,19.363,0,0,1-3.061-1.293l-4.193,3.246a1.149,1.149,0,0,1-1.374.025,25.27,25.27,0,0,1-5.35-5.19,1.15,1.15,0,0,1-.066-1.3l2.939-4.778a19.414,19.414,0,0,1-1.382-3.257l-5.454-.735a1.148,1.148,0,0,1-.99-1.011,33.842,33.842,0,0,1-.2-4.195c0-.909.09-2.764.205-3.768a1.147,1.147,0,0,1,.963-1l5.392-.853a19.425,19.425,0,0,1,1.3-3.206l-2.834-5.1a1.149,1.149,0,0,1,.09-1.254,25.246,25.246,0,0,1,4.892-4.879,1.153,1.153,0,0,1,1.235-.1l5.248,2.792a19.308,19.308,0,0,1,2.939-1.178l1.179-5.438a1.152,1.152,0,0,1,.962-.895,25.417,25.417,0,0,1,7.727.086,1.152,1.152,0,0,1,.945.931l.977,5.422a19.305,19.305,0,0,1,3.464,1.526l4.533-3.007a1.148,1.148,0,0,1,1.341.05,25.24,25.24,0,0,1,5.268,5.563,1.148,1.148,0,0,1-.053,1.381l-3.329,4.091a19.372,19.372,0,0,1,1.3,3.2l5.425,1.18a1.15,1.15,0,0,1,.895.966,25.435,25.435,0,0,1-.058,7.4,1.144,1.144,0,0,1-.764.912l-3.863,1.32a1.15,1.15,0,0,1-.743-2.176l3.193-1.091a23.2,23.2,0,0,0,.053-5.259l-5.3-1.152a1.149,1.149,0,0,1-.868-.83,17.005,17.005,0,0,0-1.643-4.035,1.151,1.151,0,0,1,.109-1.292l3.258-4a22.935,22.935,0,0,0-3.646-3.844l-4.43,2.94a1.152,1.152,0,0,1-1.239.021,17.076,17.076,0,0,0-4.224-1.864,1.152,1.152,0,0,1-.814-.9l-.955-5.3a23,23,0,0,0-5.44-.059l-1.152,5.314a1.151,1.151,0,0,1-.826.866,17,17,0,0,0-3.675,1.463,1.154,1.154,0,0,1-1.087,0l-5.122-2.724a22.989,22.989,0,0,0-3.413,3.4l2.767,4.978a1.153,1.153,0,0,1,0,1.118,16.965,16.965,0,0,0-1.591,3.97,1.149,1.149,0,0,1-.932.845l-5.234.828c-.064.873-.113,1.975-.113,2.658-.013,1.014.022,2.028.1,3.031l5.287.712a1.152,1.152,0,0,1,.956.833,16.946,16.946,0,0,0,1.711,4.051,1.147,1.147,0,0,1-.013,1.183l-2.872,4.668a22.933,22.933,0,0,0,3.693,3.593l4.1-3.176a1.152,1.152,0,0,1,1.283-.085,17.057,17.057,0,0,0,3.866,1.648,1.147,1.147,0,0,1,.8.833l1.321,5.411a23.168,23.168,0,0,0,5.154.008l.785-3.32a1.15,1.15,0,1,1,2.237.53l-.967,4.094a1.15,1.15,0,0,1-.954.874,25.468,25.468,0,0,1-7.353-.01Zm17.194-2.454c-.059-.066-6.039-6.436-8.468-8.862a5.72,5.72,0,0,0-4.831-1.456.879.879,0,0,1-.192.015,12.129,12.129,0,0,1-11.75-15.041,1.151,1.151,0,0,1,1.893-.572l5.5,5.031c.281.146,1.31.629,1.832.183,1.238-1.065,4.741-4.567,4.776-4.6s.049-.049.077-.07c.131-.146-.166-.57-.473-.879-1.591-1.6-5.262-5.867-5.418-6.049a1.149,1.149,0,0,1,.593-1.864,12.131,12.131,0,0,1,15.087,11.75,1.036,1.036,0,0,1-.015.184,6.044,6.044,0,0,0,1.5,5.059c2.408,2.407,8.408,8.6,8.468,8.664a1.15,1.15,0,0,1-1.652,1.6c-.06-.062-6.047-6.244-8.481-8.678a8.358,8.358,0,0,1-2.118-6.915,9.835,9.835,0,0,0-10.267-9.726c1.234,1.415,3,3.408,3.936,4.351a3.358,3.358,0,0,1,1.155,2.518,2.494,2.494,0,0,1-.783,1.7c-.329.329-3.618,3.611-4.882,4.7-1.519,1.306-3.615.607-4.614-.01a1.042,1.042,0,0,1-.171-.131l-3.993-3.647c0,.1,0,.2,0,.293a9.842,9.842,0,0,0,9.72,9.85,8.062,8.062,0,0,1,6.71,2.09c2.479,2.477,8.483,8.874,8.545,8.939a1.151,1.151,0,0,1-1.678,1.575Z" transform="translate(-442.173 -1705.172)"/>
</svg>
