<svg id="icon-worring" xmlns="http://www.w3.org/2000/svg" width="56" height="56" viewBox="0 0 56 56">
  <defs>
    <style>
      .cls-1 {
        fill: none;
      }

      .cls-2 {
        fill: #ffd600;
        stroke: rgba(0,0,0,0);
        stroke-miterlimit: 10;
      }
    </style>
  </defs>
  <rect id="mask" class="cls-1" width="56" height="56"/>
  <path id="联合" class="cls-2" d="M449.65,1750.748a4.651,4.651,0,0,1-3.988-7.043l20.069-33.447a4.649,4.649,0,0,1,7.976,0l20.069,33.447a4.652,4.652,0,0,1-3.988,7.043ZM467.7,1711.44l-20.069,33.448a2.349,2.349,0,0,0,2.015,3.558h40.138a2.349,2.349,0,0,0,2.015-3.558l-20.069-33.448a2.351,2.351,0,0,0-4.03,0Zm.082,29.93a2.181,2.181,0,1,1,2.182,2.18A2.182,2.182,0,0,1,467.786,1741.37Zm.361-6.81v-11.286a1.5,1.5,0,1,1,3,0v11.286a1.5,1.5,0,0,1-3,0Z" transform="translate(-441.719 -1701.597)"/>
</svg>
