<svg id="icon-angle" xmlns="http://www.w3.org/2000/svg" width="40" height="40" viewBox="0 0 40 40">
  <defs>
    <style>
      .cls-1 {
        fill: none;
      }

      .cls-2 {
        fill: #03263b;
        stroke: rgba(0,0,0,0);
        stroke-miterlimit: 10;
      }

      .cls-3 {
        fill: #00ada2;
      }
    </style>
  </defs>
  <rect id="矩形" class="cls-1" width="40" height="40"/>
  <path id="联合" class="cls-2" d="M445,1817.679h1.411a15.551,15.551,0,0,0,14.873,14.775v1.406A16.958,16.958,0,0,1,445,1817.679Zm17.783,14.765a15.551,15.551,0,0,0,14.663-14.765h1.407a16.959,16.959,0,0,1-16.069,16.171Zm-10.88-14.765h1.407a8.66,8.66,0,0,0,7.974,7.874v1.408A10.061,10.061,0,0,1,451.9,1817.679Zm10.88,7.862a8.664,8.664,0,0,0,7.761-7.862h1.411a10.065,10.065,0,0,1-9.172,9.271Zm-10.869-9.36a10.054,10.054,0,0,1,3.366-6.776h-2.716a.7.7,0,0,1,0-1.409h4.91a.7.7,0,0,1,.7.7v4.786a.7.7,0,0,1-1.409,0v-3.5a8.681,8.681,0,0,0-3.443,6.2Zm18.63,0a8.664,8.664,0,0,0-7.761-7.862v-1.408a10.066,10.066,0,0,1,9.169,9.27Zm-25.544,0A16.959,16.959,0,0,1,461.283,1800v1.411a15.548,15.548,0,0,0-14.872,14.768Zm24.318-8.9a.7.7,0,0,1,0-1.407h3.526a15.552,15.552,0,0,0-10.061-4.458v-1.407a16.976,16.976,0,0,1,10.754,4.573v-2.93a.7.7,0,0,1,1.409,0v4.927a.7.7,0,0,1-.7.7Z" transform="translate(-442.033 -1796.929)"/>
  <path id="路径" class="cls-3" d="M38.3,543.25H20.75V525.5a.75.75,0,0,0-1.5,0v17.75H1.5a.75.75,0,0,0,0,1.5H19.25V562.3a.75.75,0,0,0,1.5,0V544.75H38.3a.75.75,0,0,0,0-1.5" transform="translate(0 -524)"/>
</svg>
