<svg id="icon_title_-_renew_confirm" data-name="icon title - renew confirm" xmlns="http://www.w3.org/2000/svg" width="88" height="88" viewBox="0 0 88 88">
  <defs>
    <style>
      .cls-1 {
        fill: none;
      }

      .cls-2, .cls-3 {
        fill: #00ada2;
      }

      .cls-2 {
        opacity: 0.15;
      }

      .cls-3 {
        stroke: rgba(0,0,0,0);
        stroke-miterlimit: 10;
      }
    </style>
  </defs>
  <rect id="mask" class="cls-1" width="87.999" height="88" transform="translate(0)"/>
  <path id="round" class="cls-2" d="M328.911,0a44,44,0,1,1-44,44,44,44,0,0,1,44-44" transform="translate(-284.911)"/>
  <path id="联合" class="cls-3" d="M464.441,1752.19a22.256,22.256,0,0,1-9-40.94h-2.558a1.625,1.625,0,0,1,0-3.25h6.6a1.625,1.625,0,0,1,1.625,1.625v6.6a1.625,1.625,0,0,1-3.25,0v-2.632a19,19,0,0,0,6.991,35.373,1.625,1.625,0,0,1-.2,3.236A1.8,1.8,0,0,1,464.441,1752.19Zm11.839-.909a1.625,1.625,0,0,1-1.625-1.625v-6.6a1.625,1.625,0,0,1,3.25,0v2.791a19,19,0,0,0-8.416-34.608,1.625,1.625,0,1,1,.383-3.226,22.248,22.248,0,0,1,10.561,40.019h2.446a1.625,1.625,0,1,1,0,3.25Zm-12.142-12.457a1.624,1.624,0,0,1-1.178-.6l-5.682-7.064a1.625,1.625,0,1,1,2.533-2.037l4.545,5.652,11.556-11.554a1.625,1.625,0,1,1,2.3,2.3l-12.836,12.834a1.626,1.626,0,0,1-1.149.476Z" transform="translate(-423.255 -1685.833)"/>
</svg>
