<svg id="icon_-_chart" data-name="icon - chart" xmlns="http://www.w3.org/2000/svg" width="72" height="72" viewBox="0 0 72 72">
  <defs>
    <style>
      .cls-1 {
        fill: none;
      }

      .cls-2, .cls-4 {
        fill: #00ada2;
      }

      .cls-2, .cls-3, .cls-4 {
        stroke: rgba(0,0,0,0);
        stroke-miterlimit: 10;
      }

      .cls-2 {
        opacity: 0.3;
      }

      .cls-3 {
        fill: #03263b;
      }
    </style>
  </defs>
  <rect id="mask" class="cls-1" width="72" height="72"/>
  <path id="联合" class="cls-2" d="M-1447.417,1014.437V981.122h8.139v33.314Zm-32.388-7.073V981.122h8.14v22.18a16.226,16.226,0,0,0-7.127,4.155.812.812,0,0,1-.531.263A.59.59,0,0,1-1479.805,1007.364ZM-1496,982.187a3.163,3.163,0,0,1,3.163-3.164,3.164,3.164,0,0,1,3.164,3.164,3.163,3.163,0,0,1-3.164,3.163A3.162,3.162,0,0,1-1496,982.187Zm33.4-2.024a3.162,3.162,0,0,1,3.163-3.163,3.162,3.162,0,0,1,3.163,3.163,3.162,3.162,0,0,1-3.163,3.163A3.162,3.162,0,0,1-1462.6,980.163Z" transform="translate(1503.283 -960.858)"/>
  <path id="联合-2" data-name="联合" class="cls-3" d="M494.583,1851.849a1,1,0,1,1,0-2H508.5a1,1,0,1,1,0,2Zm-48.583,0a1,1,0,1,1,0-2h16.953a1,1,0,1,1,0,2Zm58.5-4.29v-31.315h-6.139v31.315a1,1,0,0,1-2,0v-32.314a1,1,0,0,1,1-1H505.5a1,1,0,0,1,1,1v32.314a1,1,0,0,1-2,0Zm-48.583,0v-21.193h-6.139v21.193a1,1,0,0,1-2,0v-22.193a1,1,0,0,1,1-1h8.139a1,1,0,0,1,1,1v22.193a1,1,0,0,1-2,0Zm32.642-6.073v-15.12h-6.138v10.06a1,1,0,0,1-2,0v-11.06a1,1,0,0,1,1-1h8.138a1,1,0,0,1,1,1v16.12a1,1,0,1,1-2,0Zm-24.587,0v-26.241a1,1,0,0,1,1-1h8.139a1,1,0,0,1,1,1v21.181a1,1,0,0,1-2,0v-20.181h-6.139v25.241a1,1,0,1,1-2,0Zm-16.194-25.177a4.167,4.167,0,0,1,4.162-4.162,4.119,4.119,0,0,1,2.481.84l9.786-7.5a4.086,4.086,0,0,1-.236-1.323,4.163,4.163,0,1,1,8.124,1.218l10.288,5.98a4.152,4.152,0,0,1,5.891-.026l9.312-5.921a4.086,4.086,0,0,1-.214-1.251,4.176,4.176,0,1,1,1.247,2.965l-9.322,5.926a4.111,4.111,0,0,1,.207,1.231,4.163,4.163,0,1,1-8.326,0,4.114,4.114,0,0,1,.2-1.2l-10.3-5.986a4.139,4.139,0,0,1-5.8.078l-9.593,7.352a4.157,4.157,0,1,1-7.913,1.776Zm2,0a2.163,2.163,0,1,0,2.163-2.163A2.166,2.166,0,0,0,449.783,1816.309Zm33.4-2.024a2.163,2.163,0,1,0,2.163-2.163A2.165,2.165,0,0,0,483.184,1814.285Zm16.194-10.122a2.163,2.163,0,1,0,2.164-2.163A2.166,2.166,0,0,0,499.378,1804.163Zm-33.4,0A2.163,2.163,0,1,0,468.14,1802,2.166,2.166,0,0,0,465.977,1804.163Z" transform="translate(-441.5 -1794.98)"/>
  <path id="联合-3" data-name="联合" class="cls-4" d="M445,1812.386a12.387,12.387,0,0,1,24.774,0c0,.077-.014.15-.015.225l.768-.881a1,1,0,1,1,1.508,1.313l-3.06,3.515a1,1,0,0,1-.755.343h-.01a1,1,0,0,1-.757-.359l-2.937-3.514a1,1,0,1,1,1.534-1.283l1.636,1.958a10.553,10.553,0,0,0,.088-1.318,10.386,10.386,0,1,0-2.706,6.993,1,1,0,0,1,1.478,1.346A12.386,12.386,0,0,1,445,1812.386Zm7.457,3.254a1,1,0,0,1,.412-1.353l3.267-1.742V1805.3a1,1,0,0,1,2,0v7.844a1,1,0,0,1-.53.883l-3.8,2.024a1,1,0,0,1-1.353-.412Z" transform="translate(-421.511 -1756.518)"/>
</svg>
