<svg id="icon-ivm-wifi" xmlns="http://www.w3.org/2000/svg" width="40" height="40" viewBox="0 0 40 40">
  <defs>
    <style>
      .cls-1 {
        fill: none;
      }

      .cls-2 {
        fill: #00ada2;
      }

      .cls-3 {
        fill: #03263b;
      }
    </style>
  </defs>
  <rect id="mask" class="cls-1" width="40" height="40"/>
  <path id="路径" class="cls-2" d="M73.763,474.682a.315.315,0,0,1-.216-.112l-.832-.909a.3.3,0,0,1-.044-.094.345.345,0,0,1-.016-.106.362.362,0,0,1,.041-.167.371.371,0,0,1,.211-.178,3.274,3.274,0,0,1,.858-.115h.014a3.8,3.8,0,0,1,.876.106.377.377,0,0,1,.266.342.4.4,0,0,1-.1.27l-.81.881a.324.324,0,0,1-.219.089Zm2.545-1.984a5.17,5.17,0,0,0-4.919-.005.6.6,0,0,1-.762-.166.708.708,0,0,1-.079-.117.619.619,0,0,1,.265-.841,4.877,4.877,0,0,1,.494-.251,6.375,6.375,0,0,1,2.454-.548,6.04,6.04,0,0,1,3.093.862l.033.022a.638.638,0,0,1,.157.889l0,0a.571.571,0,0,1-.734.153m-7.859-1.9a.664.664,0,0,1-.168-.445V470.3a.676.676,0,0,1,.221-.457.887.887,0,0,1,.092-.069,8.463,8.463,0,0,1,3.044-1.265,11.028,11.028,0,0,1,7.574,1.2.694.694,0,0,1,.451.606.8.8,0,0,1-.092.376c-.087.164-.361.508-1.018.158-5.077-2.667-8.736-.171-8.888-.062a1.246,1.246,0,0,1-.7.24A.611.611,0,0,1,68.449,470.793Zm-1.814-1.613a.8.8,0,0,1-.56-.23.646.646,0,0,1-.175-.441.639.639,0,0,1,.207-.471.579.579,0,0,1,.1-.077,11.465,11.465,0,0,1,4.268-1.883,13.4,13.4,0,0,1,4.74-.232,16.479,16.479,0,0,1,5.984,2.049.811.811,0,0,1,.41.68v.034l-.083.2a.738.738,0,0,1-.48.343.752.752,0,0,1-.556-.109L80.437,469a13.169,13.169,0,0,0-9.524-1.661,10.152,10.152,0,0,0-3.742,1.618.748.748,0,0,1-.538.217Z" transform="translate(-55 -464)"/>
  <path id="路径-2" data-name="路径" class="cls-2" d="M83.339,484.412a1.68,1.68,0,0,1,0-3.361h2.123a1.68,1.68,0,1,1,0,3.361Zm-.442-1.681a.442.442,0,0,0,.441.443h2.124a.443.443,0,1,0,0-.885H83.339a.441.441,0,0,0-.442.441ZM62.1,484.412a1.681,1.681,0,0,1,0-3.362h2.12a1.681,1.681,0,1,1,0,3.361Zm-.442-1.681a.442.442,0,0,0,.441.443h2.121a.443.443,0,1,0,0-.885H62.1a.442.442,0,0,0-.438.441Z" transform="translate(-55 -464)"/>
  <path id="路径-3" data-name="路径" class="cls-3" d="M62.011,501.4a3.034,3.034,0,0,1-3.029-3.031v-.383L56.858,478.9v-.033a.34.34,0,0,1-.008-.034V477.9a2.518,2.518,0,0,1,2.521-2.515H88.14a2.519,2.519,0,0,1,2.515,2.515v.935a.424.424,0,0,1-.01.049v.042l-1.207,8.136h2.275a1.233,1.233,0,0,1,1.23,1.231V489.9a1.232,1.232,0,0,1-1.23,1.23H88.836l-1.015,6.854v.377a3.034,3.034,0,0,1-3.029,3.031Zm0-1.238H84.795a1.794,1.794,0,0,0,1.779-1.593H60.231a1.794,1.794,0,0,0,1.78,1.593m-1.857-2.831H86.671l2.647-17.872H58.17ZM89.335,488.3l-.2,1.594h2.571v-1.6ZM58.1,477.9v.316H89.415V477.9a1.277,1.277,0,0,0-1.275-1.276H59.374A1.279,1.279,0,0,0,58.1,477.9Zm12.121,14.3a.619.619,0,1,1,0-1.238H77.3a.619.619,0,1,1,0,1.238Zm0-2.123a.619.619,0,1,1,0-1.238H77.3a.619.619,0,1,1,0,1.238Zm0-2.123a.619.619,0,1,1,0-1.238H77.3a.619.619,0,1,1,0,1.238Z" transform="translate(-55 -464)"/>
</svg>
