<svg id="icon-confirm" xmlns="http://www.w3.org/2000/svg" width="56" height="56" viewBox="0 0 56 56">
  <defs>
    <style>
      .cls-1 {
        fill: none;
      }

      .cls-2 {
        fill: #00ada2;
        stroke: rgba(0,0,0,0);
        stroke-miterlimit: 10;
      }
    </style>
  </defs>
  <rect id="mask" class="cls-1" width="56" height="56"/>
  <path id="联合" class="cls-2" d="M445,1732.15A24.15,24.15,0,1,1,469.15,1756.3,24.178,24.178,0,0,1,445,1732.15Zm2.3,0a21.85,21.85,0,1,0,21.85-21.849A21.875,21.875,0,0,0,447.3,1732.15Zm18.237,9.71a1.147,1.147,0,0,1-.86-.423l-7.026-8.621a1.15,1.15,0,1,1,1.783-1.453l6.183,7.585,13.973-15.354a1.15,1.15,0,1,1,1.7,1.55l-14.869,16.34a1.153,1.153,0,0,1-.85.376Z" transform="translate(-441.15 -1704.15)"/>
</svg>
