<svg id="light" xmlns="http://www.w3.org/2000/svg" width="24" height="24" viewBox="0 0 24 24">
  <defs>
    <style>
      .cls-1 {
        fill: none;
      }

      .cls-2 {
        fill: #fff;
      }
    </style>
  </defs>
  <rect id="矩形" class="cls-1" width="24" height="24"/>
  <path id="联合" class="cls-2" d="M-1804,265a3,3,0,0,1-3-3V250a3,3,0,0,1,3-3h10a3,3,0,0,1,3,3v12a3,3,0,0,1-3,3Zm-1.35-15v12a1.352,1.352,0,0,0,1.35,1.35h10a1.352,1.352,0,0,0,1.35-1.35V250a1.352,1.352,0,0,0-1.35-1.35h-10A1.352,1.352,0,0,0-1805.35,250Zm2.544,10.824a.824.824,0,0,1-.825-.824.825.825,0,0,1,.825-.825h2.556a.825.825,0,0,1,.825.825.824.824,0,0,1-.825.824Zm0-4a.825.825,0,0,1-.825-.825.824.824,0,0,1,.825-.824h7.61a.824.824,0,0,1,.825.824.825.825,0,0,1-.825.825Zm0-4a.825.825,0,0,1-.825-.825.825.825,0,0,1,.825-.825h7.61a.825.825,0,0,1,.825.825.825.825,0,0,1-.825.825Z" transform="translate(1811 -244)"/>
</svg>
