<svg id="light" xmlns="http://www.w3.org/2000/svg" width="24" height="24" viewBox="0 0 24 24">
  <defs>
    <style>
      .cls-1 {
        fill: none;
      }

      .cls-2 {
        fill: #fff;
      }
    </style>
  </defs>
  <rect id="矩形" class="cls-1" width="24" height="24"/>
  <path id="联合" class="cls-2" d="M-1734,265a9,9,0,0,1-9-9,9,9,0,0,1,9-9,9,9,0,0,1,9,9,9,9,0,0,1-9,9Zm0-1.65c.191,0,.765-.4,1.321-1.656a10.575,10.575,0,0,0,.61-1.869h-3.862a10.6,10.6,0,0,0,.61,1.869c.556,1.251,1.13,1.656,1.32,1.656Zm-2.576-.466a11.825,11.825,0,0,1-1.045-3.059h-2.653A7.391,7.391,0,0,0-1736.577,262.884Zm5.153,0a7.389,7.389,0,0,0,3.7-3.059h-2.653A11.82,11.82,0,0,1-1731.423,262.884Zm4.445-4.709a7.329,7.329,0,0,0,.328-2.175,7.327,7.327,0,0,0-.328-2.174h-3.139A19.848,19.848,0,0,1-1730,256a19.894,19.894,0,0,1-.118,2.175Zm-4.8,0a18.128,18.128,0,0,0,.13-2.175,18.117,18.117,0,0,0-.13-2.174h-4.44a18.092,18.092,0,0,0-.13,2.174,18.077,18.077,0,0,0,.13,2.175Zm-6.1,0A19.893,19.893,0,0,1-1738,256a19.847,19.847,0,0,1,.118-2.174h-3.139a7.327,7.327,0,0,0-.328,2.174,7.329,7.329,0,0,0,.328,2.175Zm10.156-6a7.393,7.393,0,0,0-3.7-3.058,11.822,11.822,0,0,1,1.045,3.058Zm-4.344,0a10.557,10.557,0,0,0-.61-1.868c-.556-1.251-1.13-1.656-1.321-1.656s-.764.4-1.32,1.656a10.577,10.577,0,0,0-.61,1.868Zm-5.552,0a11.828,11.828,0,0,1,1.045-3.058,7.391,7.391,0,0,0-3.7,3.058Z" transform="translate(1746 -244)"/>
</svg>
