<svg xmlns="http://www.w3.org/2000/svg" width="24" height="24" viewBox="0 0 24 24">
    <path style="fill:none" d="M0 0h24v24H0z"/>
    <path d="M-1804 265a3 3 0 0 1-3-3v-12a3 3 0 0 1 3-3h10a3 3 0 0 1 3 3v12a3 3 0 0 1-3 3zm-1.35-15v12a1.352 1.352 0 0 0 1.35 1.35h10a1.352 1.352 0 0 0 1.35-1.35v-12a1.352 1.352 0 0 0-1.35-1.35h-10a1.352 1.352 0 0 0-1.35 1.35zm2.544 10.824a.824.824 0 0 1-.825-.824.825.825 0 0 1 .825-.825h2.556a.825.825 0 0 1 .825.825.824.824 0 0 1-.825.824zm0-4a.825.825 0 0 1-.825-.825.824.824 0 0 1 .825-.824h7.61a.824.824 0 0 1 .825.824.825.825 0 0 1-.825.825zm0-4a.825.825 0 0 1-.825-.825.825.825 0 0 1 .825-.825h7.61a.825.825 0 0 1 .825.825.825.825 0 0 1-.825.825z" transform="translate(1811 -244)" style="fill:#fff"/>
</svg>
