<svg id="light" xmlns="http://www.w3.org/2000/svg" width="24" height="24" viewBox="0 0 24 24">
  <defs>
    <style>
      .cls-1 {
        fill: none;
      }

      .cls-2 {
        fill: #fff;
      }
    </style>
  </defs>
  <rect id="Rectangle" class="cls-1" width="24" height="24"/>
  <path id="联合" class="cls-2" d="M521.353,1805.436a.874.874,0,0,1,0-1.746h2.687l-.018-2.773a.841.841,0,1,1,1.68,0v2.792a1.7,1.7,0,0,1-1.662,1.727Zm-12.692,0a1.7,1.7,0,0,1-1.661-1.727v-2.792a.841.841,0,1,1,1.68,0v2.792l2.668-.019a.874.874,0,0,1,0,1.746Zm-.637-8.855a.858.858,0,1,1,0-1.7h16.653a.858.858,0,1,1,0,1.7Zm16-6.062v-2.793l-2.669.02a.874.874,0,0,1,0-1.746h2.687a1.7,1.7,0,0,1,1.662,1.726v2.793a.841.841,0,1,1-1.68,0Zm-17.022,0v-2.793a1.7,1.7,0,0,1,1.661-1.726h2.687a.874.874,0,0,1,0,1.746h-2.687l.019,2.773a.841.841,0,1,1-1.68,0Z" transform="translate(-504.35 -1783.718)"/>
</svg>
