<svg id="light" xmlns="http://www.w3.org/2000/svg" width="24" height="24" viewBox="0 0 24 24">
  <defs>
    <style>
      .cls-1 {
        fill: none;
      }

      .cls-2 {
        fill: #fff;
      }
    </style>
  </defs>
  <rect id="矩形" class="cls-1" width="24" height="24"/>
  <path id="联合" class="cls-2" d="M-1775,256.528a8.767,8.767,0,0,1,8.757-8.757,8.766,8.766,0,0,1,5.185,1.7v-1.647a.825.825,0,0,1,.824-.825.825.825,0,0,1,.825.825v3.656a.824.824,0,0,1-.825.824h-3.655a.825.825,0,0,1-.825-.824.825.825,0,0,1,.825-.825h1.647a7.115,7.115,0,0,0-4-1.234,7.115,7.115,0,0,0-7.107,7.106,7.115,7.115,0,0,0,7.107,7.107,7.115,7.115,0,0,0,7.107-7.107.824.824,0,0,1,.825-.824.824.824,0,0,1,.824.824,8.767,8.767,0,0,1-8.757,8.758A8.767,8.767,0,0,1-1775,256.528Z" transform="translate(1778.243 -244.143)"/>
</svg>
