<svg xmlns="http://www.w3.org/2000/svg" width="343" height="1" viewBox="0 0 343 1">
    <path style="fill:none" d="M0 0h343v1H0z"/>
    <path data-name="line_dot" d="M342 .5a.5.5 0 1 1 .5.5.5.5 0 0 1-.5-.5zm-5.5.5a.5.5 0 1 1 0-1h2a.5.5 0 1 1 0 1zm-6 0a.5.5 0 0 1 0-1h2a.5.5 0 1 1 0 1zm-6 0a.5.5 0 1 1 0-1h2a.5.5 0 0 1 0 1zm-6 0a.5.5 0 1 1 0-1h2a.5.5 0 1 1 0 1zm-6 0a.5.5 0 0 1 0-1h2a.5.5 0 1 1 0 1zm-6 0a.5.5 0 1 1 0-1h2a.5.5 0 0 1 0 1zm-6 0a.5.5 0 1 1 0-1h2a.5.5 0 1 1 0 1zm-6 0a.5.5 0 0 1 0-1h2a.5.5 0 1 1 0 1zm-6 0a.5.5 0 1 1 0-1h2a.5.5 0 0 1 0 1zm-6 0a.5.5 0 1 1 0-1h2a.5.5 0 1 1 0 1zm-6 0a.5.5 0 0 1 0-1h2a.5.5 0 1 1 0 1zm-6 0a.5.5 0 1 1 0-1h2a.5.5 0 0 1 0 1zm-6 0a.5.5 0 1 1 0-1h2a.5.5 0 1 1 0 1zm-6 0a.5.5 0 0 1 0-1h2a.5.5 0 1 1 0 1zm-6 0a.5.5 0 1 1 0-1h2a.5.5 0 0 1 0 1zm-6 0a.5.5 0 1 1 0-1h2a.5.5 0 1 1 0 1zm-6 0a.5.5 0 0 1 0-1h2a.5.5 0 1 1 0 1zm-6 0a.5.5 0 1 1 0-1h2a.5.5 0 0 1 0 1zm-6 0a.5.5 0 1 1 0-1h2a.5.5 0 1 1 0 1zm-6 0a.5.5 0 0 1 0-1h2a.5.5 0 1 1 0 1zm-6 0a.5.5 0 1 1 0-1h2a.5.5 0 0 1 0 1zm-6 0a.5.5 0 1 1 0-1h2a.5.5 0 1 1 0 1zm-6 0a.5.5 0 0 1 0-1h2a.5.5 0 1 1 0 1zm-6 0a.5.5 0 1 1 0-1h2a.5.5 0 0 1 0 1zm-6 0a.5.5 0 1 1 0-1h2a.5.5 0 1 1 0 1zm-6 0a.5.5 0 0 1 0-1h2a.5.5 0 1 1 0 1zm-6 0a.5.5 0 1 1 0-1h2a.5.5 0 0 1 0 1zm-6 0a.5.5 0 1 1 0-1h2a.5.5 0 1 1 0 1zm-6 0a.5.5 0 0 1 0-1h2a.5.5 0 1 1 0 1zm-6 0a.5.5 0 1 1 0-1h2a.5.5 0 0 1 0 1zm-6 0a.5.5 0 1 1 0-1h2a.5.5 0 1 1 0 1zm-6 0a.5.5 0 0 1 0-1h2a.5.5 0 1 1 0 1zm-6 0a.5.5 0 1 1 0-1h2a.5.5 0 0 1 0 1zm-6 0a.5.5 0 1 1 0-1h2a.5.5 0 1 1 0 1zm-6 0a.5.5 0 0 1 0-1h2a.5.5 0 1 1 0 1zm-6 0a.5.5 0 1 1 0-1h2a.5.5 0 0 1 0 1zm-6 0a.5.5 0 1 1 0-1h2a.5.5 0 1 1 0 1zm-6 0a.5.5 0 0 1 0-1h2a.5.5 0 1 1 0 1zm-6 0a.5.5 0 1 1 0-1h2a.5.5 0 0 1 0 1zm-6 0a.5.5 0 1 1 0-1h2a.5.5 0 1 1 0 1zm-6 0a.5.5 0 0 1 0-1h2a.5.5 0 1 1 0 1zm-6 0a.5.5 0 1 1 0-1h2a.5.5 0 0 1 0 1zm-6 0a.5.5 0 1 1 0-1h2a.5.5 0 1 1 0 1zm-6 0a.5.5 0 0 1 0-1h2a.5.5 0 1 1 0 1zm-6 0a.5.5 0 1 1 0-1h2a.5.5 0 0 1 0 1zm-6 0a.5.5 0 1 1 0-1h2a.5.5 0 1 1 0 1zm-6 0a.5.5 0 0 1 0-1h2a.5.5 0 1 1 0 1zm-6 0a.5.5 0 1 1 0-1h2a.5.5 0 0 1 0 1zm-6 0a.5.5 0 1 1 0-1h2a.5.5 0 1 1 0 1zm-6 0a.5.5 0 0 1 0-1h2a.5.5 0 1 1 0 1zm-6 0a.5.5 0 1 1 0-1h2a.5.5 0 0 1 0 1zm-6 0a.5.5 0 1 1 0-1h2a.5.5 0 1 1 0 1zm-6 0a.5.5 0 0 1 0-1h2a.5.5 0 1 1 0 1zm-6 0a.5.5 0 1 1 0-1h2a.5.5 0 0 1 0 1zm-6 0a.5.5 0 1 1 0-1h2a.5.5 0 1 1 0 1zm-6 0a.5.5 0 0 1 0-1h2a.5.5 0 1 1 0 1zm-6 0a.5.5 0 1 1 0-1h2a.5.5 0 0 1 0 1z" style="fill:rgba(3,38,59,.35)"/>
</svg>
