<svg xmlns="http://www.w3.org/2000/svg" width="311" height="1" viewBox="0 0 311 1">
    <path style="fill:none" d="M0 0h311v1H0z"/>
    <path data-name="line_dot" d="M306.5 1a.5.5 0 1 1 0-1h2a.5.5 0 0 1 0 1zm-6 0a.5.5 0 1 1 0-1h2a.5.5 0 1 1 0 1zm-6 0a.5.5 0 0 1 0-1h2a.5.5 0 1 1 0 1zm-6 0a.5.5 0 1 1 0-1h2a.5.5 0 0 1 0 1zm-6 0a.5.5 0 1 1 0-1h2a.5.5 0 1 1 0 1zm-6 0a.5.5 0 0 1 0-1h2a.5.5 0 1 1 0 1zm-6 0a.5.5 0 1 1 0-1h2a.5.5 0 0 1 0 1zm-6 0a.5.5 0 1 1 0-1h2a.5.5 0 1 1 0 1zm-6 0a.5.5 0 0 1 0-1h2a.5.5 0 1 1 0 1zm-6 0a.5.5 0 1 1 0-1h2a.5.5 0 0 1 0 1zm-6 0a.5.5 0 1 1 0-1h2a.5.5 0 1 1 0 1zm-6 0a.5.5 0 0 1 0-1h2a.5.5 0 1 1 0 1zm-6 0a.5.5 0 1 1 0-1h2a.5.5 0 0 1 0 1zm-6 0a.5.5 0 1 1 0-1h2a.5.5 0 1 1 0 1zm-6 0a.5.5 0 0 1 0-1h2a.5.5 0 1 1 0 1zm-6 0a.5.5 0 1 1 0-1h2a.5.5 0 0 1 0 1zm-6 0a.5.5 0 1 1 0-1h2a.5.5 0 1 1 0 1zm-6 0a.5.5 0 0 1 0-1h2a.5.5 0 1 1 0 1zm-6 0a.5.5 0 1 1 0-1h2a.5.5 0 0 1 0 1zm-6 0a.5.5 0 1 1 0-1h2a.5.5 0 1 1 0 1zm-6 0a.5.5 0 0 1 0-1h2a.5.5 0 1 1 0 1zm-6 0a.5.5 0 1 1 0-1h2a.5.5 0 0 1 0 1zm-6 0a.5.5 0 1 1 0-1h2a.5.5 0 1 1 0 1zm-6 0a.5.5 0 0 1 0-1h2a.5.5 0 1 1 0 1zm-6 0a.5.5 0 1 1 0-1h2a.5.5 0 0 1 0 1zm-6 0a.5.5 0 1 1 0-1h2a.5.5 0 1 1 0 1zm-6 0a.5.5 0 0 1 0-1h2a.5.5 0 1 1 0 1zm-6 0a.5.5 0 1 1 0-1h2a.5.5 0 0 1 0 1zm-6 0a.5.5 0 1 1 0-1h2a.5.5 0 1 1 0 1zm-6 0a.5.5 0 0 1 0-1h2a.5.5 0 1 1 0 1zm-6 0a.5.5 0 1 1 0-1h2a.5.5 0 0 1 0 1zm-6 0a.5.5 0 1 1 0-1h2a.5.5 0 1 1 0 1zm-6 0a.5.5 0 0 1 0-1h2a.5.5 0 1 1 0 1zm-6 0a.5.5 0 1 1 0-1h2a.5.5 0 0 1 0 1zm-6 0a.5.5 0 1 1 0-1h2a.5.5 0 1 1 0 1zm-6 0a.5.5 0 0 1 0-1h2a.5.5 0 1 1 0 1zm-6 0a.5.5 0 1 1 0-1h2a.5.5 0 0 1 0 1zm-6 0a.5.5 0 1 1 0-1h2a.5.5 0 1 1 0 1zm-6 0a.5.5 0 0 1 0-1h2a.5.5 0 1 1 0 1zm-6 0a.5.5 0 1 1 0-1h2a.5.5 0 0 1 0 1zm-6 0a.5.5 0 1 1 0-1h2a.5.5 0 1 1 0 1zm-6 0a.5.5 0 0 1 0-1h2a.5.5 0 1 1 0 1zm-6 0a.5.5 0 1 1 0-1h2a.5.5 0 0 1 0 1zm-6 0a.5.5 0 1 1 0-1h2a.5.5 0 1 1 0 1zm-6 0a.5.5 0 0 1 0-1h2a.5.5 0 1 1 0 1zm-6 0a.5.5 0 1 1 0-1h2a.5.5 0 0 1 0 1zm-6 0a.5.5 0 1 1 0-1h2a.5.5 0 1 1 0 1zm-6 0a.5.5 0 0 1 0-1h2a.5.5 0 1 1 0 1zm-6 0a.5.5 0 1 1 0-1h2a.5.5 0 0 1 0 1zm-6 0a.5.5 0 1 1 0-1h2a.5.5 0 1 1 0 1zm-6 0a.5.5 0 0 1 0-1h2a.5.5 0 1 1 0 1zm-6 0a.5.5 0 1 1 0-1h2a.5.5 0 0 1 0 1z" style="fill:rgba(3,38,59,.1)"/>
</svg>
