<svg id="logo" xmlns="http://www.w3.org/2000/svg" width="225" height="65" viewBox="0 0 225 65">
  <defs>
    <style>
      .cls-1 {
        fill: none;
        opacity: 0.24;
      }

      .cls-2 {
        fill: #00ada2;
      }

      .cls-3 {
        fill: #fff;
        stroke: rgba(0,0,0,0);
        stroke-miterlimit: 10;
      }
    </style>
  </defs>
  <rect id="矩形" class="cls-1" width="225" height="65"/>
  <path id="路径" class="cls-2" d="M34.916,15.326l-10.75,11.34h13.19l3.95-4.162,15.184-16H43.276Z" transform="translate(12.471 5.984)"/>
  <path id="联合" class="cls-3" d="M39.375,49.392a19.874,19.874,0,0,0,11.954-3.954A20.218,20.218,0,0,0,58.489,35.4,15.22,15.22,0,0,1,73.041,24.7H78.75v9.31H73.041A5.945,5.945,0,0,0,67.368,38.2,29.359,29.359,0,0,1,39.375,58.7ZM22.113,29.35A17.281,17.281,0,0,1,39.375,12.088V21.4a7.952,7.952,0,1,0,7.953,7.951h9.311a17.263,17.263,0,0,1-34.526,0ZM0,34.006V24.7H5.709A5.946,5.946,0,0,0,11.383,20.5,29.357,29.357,0,0,1,39.375,0V9.309a19.869,19.869,0,0,0-11.954,3.955,20.21,20.21,0,0,0-7.16,10.042,15.22,15.22,0,0,1-14.552,10.7Z" transform="translate(2.5 3.299)"/>
  <path id="联合-2" data-name="联合" class="cls-3" d="M86.875,5.548a1.874,1.874,0,0,1-.584-1.481h.735a1.628,1.628,0,0,0,.222.8,1.463,1.463,0,0,0,1.322.573,2.279,2.279,0,0,0,.772-.126.885.885,0,0,0,.674-.873.763.763,0,0,0-.285-.673,2.894,2.894,0,0,0-.906-.342l-.758-.175a3.392,3.392,0,0,1-1.051-.381,1.221,1.221,0,0,1-.533-1.079A1.692,1.692,0,0,1,87.007.51a2.074,2.074,0,0,1,1.485-.5,2.52,2.52,0,0,1,1.5.437,1.6,1.6,0,0,1,.619,1.4h-.736a1.46,1.46,0,0,0-.242-.709A1.37,1.37,0,0,0,88.469.687a1.311,1.311,0,0,0-.952.291.93.93,0,0,0-.29.676.666.666,0,0,0,.343.622,4.876,4.876,0,0,0,1.015.314l.786.184a2.357,2.357,0,0,1,.875.365,1.385,1.385,0,0,1,.534,1.175A1.474,1.474,0,0,1,90.1,5.685a2.974,2.974,0,0,1-1.58.413A2.32,2.32,0,0,1,86.875,5.548ZM50.226,5.218a3.324,3.324,0,0,1-.679-2.145,3.4,3.4,0,0,1,.582-2A2.518,2.518,0,0,1,52.336,0,2.641,2.641,0,0,1,54.6.981a3.185,3.185,0,0,1,.575,1.96,3.436,3.436,0,0,1-.656,2.151,2.916,2.916,0,0,1-4.292.125Zm.7-3.907a2.584,2.584,0,0,0-.568,1.814,2.647,2.647,0,0,0,.487,1.618,1.822,1.822,0,0,0,1.574.66,1.626,1.626,0,0,0,1.5-.741,3.16,3.16,0,0,0,.461-1.7,2.431,2.431,0,0,0-.533-1.64A1.813,1.813,0,0,0,52.385.7,1.891,1.891,0,0,0,50.923,1.311ZM32.41,5.548a1.874,1.874,0,0,1-.584-1.481h.735a1.628,1.628,0,0,0,.222.8,1.463,1.463,0,0,0,1.322.573,2.279,2.279,0,0,0,.772-.126.885.885,0,0,0,.674-.873.763.763,0,0,0-.285-.673,2.894,2.894,0,0,0-.906-.342L33.6,3.25a3.405,3.405,0,0,1-1.051-.381,1.221,1.221,0,0,1-.533-1.079A1.692,1.692,0,0,1,32.543.51a2.074,2.074,0,0,1,1.485-.5,2.52,2.52,0,0,1,1.5.437,1.6,1.6,0,0,1,.619,1.4h-.736a1.474,1.474,0,0,0-.24-.709A1.375,1.375,0,0,0,34,.687a1.313,1.313,0,0,0-.952.291.93.93,0,0,0-.29.676.666.666,0,0,0,.343.622,4.9,4.9,0,0,0,1.015.314l.786.184a2.373,2.373,0,0,1,.876.365,1.387,1.387,0,0,1,.533,1.175,1.478,1.478,0,0,1-.679,1.372,2.986,2.986,0,0,1-1.583.413A2.32,2.32,0,0,1,32.41,5.548ZM117.2,5.93V.156h.782V5.242h2.9V5.93Zm-7.707,0V.156h4.188V.865H110.25V2.615h3.168v.669H110.25V5.242h3.486V5.93Zm-7.783,0V.156h4.188V.865h-3.428V2.615h3.169v.669h-3.169V5.242h3.487V5.93Zm-5.946,0V.844H93.817V.156H98.5V.844H96.551V5.93Zm-29.012,0V.156h.782V5.242h2.9V5.93Zm-4.38,0a.807.807,0,0,1-.064-.192,3.83,3.83,0,0,1-.038-.456l-.048-.962a.812.812,0,0,0-.408-.759,1.637,1.637,0,0,0-.683-.106H59.4V5.93h-.783V.156h2.623a2.591,2.591,0,0,1,1.069.192,1.369,1.369,0,0,1,.8,1.365,1.54,1.54,0,0,1-.212.847,1.542,1.542,0,0,1-.6.531,1.175,1.175,0,0,1,.51.362,1.3,1.3,0,0,1,.189.727l.029.774a2.333,2.333,0,0,0,.053.489.481.481,0,0,0,.253.355v.13ZM59.4,2.8h1.757A1.425,1.425,0,0,0,62,2.581a.9.9,0,0,0,.313-.792.86.86,0,0,0-.436-.843,1.389,1.389,0,0,0-.622-.118H59.4ZM44.371,5.93,43.038,1.143,41.7,5.93h-.823L39.367.156h.849L41.3,4.846l1.3-4.69h.847l1.307,4.7,1.088-4.7h.858L45.193,5.93Zm-16.88,0L24.57,1.271V5.93h-.746V.156h.922l2.88,4.665V.156h.745V5.93Zm-15.83,0a.754.754,0,0,1-.064-.192,3.829,3.829,0,0,1-.038-.456l-.048-.962A.812.812,0,0,0,11.1,3.56a1.644,1.644,0,0,0-.684-.106H8.69V5.93H7.909V.156h2.623A2.591,2.591,0,0,1,11.6.348a1.369,1.369,0,0,1,.8,1.365,1.529,1.529,0,0,1-.215.847,1.525,1.525,0,0,1-.6.531,1.163,1.163,0,0,1,.509.362,1.287,1.287,0,0,1,.191.727l.028.774a2.423,2.423,0,0,0,.053.489.486.486,0,0,0,.252.355v.13ZM8.69,2.8h1.758a1.429,1.429,0,0,0,.847-.22.906.906,0,0,0,.313-.792A.859.859,0,0,0,11.17.946a1.381,1.381,0,0,0-.622-.118H8.69ZM1.944,5.93V.844H0V.156H4.68V.844H2.735V5.93Zm71.728,0V.155h2.309A2.16,2.16,0,0,1,77.8,1a3.137,3.137,0,0,1,.578,1.953,3.917,3.917,0,0,1-.342,1.663,2.1,2.1,0,0,1-2.067,1.312Zm.791-.667h1.364a2.041,2.041,0,0,0,.638-.083,1.406,1.406,0,0,0,.728-.59,2.431,2.431,0,0,0,.328-.9,3.519,3.519,0,0,0,.057-.6,2.873,2.873,0,0,0-.416-1.667A1.528,1.528,0,0,0,75.819.828H74.463Zm-54.621.667L19.256,4.2H16.972L16.35,5.928h-.8L17.719.155H18.6l2.1,5.773ZM17.2,3.562H19l-.877-2.55Z" transform="translate(92.689 48.862)"/>
  <path id="联合-3" data-name="联合" class="cls-3" d="M-1607.326-794.579-1592.493-826h17.579c5.28,0,9.1,5.693,6.9,10.287l-5.172,13.906a12.828,12.828,0,0,1-11.762,7.228Zm11.326-7.139h8.55a9.294,9.294,0,0,0,8.521-5.237l3.348-10.087a1.321,1.321,0,0,0-1.219-1.818h-11.617Zm-23.008,7.133-5.248-17.518L-1631-794.585h-6.232l-8.865-31.409h9.742l3.617,16.564,7.091-16.564h6.668l4.432,16.564,5.5-13.984a3.44,3.44,0,0,1,1.805-1.964,8.647,8.647,0,0,1,3.621-.616h8.912l-3.267,6.875a5.153,5.153,0,0,0-2.616.571,4.45,4.45,0,0,0-1.714,1.893l-10.472,22.071Zm-30.881,0-1.833-6.585a1.417,1.417,0,0,0-1.365-1.037h-13.394a1.416,1.416,0,0,0-1.289.827l-3.1,6.8H-1680l11.179-24.509h-4.578a3.669,3.669,0,0,0-3.338,2.147l-10.2,22.361h-10.482l11.18-24.509H-1700l3.146-6.9h47.346l8.745,31.408Zm-10.181-23.68-4.181,9.169h10.322l-2.495-8.961a1.42,1.42,0,0,0-1.366-1.037h-.99A1.42,1.42,0,0,0-1660.07-818.269Z" transform="translate(1790.116 837.721)"/>
</svg>
